font.ufo
<glyph name="exclam" format="2">
	<unicode hex="0021"/>
	<advance width="318"/>
	<outline>
		<contour>
			<point x="119" y="217" type="line"/>
			<point x="198" y="217" type="line"/>
			<point x="215" y="555" type="line"/>
			<point x="218" y="670" type="line"/>
			<point x="99" y="670" type="line"/>
			<point x="103" y="555" type="line"/>
		</contour>
		<contour>
			<point x="159" y="-12" type="curve" smooth="yes"/>
			<point x="202" y="-12"/>
			<point x="235" y="22"/>
			<point x="235" y="67" type="curve" smooth="yes"/>
			<point x="235" y="113"/>
			<point x="202" y="147"/>
			<point x="159" y="147" type="curve" smooth="yes"/>
			<point x="116" y="147"/>
			<point x="83" y="113"/>
			<point x="83" y="67" type="curve" smooth="yes"/>
			<point x="83" y="22"/>
			<point x="116" y="-12"/>
		</contour>
	</outline>
</glyph>
<glyph name="dollar" format="2">
	<unicode hex="0024"/>
	<advance width="514"/>
	<outline>
		<contour>
			<point x="245" y="-12" type="curve" smooth="yes"/>
			<point x="378" y="-12"/>
			<point x="454" y="67"/>
			<point x="454" y="180" type="curve" smooth="yes"/>
			<point x="454" y="367"/>
			<point x="183" y="366"/>
			<point x="183" y="473" type="curve" smooth="yes"/>
			<point x="183" y="523"/>
			<point x="215" y="552"/>
			<point x="267" y="552" type="curve" smooth="yes"/>
			<point x="315" y="552"/>
			<point x="351" y="534"/>
			<point x="384" y="501" type="curve"/>
			<point x="445" y="565" type="line"/>
			<point x="402" y="615"/>
			<point x="346" y="648"/>
			<point x="264" y="648" type="curve" smooth="yes"/>
			<point x="147" y="648"/>
			<point x="69" y="577"/>
			<point x="69" y="468" type="curve" smooth="yes"/>
			<point x="69" y="291"/>
			<point x="340" y="288"/>
			<point x="340" y="171" type="curve" smooth="yes"/>
			<point x="340" y="117"/>
			<point x="310" y="84"/>
			<point x="245" y="84" type="curve" smooth="yes"/>
			<point x="192" y="84"/>
			<point x="145" y="103"/>
			<point x="99" y="143" type="curve"/>
			<point x="45" y="70" type="line"/>
			<point x="96" y="16"/>
			<point x="170" y="-12"/>
		</contour>
		<contour>
			<point x="218" y="-110" type="line"/>
			<point x="299" y="-110" type="line"/>
			<point x="299" y="34" type="line"/>
			<point x="218" y="34" type="line"/>
		</contour>
		<contour>
			<point x="218" y="609" type="line"/>
			<point x="299" y="609" type="line"/>
			<point x="299" y="746" type="line"/>
			<point x="218" y="746" type="line"/>
		</contour>
	</outline>
</glyph>
<glyph name="ampersand" format="2">
	<unicode hex="0026"/>
	<advance width="642"/>
	<outline>
		<contour>
			<point x="238" y="-12" type="curve" smooth="yes"/>
			<point x="339" y="-12"/>
			<point x="417" y="32"/>
			<point x="476" y="96" type="curve" smooth="yes"/>
			<point x="544" y="174"/>
			<point x="590" y="264"/>
			<point x="619" y="362" type="curve"/>
			<point x="510" y="362" type="line"/>
			<point x="487" y="275"/>
			<point x="446" y="205"/>
			<point x="394" y="150" type="curve" smooth="yes"/>
			<point x="351" y="108"/>
			<point x="302" y="79"/>
			<point x="252" y="79" type="curve" smooth="yes"/>
			<point x="188" y="79"/>
			<point x="141" y="119"/>
			<point x="141" y="179" type="curve" smooth="yes"/>
			<point x="141" y="310"/>
			<point x="422" y="355"/>
			<point x="422" y="526" type="curve" smooth="yes"/>
			<point x="422" y="610"/>
			<point x="367" y="666"/>
			<point x="276" y="666" type="curve" smooth="yes"/>
			<point x="175" y="666"/>
			<point x="110" y="592"/>
			<point x="110" y="502" type="curve" smooth="yes"/>
			<point x="110" y="368"/>
			<point x="252" y="187"/>
			<point x="406" y="78" type="curve" smooth="yes"/>
			<point x="470" y="32"/>
			<point x="536" y="2"/>
			<point x="595" y="-12" type="curve"/>
			<point x="625" y="84" type="line"/>
			<point x="582" y="93"/>
			<point x="530" y="119"/>
			<point x="477" y="154" type="curve" smooth="yes"/>
			<point x="347" y="240"/>
			<point x="209" y="391"/>
			<point x="209" y="503" type="curve" smooth="yes"/>
			<point x="209" y="552"/>
			<point x="238" y="586"/>
			<point x="278" y="586" type="curve" smooth="yes"/>
			<point x="315" y="586"/>
			<point x="330" y="559"/>
			<point x="330" y="525" type="curve" smooth="yes"/>
			<point x="330" y="392"/>
			<point x="28" y="377"/>
			<point x="28" y="172" type="curve" smooth="yes"/>
			<point x="28" y="70"/>
			<point x="106" y="-12"/>
		</contour>
	</outline>
</glyph>
<glyph name="quotesingle" format="2">
	<unicode hex="0027"/>
	<advance width="278"/>
	<outline>
		<contour>
			<point x="105" y="388" type="line"/>
			<point x="172" y="388" type="line"/>
			<point x="195" y="573" type="line"/>
			<point x="199" y="688" type="line"/>
			<point x="78" y="688" type="line"/>
			<point x="82" y="573" type="line"/>
		</contour>
	</outline>
</glyph>
<glyph name="parenleft" format="2">
	<unicode hex="0028"/>
	<advance width="326"/>
	<outline>
		<contour>
			<point x="208" y="-178" type="curve"/>
			<point x="282" y="-146" type="line"/>
			<point x="207" y="-17"/>
			<point x="173" y="132"/>
			<point x="173" y="278" type="curve" smooth="yes"/>
			<point x="173" y="424"/>
			<point x="207" y="573"/>
			<point x="282" y="702" type="curve"/>
			<point x="208" y="734" type="line"/>
			<point x="125" y="598"/>
			<point x="76" y="454"/>
			<point x="76" y="278" type="curve" smooth="yes"/>
			<point x="76" y="102"/>
			<point x="125" y="-42"/>
		</contour>
	</outline>
</glyph>
<glyph name="parenright" format="2">
	<unicode hex="0029"/>
	<advance width="326"/>
	<outline>
		<contour>
			<point x="118" y="-178" type="line"/>
			<point x="201" y="-42"/>
			<point x="250" y="102"/>
			<point x="250" y="278" type="curve" smooth="yes"/>
			<point x="250" y="454"/>
			<point x="201" y="598"/>
			<point x="118" y="734" type="curve"/>
			<point x="44" y="702" type="line"/>
			<point x="119" y="573"/>
			<point x="153" y="424"/>
			<point x="153" y="278" type="curve" smooth="yes"/>
			<point x="153" y="132"/>
			<point x="119" y="-17"/>
			<point x="44" y="-146" type="curve"/>
		</contour>
	</outline>
</glyph>
<glyph name="asterisk" format="2">
	<unicode hex="002A"/>
	<advance width="439"/>
	<outline>
		<contour>
			<point x="144" y="380" type="line"/>
			<point x="220" y="468" type="line"/>
			<point x="296" y="380" type="line"/>
			<point x="348" y="418" type="line"/>
			<point x="289" y="517" type="line"/>
			<point x="393" y="562" type="line"/>
			<point x="373" y="623" type="line"/>
			<point x="263" y="598" type="line"/>
			<point x="252" y="712" type="line"/>
			<point x="187" y="712" type="line"/>
			<point x="176" y="598" type="line"/>
			<point x="66" y="623" type="line"/>
			<point x="47" y="562" type="line"/>
			<point x="150" y="517" type="line"/>
			<point x="92" y="418" type="line"/>
		</contour>
	</outline>
</glyph>
<glyph name="plus" format="2">
	<unicode hex="002B"/>
	<advance width="514"/>
	<outline>
		<contour>
			<point x="213" y="98" type="line"/>
			<point x="302" y="98" type="line"/>
			<point x="302" y="287" type="line"/>
			<point x="480" y="287" type="line"/>
			<point x="480" y="373" type="line"/>
			<point x="302" y="373" type="line"/>
			<point x="302" y="562" type="line"/>
			<point x="213" y="562" type="line"/>
			<point x="213" y="373" type="line"/>
			<point x="34" y="373" type="line"/>
			<point x="34" y="287" type="line"/>
			<point x="213" y="287" type="line"/>
		</contour>
	</outline>
</glyph>
<glyph name="comma" format="2">
	<unicode hex="002C"/>
	<advance width="275"/>
	<outline>
		<contour>
			<point x="72" y="-182" type="line"/>
			<point x="171" y="-148"/>
			<point x="228" y="-72"/>
			<point x="228" y="26" type="curve" smooth="yes"/>
			<point x="228" y="100"/>
			<point x="196" y="144"/>
			<point x="142" y="144" type="curve" smooth="yes"/>
			<point x="100" y="144"/>
			<point x="65" y="116"/>
			<point x="65" y="73" type="curve" smooth="yes"/>
			<point x="65" y="28"/>
			<point x="100" y="2"/>
			<point x="139" y="2" type="curve" smooth="yes"/>
			<point x="157" y="2"/>
			<point x="174" y="7"/>
			<point x="187" y="20" type="curve"/>
			<point x="143" y="92" type="line"/>
			<point x="148" y="5" type="line"/>
			<point x="149" y="-48"/>
			<point x="112" y="-94"/>
			<point x="47" y="-119" type="curve"/>
		</contour>
	</outline>
</glyph>
<glyph name="period" format="2">
	<unicode hex="002E"/>
	<advance width="278"/>
	<outline>
		<contour>
			<point x="139" y="-12" type="curve" smooth="yes"/>
			<point x="182" y="-12"/>
			<point x="215" y="22"/>
			<point x="215" y="67" type="curve" smooth="yes"/>
			<point x="215" y="113"/>
			<point x="182" y="147"/>
			<point x="139" y="147" type="curve" smooth="yes"/>
			<point x="96" y="147"/>
			<point x="63" y="113"/>
			<point x="63" y="67" type="curve" smooth="yes"/>
			<point x="63" y="22"/>
			<point x="96" y="-12"/>
		</contour>
	</outline>
</glyph>
<glyph name="slash" format="2">
	<unicode hex="002F"/>
	<advance width="344"/>
	<outline>
		<contour>
			<point x="12" y="-160" type="line"/>
			<point x="91" y="-160" type="line"/>
			<point x="322" y="710" type="line"/>
			<point x="242" y="710" type="line"/>
		</contour>
	</outline>
</glyph>
<glyph name="zero" format="2">
	<unicode hex="0030"/>
	<advance width="514"/>
	<outline>
		<contour>
			<point x="257" y="-12" type="curve" smooth="yes"/>
			<point x="390" y="-12"/>
			<point x="474" y="106"/>
			<point x="474" y="321" type="curve" smooth="yes"/>
			<point x="474" y="535"/>
			<point x="390" y="648"/>
			<point x="257" y="648" type="curve" smooth="yes"/>
			<point x="125" y="648"/>
			<point x="40" y="536"/>
			<point x="40" y="321" type="curve" smooth="yes"/>
			<point x="40" y="106"/>
			<point x="125" y="-12"/>
		</contour>
		<contour>
			<point x="257" y="81" type="curve" smooth="yes"/>
			<point x="197" y="81"/>
			<point x="153" y="141"/>
			<point x="153" y="321" type="curve" smooth="yes"/>
			<point x="153" y="500"/>
			<point x="197" y="556"/>
			<point x="257" y="556" type="curve" smooth="yes"/>
			<point x="318" y="556"/>
			<point x="361" y="500"/>
			<point x="361" y="321" type="curve" smooth="yes"/>
			<point x="361" y="141"/>
			<point x="318" y="81"/>
		</contour>
	</outline>
</glyph>
<glyph name="one" format="2">
	<unicode hex="0031"/>
	<advance width="514"/>
	<outline>
		<contour>
			<point x="74" y="0" type="line"/>
			<point x="458" y="0" type="line"/>
			<point x="458" y="96" type="line"/>
			<point x="334" y="96" type="line"/>
			<point x="334" y="636" type="line"/>
			<point x="246" y="636" type="line"/>
			<point x="205" y="612"/>
			<point x="162" y="595"/>
			<point x="98" y="583" type="curve"/>
			<point x="98" y="509" type="line"/>
			<point x="216" y="509" type="line"/>
			<point x="216" y="96" type="line"/>
			<point x="74" y="96" type="line"/>
		</contour>
	</outline>
</glyph>
<glyph name="two" format="2">
	<unicode hex="0032"/>
	<advance width="514"/>
	<outline>
		<contour>
			<point x="38" y="0" type="line"/>
			<point x="469" y="0" type="line"/>
			<point x="469" y="100" type="line"/>
			<point x="306" y="100" type="line" smooth="yes"/>
			<point x="275" y="100"/>
			<point x="233" y="97"/>
			<point x="199" y="94" type="curve"/>
			<point x="331" y="226"/>
			<point x="439" y="335"/>
			<point x="439" y="454" type="curve" smooth="yes"/>
			<point x="439" y="571"/>
			<point x="359" y="648"/>
			<point x="237" y="648" type="curve" smooth="yes"/>
			<point x="151" y="648"/>
			<point x="92" y="611"/>
			<point x="35" y="547" type="curve"/>
			<point x="98" y="485" type="line"/>
			<point x="132" y="522"/>
			<point x="172" y="554"/>
			<point x="221" y="554" type="curve" smooth="yes"/>
			<point x="288" y="554"/>
			<point x="325" y="513"/>
			<point x="325" y="446" type="curve" smooth="yes"/>
			<point x="325" y="351"/>
			<point x="212" y="235"/>
			<point x="38" y="73" type="curve"/>
		</contour>
	</outline>
</glyph>
<glyph name="four" format="2">
	<unicode hex="0034"/>
	<advance width="514"/>
	<outline>
		<contour>
			<point x="298" y="0" type="line"/>
			<point x="409" y="0" type="line"/>
			<point x="409" y="636" type="line"/>
			<point x="269" y="636" type="line"/>
			<point x="18" y="243" type="line"/>
			<point x="18" y="162" type="line"/>
			<point x="488" y="162" type="line"/>
			<point x="488" y="254" type="line"/>
			<point x="135" y="254" type="line"/>
			<point x="248" y="428" type="line"/>
			<point x="266" y="462"/>
			<point x="284" y="494"/>
			<point x="300" y="527" type="curve"/>
			<point x="304" y="527" type="line"/>
			<point x="302" y="490"/>
			<point x="298" y="431"/>
			<point x="298" y="394" type="curve" smooth="yes"/>
		</contour>
	</outline>
</glyph>
<glyph name="five" format="2">
	<unicode hex="0035"/>
	<advance width="514"/>
	<outline>
		<contour>
			<point x="241" y="-12" type="curve" smooth="yes"/>
			<point x="359" y="-12"/>
			<point x="466" y="68"/>
			<point x="466" y="207" type="curve" smooth="yes"/>
			<point x="466" y="344"/>
			<point x="375" y="406"/>
			<point x="266" y="406" type="curve" smooth="yes"/>
			<point x="234" y="406"/>
			<point x="210" y="399"/>
			<point x="183" y="386" type="curve"/>
			<point x="197" y="536" type="line"/>
			<point x="436" y="536" type="line"/>
			<point x="436" y="636" type="line"/>
			<point x="94" y="636" type="line"/>
			<point x="75" y="322" type="line"/>
			<point x="131" y="286" type="line"/>
			<point x="169" y="311"/>
			<point x="192" y="321"/>
			<point x="232" y="321" type="curve" smooth="yes"/>
			<point x="301" y="321"/>
			<point x="347" y="279"/>
			<point x="347" y="204" type="curve" smooth="yes"/>
			<point x="347" y="129"/>
			<point x="297" y="84"/>
			<point x="226" y="84" type="curve" smooth="yes"/>
			<point x="163" y="84"/>
			<point x="116" y="116"/>
			<point x="78" y="152" type="curve"/>
			<point x="24" y="76" type="line"/>
			<point x="71" y="29"/>
			<point x="138" y="-12"/>
		</contour>
	</outline>
</glyph>
<glyph name="six" format="2">
	<unicode hex="0036"/>
	<advance width="514"/>
	<outline>
		<contour>
			<point x="275" y="-12" type="curve" smooth="yes"/>
			<point x="385" y="-12"/>
			<point x="476" y="70"/>
			<point x="476" y="197" type="curve" smooth="yes"/>
			<point x="476" y="330"/>
			<point x="400" y="394"/>
			<point x="291" y="394" type="curve" smooth="yes"/>
			<point x="243" y="394"/>
			<point x="184" y="363"/>
			<point x="148" y="313" type="curve"/>
			<point x="153" y="231" type="line"/>
			<point x="188" y="287"/>
			<point x="232" y="309"/>
			<point x="269" y="309" type="curve" smooth="yes"/>
			<point x="330" y="309"/>
			<point x="367" y="271"/>
			<point x="367" y="197" type="curve" smooth="yes"/>
			<point x="367" y="120"/>
			<point x="326" y="78"/>
			<point x="274" y="78" type="curve" smooth="yes"/>
			<point x="203" y="78"/>
			<point x="153" y="142"/>
			<point x="153" y="299" type="curve" smooth="yes"/>
			<point x="153" y="488"/>
			<point x="220" y="552"/>
			<point x="301" y="552" type="curve" smooth="yes"/>
			<point x="340" y="552"/>
			<point x="379" y="531"/>
			<point x="403" y="504" type="curve"/>
			<point x="466" y="576" type="line"/>
			<point x="428" y="616"/>
			<point x="372" y="648"/>
			<point x="295" y="648" type="curve" smooth="yes"/>
			<point x="164" y="648"/>
			<point x="44" y="545"/>
			<point x="44" y="299" type="curve" smooth="yes"/>
			<point x="44" y="84"/>
			<point x="151" y="-12"/>
		</contour>
	</outline>
</glyph>
<glyph name="seven" format="2">
	<unicode hex="0037"/>
	<advance width="514"/>
	<outline>
		<contour>
			<point x="159" y="0" type="curve"/>
			<point x="279" y="0" type="line"/>
			<point x="290" y="248"/>
			<point x="320" y="377"/>
			<point x="472" y="564" type="curve"/>
			<point x="472" y="636" type="line"/>
			<point x="44" y="636" type="line"/>
			<point x="44" y="536" type="line"/>
			<point x="344" y="536" type="line"/>
			<point x="217" y="364"/>
			<point x="171" y="224"/>
		</contour>
	</outline>
</glyph>
<glyph name="eight" format="2">
	<unicode hex="0038"/>
	<advance width="514"/>
	<outline>
		<contour>
			<point x="257" y="-12" type="curve" smooth="yes"/>
			<point x="387" y="-12"/>
			<point x="473" y="63"/>
			<point x="473" y="161" type="curve" smooth="yes"/>
			<point x="473" y="246"/>
			<point x="422" y="293"/>
			<point x="363" y="327" type="curve"/>
			<point x="363" y="331" type="line"/>
			<point x="405" y="360"/>
			<point x="449" y="413"/>
			<point x="449" y="476" type="curve" smooth="yes"/>
			<point x="449" y="579"/>
			<point x="375" y="648"/>
			<point x="261" y="648" type="curve" smooth="yes"/>
			<point x="150" y="648"/>
			<point x="68" y="582"/>
			<point x="68" y="478" type="curve" smooth="yes"/>
			<point x="68" y="411"/>
			<point x="107" y="365"/>
			<point x="155" y="330" type="curve"/>
			<point x="155" y="326" type="line"/>
			<point x="95" y="294"/>
			<point x="41" y="242"/>
			<point x="41" y="163" type="curve" smooth="yes"/>
			<point x="41" y="60"/>
			<point x="133" y="-12"/>
		</contour>
		<contour>
			<point x="299" y="360" type="curve"/>
			<point x="229" y="388"/>
			<point x="173" y="416"/>
			<point x="173" y="478" type="curve" smooth="yes"/>
			<point x="173" y="533"/>
			<point x="211" y="564"/>
			<point x="259" y="564" type="curve" smooth="yes"/>
			<point x="317" y="564"/>
			<point x="351" y="524"/>
			<point x="351" y="469" type="curve" smooth="yes"/>
			<point x="351" y="429"/>
			<point x="332" y="393"/>
		</contour>
		<contour>
			<point x="260" y="72" type="curve" smooth="yes"/>
			<point x="195" y="72"/>
			<point x="145" y="113"/>
			<point x="145" y="175" type="curve" smooth="yes"/>
			<point x="145" y="223"/>
			<point x="173" y="264"/>
			<point x="211" y="293" type="curve"/>
			<point x="297" y="258"/>
			<point x="363" y="233"/>
			<point x="363" y="165" type="curve" smooth="yes"/>
			<point x="363" y="107"/>
			<point x="320" y="72"/>
		</contour>
	</outline>
</glyph>
<glyph name="nine" format="2">
	<unicode hex="0039"/>
	<advance width="514"/>
	<outline>
		<contour>
			<point x="218" y="-12" type="curve" smooth="yes"/>
			<point x="349" y="-12"/>
			<point x="469" y="91"/>
			<point x="469" y="337" type="curve" smooth="yes"/>
			<point x="469" y="552"/>
			<point x="362" y="648"/>
			<point x="238" y="648" type="curve" smooth="yes"/>
			<point x="128" y="648"/>
			<point x="37" y="567"/>
			<point x="37" y="439" type="curve" smooth="yes"/>
			<point x="37" y="306"/>
			<point x="113" y="242"/>
			<point x="222" y="242" type="curve" smooth="yes"/>
			<point x="270" y="242"/>
			<point x="329" y="273"/>
			<point x="365" y="323" type="curve"/>
			<point x="360" y="406" type="line"/>
			<point x="325" y="349"/>
			<point x="281" y="327"/>
			<point x="244" y="327" type="curve" smooth="yes"/>
			<point x="183" y="327"/>
			<point x="146" y="365"/>
			<point x="146" y="439" type="curve" smooth="yes"/>
			<point x="146" y="516"/>
			<point x="187" y="558"/>
			<point x="239" y="558" type="curve" smooth="yes"/>
			<point x="310" y="558"/>
			<point x="360" y="494"/>
			<point x="360" y="337" type="curve" smooth="yes"/>
			<point x="360" y="148"/>
			<point x="294" y="84"/>
			<point x="212" y="84" type="curve" smooth="yes"/>
			<point x="173" y="84"/>
			<point x="134" y="105"/>
			<point x="110" y="132" type="curve"/>
			<point x="47" y="60" type="line"/>
			<point x="85" y="21"/>
			<point x="141" y="-12"/>
		</contour>
	</outline>
</glyph>
<glyph name="less" format="2">
	<unicode hex="003C"/>
	<advance width="514"/>
	<outline>
		<contour>
			<point x="480" y="116" type="line"/>
			<point x="480" y="215" type="line"/>
			<point x="289" y="282" type="line"/>
			<point x="154" y="330" type="line"/>
			<point x="154" y="334" type="line"/>
			<point x="289" y="382" type="line"/>
			<point x="480" y="449" type="line"/>
			<point x="480" y="548" type="line"/>
			<point x="34" y="375" type="line"/>
			<point x="34" y="289" type="line"/>
		</contour>
	</outline>
</glyph>
<glyph name="greater" format="2">
	<unicode hex="003E"/>
	<advance width="514"/>
	<outline>
		<contour>
			<point x="34" y="116" type="line"/>
			<point x="480" y="289" type="line"/>
			<point x="480" y="375" type="line"/>
			<point x="34" y="548" type="line"/>
			<point x="34" y="449" type="line"/>
			<point x="226" y="382" type="line"/>
			<point x="360" y="334" type="line"/>
			<point x="360" y="330" type="line"/>
			<point x="226" y="282" type="line"/>
			<point x="34" y="215" type="line"/>
		</contour>
	</outline>
</glyph>
<glyph name="question" format="2">
	<unicode hex="003F"/>
	<advance width="446"/>
	<outline>
		<contour>
			<point x="157" y="217" type="curve"/>
			<point x="260" y="217" type="line"/>
			<point x="247" y="345"/>
			<point x="402" y="389"/>
			<point x="402" y="516" type="curve" smooth="yes"/>
			<point x="402" y="625"/>
			<point x="327" y="682"/>
			<point x="222" y="682" type="curve" smooth="yes"/>
			<point x="146" y="682"/>
			<point x="85" y="646"/>
			<point x="40" y="595" type="curve"/>
			<point x="106" y="535" type="line"/>
			<point x="135" y="565"/>
			<point x="167" y="586"/>
			<point x="207" y="586" type="curve" smooth="yes"/>
			<point x="258" y="586"/>
			<point x="288" y="554"/>
			<point x="288" y="508" type="curve" smooth="yes"/>
			<point x="288" y="419"/>
			<point x="136" y="362"/>
		</contour>
		<contour>
			<point x="209" y="-12" type="curve" smooth="yes"/>
			<point x="252" y="-12"/>
			<point x="285" y="22"/>
			<point x="285" y="67" type="curve" smooth="yes"/>
			<point x="285" y="113"/>
			<point x="252" y="147"/>
			<point x="209" y="147" type="curve" smooth="yes"/>
			<point x="166" y="147"/>
			<point x="134" y="113"/>
			<point x="134" y="67" type="curve" smooth="yes"/>
			<point x="134" y="22"/>
			<point x="166" y="-12"/>
		</contour>
	</outline>
</glyph>
<glyph name="at" format="2">
	<unicode hex="0040"/>
	<advance width="875"/>
	<outline>
		<contour>
			<point x="416" y="-164" type="curve" smooth="yes"/>
			<point x="486" y="-164"/>
			<point x="549" y="-148"/>
			<point x="609" y="-114" type="curve"/>
			<point x="578" y="-40" type="line"/>
			<point x="536" y="-62"/>
			<point x="480" y="-78"/>
			<point x="425" y="-78" type="curve" smooth="yes"/>
			<point x="270" y="-78"/>
			<point x="144" y="20"/>
			<point x="144" y="208" type="curve" smooth="yes"/>
			<point x="144" y="428"/>
			<point x="308" y="572"/>
			<point x="475" y="572" type="curve" smooth="yes"/>
			<point x="654" y="572"/>
			<point x="736" y="454"/>
			<point x="736" y="310" type="curve" smooth="yes"/>
			<point x="736" y="196"/>
			<point x="678" y="124"/>
			<point x="623" y="124" type="curve" smooth="yes"/>
			<point x="580" y="124"/>
			<point x="566" y="154"/>
			<point x="579" y="218" type="curve" smooth="yes"/>
			<point x="622" y="434" type="line"/>
			<point x="544" y="434" type="line"/>
			<point x="530" y="394" type="line"/>
			<point x="526" y="394" type="line"/>
			<point x="510" y="429"/>
			<point x="488" y="444"/>
			<point x="446" y="444" type="curve" smooth="yes"/>
			<point x="330" y="444"/>
			<point x="246" y="326"/>
			<point x="246" y="198" type="curve" smooth="yes"/>
			<point x="246" y="96"/>
			<point x="304" y="46"/>
			<point x="378" y="46" type="curve" smooth="yes"/>
			<point x="422" y="46"/>
			<point x="470" y="72"/>
			<point x="498" y="114" type="curve"/>
			<point x="502" y="114" type="line"/>
			<point x="512" y="66"/>
			<point x="555" y="38"/>
			<point x="612" y="38" type="curve" smooth="yes"/>
			<point x="712" y="38"/>
			<point x="830" y="131"/>
			<point x="830" y="314" type="curve" smooth="yes"/>
			<point x="830" y="517"/>
			<point x="696" y="658"/>
			<point x="484" y="658" type="curve" smooth="yes"/>
			<point x="246" y="658"/>
			<point x="46" y="478"/>
			<point x="46" y="204" type="curve" smooth="yes"/>
			<point x="46" y="-40"/>
			<point x="216" y="-164"/>
		</contour>
		<contour>
			<point x="403" y="132" type="curve" smooth="yes"/>
			<point x="372" y="132"/>
			<point x="348" y="156"/>
			<point x="348" y="205" type="curve" smooth="yes"/>
			<point x="348" y="270"/>
			<point x="390" y="356"/>
			<point x="452" y="356" type="curve" smooth="yes"/>
			<point x="476" y="356"/>
			<point x="492" y="346"/>
			<point x="508" y="322" type="curve"/>
			<point x="482" y="182" type="line"/>
			<point x="452" y="146"/>
			<point x="428" y="132"/>
		</contour>
	</outline>
</glyph>
<glyph name="A" format="2">
	<unicode hex="0041"/>
	<advance width="560"/>
	<outline>
		<contour>
			<point x="-2" y="0" type="line"/>
			<point x="119" y="0" type="line"/>
			<point x="218" y="346" type="line" smooth="yes"/>
			<point x="239" y="415"/>
			<point x="258" y="489"/>
			<point x="275" y="561" type="curve"/>
			<point x="279" y="561" type="line"/>
			<point x="298" y="490"/>
			<point x="317" y="415"/>
			<point x="338" y="346" type="curve" smooth="yes"/>
			<point x="436" y="0" type="line"/>
			<point x="562" y="0" type="line"/>
			<point x="350" y="654" type="line"/>
			<point x="210" y="654" type="line"/>
		</contour>
		<contour>
			<point x="124" y="175" type="line"/>
			<point x="433" y="175" type="line"/>
			<point x="433" y="268" type="line"/>
			<point x="124" y="268" type="line"/>
		</contour>
	</outline>
	<anchor name="aboveUC" x="279" y="676"/>
	<anchor name="belowLC" x="279" y="-22"/>
	<anchor name="ogonekUC" x="487" y="0"/>
</glyph>
<glyph name="B" format="2">
	<unicode hex="0042"/>
	<advance width="598"/>
	<outline>
		<contour>
			<point x="83" y="0" type="line"/>
			<point x="310" y="0" type="line" smooth="yes"/>
			<point x="454" y="0"/>
			<point x="562" y="61"/>
			<point x="562" y="192" type="curve" smooth="yes"/>
			<point x="562" y="280"/>
			<point x="509" y="331"/>
			<point x="437" y="347" type="curve"/>
			<point x="437" y="351" type="line"/>
			<point x="493" y="371"/>
			<point x="527" y="431"/>
			<point x="527" y="493" type="curve" smooth="yes"/>
			<point x="527" y="613"/>
			<point x="428" y="654"/>
			<point x="293" y="654" type="curve" smooth="yes"/>
			<point x="83" y="654" type="line"/>
		</contour>
		<contour>
			<point x="202" y="385" type="line"/>
			<point x="202" y="561" type="line"/>
			<point x="285" y="561" type="line" smooth="yes"/>
			<point x="369" y="561"/>
			<point x="411" y="538"/>
			<point x="411" y="476" type="curve" smooth="yes"/>
			<point x="411" y="420"/>
			<point x="372" y="385"/>
			<point x="283" y="385" type="curve" smooth="yes"/>
		</contour>
		<contour>
			<point x="202" y="93" type="line"/>
			<point x="202" y="296" type="line"/>
			<point x="298" y="296" type="line" smooth="yes"/>
			<point x="394" y="296"/>
			<point x="445" y="266"/>
			<point x="445" y="199" type="curve" smooth="yes"/>
			<point x="445" y="126"/>
			<point x="393" y="93"/>
			<point x="298" y="93" type="curve" smooth="yes"/>
		</contour>
	</outline>
	<anchor name="aboveUC" x="294" y="676"/>
	<anchor name="belowLC" x="309" y="-22"/>
</glyph>
<glyph name="C" format="2">
	<unicode hex="0043"/>
	<advance width="577"/>
	<outline>
		<contour>
			<point x="344" y="-12" type="curve" smooth="yes"/>
			<point x="428" y="-12"/>
			<point x="496" y="20"/>
			<point x="551" y="83" type="curve"/>
			<point x="487" y="154" type="line"/>
			<point x="451" y="114"/>
			<point x="406" y="91"/>
			<point x="349" y="91" type="curve" smooth="yes"/>
			<point x="240" y="91"/>
			<point x="171" y="181"/>
			<point x="171" y="328" type="curve" smooth="yes"/>
			<point x="171" y="474"/>
			<point x="247" y="562"/>
			<point x="351" y="562" type="curve" smooth="yes"/>
			<point x="402" y="562"/>
			<point x="441" y="543"/>
			<point x="475" y="510" type="curve"/>
			<point x="538" y="583" type="line"/>
			<point x="497" y="628"/>
			<point x="431" y="666"/>
			<point x="349" y="666" type="curve" smooth="yes"/>
			<point x="183" y="666"/>
			<point x="49" y="539"/>
			<point x="49" y="325" type="curve" smooth="yes"/>
			<point x="49" y="108"/>
			<point x="180" y="-12"/>
		</contour>
	</outline>
	<anchor name="aboveUC" x="337" y="676"/>
	<anchor name="baseLC" x="347" y="0"/>
	<anchor name="belowLC" x="347" y="-22"/>
</glyph>
<glyph name="D" format="2">
	<unicode hex="0044"/>
	<advance width="626"/>
	<outline>
		<contour>
			<point x="83" y="0" type="line"/>
			<point x="264" y="0" type="line" smooth="yes"/>
			<point x="458" y="0"/>
			<point x="578" y="112"/>
			<point x="578" y="330" type="curve" smooth="yes"/>
			<point x="578" y="547"/>
			<point x="458" y="654"/>
			<point x="258" y="654" type="curve" smooth="yes"/>
			<point x="83" y="654" type="line"/>
		</contour>
		<contour>
			<point x="202" y="96" type="line"/>
			<point x="202" y="557" type="line"/>
			<point x="250" y="557" type="line" smooth="yes"/>
			<point x="380" y="557"/>
			<point x="455" y="490"/>
			<point x="455" y="330" type="curve" smooth="yes"/>
			<point x="455" y="169"/>
			<point x="380" y="96"/>
			<point x="250" y="96" type="curve" smooth="yes"/>
		</contour>
	</outline>
	<anchor name="aboveUC" x="314" y="676"/>
	<anchor name="belowLC" x="309" y="-22"/>
</glyph>
<glyph name="E" format="2">
	<unicode hex="0045"/>
	<advance width="539"/>
	<outline>
		<contour>
			<point x="83" y="0" type="line"/>
			<point x="488" y="0" type="line"/>
			<point x="488" y="100" type="line"/>
			<point x="202" y="100" type="line"/>
			<point x="202" y="290" type="line"/>
			<point x="436" y="290" type="line"/>
			<point x="436" y="390" type="line"/>
			<point x="202" y="390" type="line"/>
			<point x="202" y="554" type="line"/>
			<point x="478" y="554" type="line"/>
			<point x="478" y="654" type="line"/>
			<point x="83" y="654" type="line"/>
		</contour>
	</outline>
	<anchor name="aboveUC" x="290" y="676"/>
	<anchor name="belowLC" x="300" y="-22"/>
	<anchor name="ogonekUC" x="405" y="0"/>
</glyph>
<glyph name="F" format="2">
	<unicode hex="0046"/>
	<advance width="511"/>
	<outline>
		<contour>
			<point x="83" y="0" type="line"/>
			<point x="202" y="0" type="line"/>
			<point x="202" y="271" type="line"/>
			<point x="438" y="271" type="line"/>
			<point x="438" y="371" type="line"/>
			<point x="202" y="371" type="line"/>
			<point x="202" y="554" type="line"/>
			<point x="479" y="554" type="line"/>
			<point x="479" y="654" type="line"/>
			<point x="83" y="654" type="line"/>
		</contour>
	</outline>
	<anchor name="aboveUC" x="288" y="676"/>
	<anchor name="belowLC" x="148" y="-22"/>
</glyph>
<glyph name="G" format="2">
	<unicode hex="0047"/>
	<advance width="629"/>
	<outline>
		<contour>
			<point x="358" y="-12" type="curve" smooth="yes"/>
			<point x="447" y="-12"/>
			<point x="523" y="22"/>
			<point x="567" y="66" type="curve"/>
			<point x="567" y="355" type="line"/>
			<point x="339" y="355" type="line"/>
			<point x="339" y="258" type="line"/>
			<point x="460" y="258" type="line"/>
			<point x="460" y="119" type="line"/>
			<point x="440" y="101"/>
			<point x="405" y="91"/>
			<point x="370" y="91" type="curve" smooth="yes"/>
			<point x="239" y="91"/>
			<point x="171" y="181"/>
			<point x="171" y="328" type="curve" smooth="yes"/>
			<point x="171" y="474"/>
			<point x="248" y="562"/>
			<point x="363" y="562" type="curve" smooth="yes"/>
			<point x="423" y="562"/>
			<point x="461" y="542"/>
			<point x="494" y="510" type="curve"/>
			<point x="557" y="583" type="line"/>
			<point x="516" y="626"/>
			<point x="452" y="666"/>
			<point x="359" y="666" type="curve" smooth="yes"/>
			<point x="185" y="666"/>
			<point x="49" y="539"/>
			<point x="49" y="325" type="curve" smooth="yes"/>
			<point x="49" y="108"/>
			<point x="181" y="-12"/>
		</contour>
	</outline>
	<anchor name="aboveUC" x="359" y="676"/>
	<anchor name="belowLC" x="359" y="-22"/>
</glyph>
<glyph name="H" format="1">
	<unicode hex="0048"/>
	<advance width="663"/>
	<outline>
		<contour>
			<point x="83" y="0" type="line"/>
			<point x="199" y="0" type="line"/>
			<point x="199" y="290" type="line"/>
			<point x="464" y="290" type="line"/>
			<point x="464" y="0" type="line"/>
			<point x="580" y="0" type="line"/>
			<point x="580" y="654" type="line"/>
			<point x="464" y="654" type="line"/>
			<point x="464" y="391" type="line"/>
			<point x="199" y="391" type="line"/>
			<point x="199" y="654" type="line"/>
			<point x="83" y="654" type="line"/>
		</contour>
		<contour>
			<point name="aboveUC" x="330" y="676" type="move"/>
		</contour>
		<contour>
			<point name="belowLC" x="330" y="-22" type="move"/>
		</contour>
	</outline>
</glyph>
<glyph name="I" format="2">
	<unicode hex="0049"/>
	<advance width="284"/>
	<outline>
		<contour>
			<point x="83" y="0" type="line"/>
			<point x="202" y="0" type="line"/>
			<point x="202" y="654" type="line"/>
			<point x="83" y="654" type="line"/>
		</contour>
	</outline>
	<anchor name="aboveUC" x="143" y="676"/>
	<anchor name="belowLC" x="143" y="-22"/>
	<anchor name="ogonekUC" x="141" y="0"/>
</glyph>
<glyph name="J" format="2">
	<unicode hex="004A"/>
	<advance width="496"/>
	<outline>
		<contour>
			<point x="212" y="-12" type="curve" smooth="yes"/>
			<point x="355" y="-12"/>
			<point x="416" y="87"/>
			<point x="416" y="210" type="curve" smooth="yes"/>
			<point x="416" y="654" type="line"/>
			<point x="297" y="654" type="line"/>
			<point x="297" y="220" type="line" smooth="yes"/>
			<point x="297" y="125"/>
			<point x="266" y="91"/>
			<point x="202" y="91" type="curve" smooth="yes"/>
			<point x="160" y="91"/>
			<point x="128" y="112"/>
			<point x="105" y="154" type="curve"/>
			<point x="25" y="102" type="line"/>
			<point x="65" y="23"/>
			<point x="126" y="-12"/>
		</contour>
	</outline>
	<anchor name="aboveUC" x="354" y="676"/>
	<anchor name="belowLC" x="262" y="-22"/>
</glyph>
<glyph name="K" format="2">
	<unicode hex="004B"/>
	<advance width="597"/>
	<outline>
		<contour>
			<point x="83" y="0" type="line"/>
			<point x="199" y="0" type="line"/>
			<point x="199" y="191" type="line"/>
			<point x="293" y="308" type="line"/>
			<point x="470" y="0" type="line"/>
			<point x="598" y="0" type="line"/>
			<point x="363" y="399" type="line"/>
			<point x="564" y="654" type="line"/>
			<point x="435" y="654" type="line"/>
			<point x="202" y="357" type="line"/>
			<point x="199" y="357" type="line"/>
			<point x="199" y="654" type="line"/>
			<point x="83" y="654" type="line"/>
		</contour>
	</outline>
	<anchor name="aboveUC" x="315" y="676"/>
	<anchor name="belowLC" x="330" y="-22"/>
</glyph>
<glyph name="L" format="2">
	<unicode hex="004C"/>
	<advance width="503"/>
	<outline>
		<contour>
			<point x="83" y="0" type="line"/>
			<point x="472" y="0" type="line"/>
			<point x="472" y="100" type="line"/>
			<point x="202" y="100" type="line"/>
			<point x="202" y="654" type="line"/>
			<point x="83" y="654" type="line"/>
		</contour>
	</outline>
	<anchor name="aboveUC" x="143" y="676"/>
	<anchor name="belowLC" x="289" y="-22"/>
</glyph>
<glyph name="M" format="2">
	<unicode hex="004D"/>
	<advance width="745"/>
	<outline>
		<contour>
			<point x="83" y="0" type="line"/>
			<point x="188" y="0" type="line"/>
			<point x="188" y="299" type="line" smooth="yes"/>
			<point x="188" y="360"/>
			<point x="178" y="458"/>
			<point x="173" y="519" type="curve"/>
			<point x="177" y="519" type="line"/>
			<point x="229" y="355" type="line"/>
			<point x="337" y="61" type="line"/>
			<point x="406" y="61" type="line"/>
			<point x="513" y="355" type="line"/>
			<point x="566" y="519" type="line"/>
			<point x="570" y="519" type="line"/>
			<point x="564" y="458"/>
			<point x="555" y="360"/>
			<point x="555" y="299" type="curve" smooth="yes"/>
			<point x="555" y="0" type="line"/>
			<point x="662" y="0" type="line"/>
			<point x="662" y="654" type="line"/>
			<point x="530" y="654" type="line"/>
			<point x="417" y="334" type="line"/>
			<point x="403" y="293"/>
			<point x="390" y="249"/>
			<point x="376" y="206" type="curve"/>
			<point x="372" y="206" type="line"/>
			<point x="358" y="249"/>
			<point x="344" y="293"/>
			<point x="330" y="334" type="curve"/>
			<point x="214" y="654" type="line"/>
			<point x="83" y="654" type="line"/>
		</contour>
	</outline>
	<anchor name="aboveUC" x="372" y="676"/>
	<anchor name="belowLC" x="374" y="-22"/>
</glyph>
<glyph name="N" format="2">
	<unicode hex="004E"/>
	<advance width="656"/>
	<outline>
		<contour>
			<point x="83" y="0" type="line"/>
			<point x="194" y="0" type="line"/>
			<point x="194" y="286" type="line" smooth="yes"/>
			<point x="194" y="359"/>
			<point x="184" y="438"/>
			<point x="179" y="507" type="curve"/>
			<point x="183" y="507" type="line"/>
			<point x="204" y="460"/>
			<point x="227" y="412"/>
			<point x="250" y="368" type="curve" smooth="yes"/>
			<point x="454" y="0" type="line"/>
			<point x="573" y="0" type="line"/>
			<point x="573" y="654" type="line"/>
			<point x="462" y="654" type="line"/>
			<point x="462" y="370" type="line" smooth="yes"/>
			<point x="462" y="297"/>
			<point x="472" y="214"/>
			<point x="477" y="147" type="curve"/>
			<point x="473" y="147" type="line"/>
			<point x="452" y="194"/>
			<point x="429" y="242"/>
			<point x="406" y="286" type="curve" smooth="yes"/>
			<point x="202" y="654" type="line"/>
			<point x="83" y="654" type="line"/>
		</contour>
	</outline>
	<anchor name="aboveUC" x="336" y="676"/>
	<anchor name="belowLC" x="338" y="-22"/>
</glyph>
<glyph name="O" format="1">
	<unicode hex="004F"/>
	<advance width="674"/>
	<outline>
		<contour>
			<point x="337" y="-12" type="curve" smooth="yes"/>
			<point x="508" y="-12"/>
			<point x="626" y="118"/>
			<point x="626" y="330" type="curve" smooth="yes"/>
			<point x="626" y="541"/>
			<point x="508" y="666"/>
			<point x="337" y="666" type="curve" smooth="yes"/>
			<point x="167" y="666"/>
			<point x="49" y="541"/>
			<point x="49" y="330" type="curve" smooth="yes"/>
			<point x="49" y="118"/>
			<point x="167" y="-12"/>
		</contour>
		<contour>
			<point x="337" y="89" type="curve" smooth="yes"/>
			<point x="234" y="89"/>
			<point x="168" y="183"/>
			<point x="168" y="330" type="curve" smooth="yes"/>
			<point x="168" y="476"/>
			<point x="234" y="565"/>
			<point x="337" y="565" type="curve" smooth="yes"/>
			<point x="440" y="565"/>
			<point x="506" y="476"/>
			<point x="506" y="330" type="curve" smooth="yes"/>
			<point x="506" y="183"/>
			<point x="440" y="89"/>
		</contour>
		<contour>
			<point name="aboveUC" x="337" y="676" type="move"/>
		</contour>
		<contour>
			<point name="belowLC" x="337" y="-22" type="move"/>
		</contour>
		<contour>
			<point name="hornLC" x="476" y="644" type="move"/>
		</contour>
		<contour>
			<point name="ogonekUC" x="337" y="0" type="move"/>
		</contour>
	</outline>
</glyph>
<glyph name="P" format="2">
	<unicode hex="0050"/>
	<advance width="583"/>
	<outline>
		<contour>
			<point x="83" y="0" type="line"/>
			<point x="202" y="0" type="line"/>
			<point x="202" y="239" type="line"/>
			<point x="294" y="239" type="line" smooth="yes"/>
			<point x="435" y="239"/>
			<point x="544" y="305"/>
			<point x="544" y="451" type="curve" smooth="yes"/>
			<point x="544" y="603"/>
			<point x="435" y="654"/>
			<point x="290" y="654" type="curve" smooth="yes"/>
			<point x="83" y="654" type="line"/>
		</contour>
		<contour>
			<point x="202" y="334" type="line"/>
			<point x="202" y="559" type="line"/>
			<point x="281" y="559" type="line" smooth="yes"/>
			<point x="376" y="559"/>
			<point x="426" y="531"/>
			<point x="426" y="451" type="curve" smooth="yes"/>
			<point x="426" y="372"/>
			<point x="381" y="334"/>
			<point x="285" y="334" type="curve" smooth="yes"/>
		</contour>
	</outline>
	<anchor name="aboveUC" x="310" y="676"/>
	<anchor name="belowLC" x="150" y="-22"/>
</glyph>
<glyph name="Q" format="2">
	<unicode hex="0051"/>
	<advance width="674"/>
	<outline>
		<contour>
			<point x="337" y="-12" type="curve" smooth="yes"/>
			<point x="508" y="-12"/>
			<point x="626" y="118"/>
			<point x="626" y="330" type="curve" smooth="yes"/>
			<point x="626" y="541"/>
			<point x="508" y="666"/>
			<point x="337" y="666" type="curve" smooth="yes"/>
			<point x="167" y="666"/>
			<point x="49" y="541"/>
			<point x="49" y="330" type="curve" smooth="yes"/>
			<point x="49" y="118"/>
			<point x="167" y="-12"/>
		</contour>
		<contour>
			<point x="337" y="83" type="curve" smooth="yes"/>
			<point x="234" y="83"/>
			<point x="168" y="177"/>
			<point x="168" y="330" type="curve" smooth="yes"/>
			<point x="168" y="476"/>
			<point x="234" y="565"/>
			<point x="337" y="565" type="curve" smooth="yes"/>
			<point x="440" y="565"/>
			<point x="506" y="476"/>
			<point x="506" y="330" type="curve" smooth="yes"/>
			<point x="506" y="177"/>
			<point x="440" y="83"/>
		</contour>
		<contour>
			<point x="545" y="-174" type="curve" smooth="yes"/>
			<point x="590" y="-174"/>
			<point x="628" y="-165"/>
			<point x="650" y="-154" type="curve"/>
			<point x="629" y="-70" type="line"/>
			<point x="610" y="-75"/>
			<point x="587" y="-79"/>
			<point x="558" y="-79" type="curve" smooth="yes"/>
			<point x="488" y="-79"/>
			<point x="423" y="-51"/>
			<point x="397" y="14" type="curve"/>
			<point x="278" y="4" type="line"/>
			<point x="318" y="-98"/>
			<point x="410" y="-174"/>
		</contour>
	</outline>
	<anchor name="aboveUC" x="337" y="676"/>
</glyph>
<glyph name="R" format="2">
	<unicode hex="0052"/>
	<advance width="594"/>
	<outline>
		<contour>
			<point x="83" y="0" type="line"/>
			<point x="202" y="0" type="line"/>
			<point x="202" y="254" type="line"/>
			<point x="304" y="254" type="line" smooth="yes"/>
			<point x="441" y="254"/>
			<point x="546" y="317"/>
			<point x="546" y="459" type="curve" smooth="yes"/>
			<point x="546" y="606"/>
			<point x="441" y="654"/>
			<point x="304" y="654" type="curve" smooth="yes"/>
			<point x="83" y="654" type="line"/>
		</contour>
		<contour>
			<point x="202" y="349" type="line"/>
			<point x="202" y="559" type="line"/>
			<point x="292" y="559" type="line" smooth="yes"/>
			<point x="381" y="559"/>
			<point x="429" y="533"/>
			<point x="429" y="459" type="curve" smooth="yes"/>
			<point x="429" y="386"/>
			<point x="381" y="349"/>
			<point x="292" y="349" type="curve" smooth="yes"/>
		</contour>
		<contour>
			<point x="439" y="0" type="line"/>
			<point x="572" y="0" type="line"/>
			<point x="368" y="357" type="line"/>
			<point x="282" y="285" type="line"/>
		</contour>
	</outline>
	<anchor name="aboveUC" x="303" y="676"/>
	<anchor name="belowLC" x="320" y="-22"/>
</glyph>
<glyph name="S" format="2">
	<unicode hex="0053"/>
	<advance width="546"/>
	<outline>
		<contour>
			<point x="274" y="-12" type="curve" smooth="yes"/>
			<point x="422" y="-12"/>
			<point x="510" y="77"/>
			<point x="510" y="183" type="curve" smooth="yes"/>
			<point x="510" y="278"/>
			<point x="456" y="327"/>
			<point x="378" y="360" type="curve" smooth="yes"/>
			<point x="290" y="396" type="line" smooth="yes"/>
			<point x="236" y="419"/>
			<point x="187" y="437"/>
			<point x="187" y="487" type="curve" smooth="yes"/>
			<point x="187" y="534"/>
			<point x="226" y="562"/>
			<point x="287" y="562" type="curve" smooth="yes"/>
			<point x="337" y="562"/>
			<point x="385" y="542"/>
			<point x="426" y="507" type="curve"/>
			<point x="490" y="585" type="line"/>
			<point x="439" y="634"/>
			<point x="366" y="666"/>
			<point x="287" y="666" type="curve" smooth="yes"/>
			<point x="159" y="666"/>
			<point x="67" y="585"/>
			<point x="67" y="480" type="curve" smooth="yes"/>
			<point x="67" y="385"/>
			<point x="134" y="334"/>
			<point x="199" y="307" type="curve" smooth="yes"/>
			<point x="288" y="268" type="line" smooth="yes"/>
			<point x="347" y="243"/>
			<point x="389" y="226"/>
			<point x="389" y="174" type="curve" smooth="yes"/>
			<point x="389" y="124"/>
			<point x="349" y="91"/>
			<point x="277" y="91" type="curve" smooth="yes"/>
			<point x="214" y="91"/>
			<point x="149" y="117"/>
			<point x="102" y="162" type="curve"/>
			<point x="38" y="84" type="line"/>
			<point x="100" y="21"/>
			<point x="184" y="-12"/>
		</contour>
	</outline>
	<anchor name="aboveUC" x="285" y="676"/>
	<anchor name="baseLC" x="277" y="0"/>
	<anchor name="belowLC" x="277" y="-22"/>
</glyph>
<glyph name="T" format="2">
	<unicode hex="0054"/>
	<advance width="547"/>
	<outline>
		<contour>
			<point x="214" y="0" type="line"/>
			<point x="333" y="0" type="line"/>
			<point x="333" y="554" type="line"/>
			<point x="521" y="554" type="line"/>
			<point x="521" y="654" type="line"/>
			<point x="26" y="654" type="line"/>
			<point x="26" y="554" type="line"/>
			<point x="214" y="554" type="line"/>
		</contour>
	</outline>
	<anchor name="aboveUC" x="272" y="676"/>
	<anchor name="baseLC" x="272" y="0"/>
	<anchor name="belowLC" x="272" y="-22"/>
</glyph>
<glyph name="U" format="2">
	<unicode hex="0055"/>
	<advance width="656"/>
	<outline>
		<contour>
			<point x="329" y="-12" type="curve" smooth="yes"/>
			<point x="482" y="-12"/>
			<point x="577" y="73"/>
			<point x="577" y="288" type="curve" smooth="yes"/>
			<point x="577" y="654" type="line"/>
			<point x="462" y="654" type="line"/>
			<point x="462" y="279" type="line" smooth="yes"/>
			<point x="462" y="138"/>
			<point x="408" y="91"/>
			<point x="329" y="91" type="curve" smooth="yes"/>
			<point x="250" y="91"/>
			<point x="198" y="138"/>
			<point x="198" y="279" type="curve" smooth="yes"/>
			<point x="198" y="654" type="line"/>
			<point x="79" y="654" type="line"/>
			<point x="79" y="288" type="line" smooth="yes"/>
			<point x="79" y="73"/>
			<point x="176" y="-12"/>
		</contour>
	</outline>
	<anchor name="aboveUC" x="328" y="676"/>
	<anchor name="belowLC" x="328" y="-22"/>
	<anchor name="hornLC" x="536" y="664"/>
	<anchor name="ogonekUC" x="328" y="0"/>
</glyph>
<glyph name="V" format="2">
	<unicode hex="0056"/>
	<advance width="536"/>
	<outline>
		<contour>
			<point x="196" y="0" type="line"/>
			<point x="333" y="0" type="line"/>
			<point x="540" y="654" type="line"/>
			<point x="421" y="654" type="line"/>
			<point x="326" y="325" type="line" smooth="yes"/>
			<point x="305" y="251"/>
			<point x="291" y="187"/>
			<point x="269" y="112" type="curve"/>
			<point x="265" y="112" type="line"/>
			<point x="243" y="187"/>
			<point x="227" y="251"/>
			<point x="207" y="325" type="curve" smooth="yes"/>
			<point x="119" y="654" type="line"/>
			<point x="-4" y="654" type="line"/>
		</contour>
	</outline>
	<anchor name="aboveUC" x="268" y="676"/>
	<anchor name="belowLC" x="267" y="-22"/>
</glyph>
<glyph name="W" format="2">
	<unicode hex="0057"/>
	<advance width="800"/>
	<outline>
		<contour>
			<point x="146" y="0" type="line"/>
			<point x="287" y="0" type="line"/>
			<point x="367" y="344" type="line"/>
			<point x="378" y="395"/>
			<point x="388" y="445"/>
			<point x="397" y="495" type="curve"/>
			<point x="401" y="495" type="line"/>
			<point x="409" y="445"/>
			<point x="419" y="395"/>
			<point x="430" y="344" type="curve"/>
			<point x="510" y="0" type="line"/>
			<point x="654" y="0" type="line"/>
			<point x="781" y="654" type="line"/>
			<point x="670" y="654" type="line"/>
			<point x="611" y="324" type="line"/>
			<point x="601" y="255"/>
			<point x="590" y="185"/>
			<point x="580" y="115" type="curve"/>
			<point x="576" y="115" type="line"/>
			<point x="561" y="185"/>
			<point x="547" y="256"/>
			<point x="532" y="324" type="curve"/>
			<point x="454" y="654" type="line"/>
			<point x="353" y="654" type="line"/>
			<point x="271" y="324" type="line"/>
			<point x="256" y="255"/>
			<point x="242" y="184"/>
			<point x="228" y="115" type="curve"/>
			<point x="224" y="115" type="line"/>
			<point x="214" y="184"/>
			<point x="203" y="254"/>
			<point x="192" y="324" type="curve"/>
			<point x="137" y="654" type="line"/>
			<point x="18" y="654" type="line"/>
		</contour>
	</outline>
	<anchor name="aboveUC" x="399" y="676"/>
	<anchor name="belowLC" x="400" y="-22"/>
</glyph>
<glyph name="X" format="2">
	<unicode hex="0058"/>
	<advance width="543"/>
	<outline>
		<contour>
			<point x="13" y="0" type="line"/>
			<point x="139" y="0" type="line"/>
			<point x="215" y="152" type="line" smooth="yes"/>
			<point x="231" y="186"/>
			<point x="247" y="219"/>
			<point x="264" y="259" type="curve"/>
			<point x="268" y="259" type="line"/>
			<point x="287" y="219"/>
			<point x="303" y="186"/>
			<point x="320" y="152" type="curve" smooth="yes"/>
			<point x="398" y="0" type="line"/>
			<point x="530" y="0" type="line"/>
			<point x="345" y="331" type="line"/>
			<point x="519" y="654" type="line"/>
			<point x="392" y="654" type="line"/>
			<point x="325" y="511" type="line" smooth="yes"/>
			<point x="311" y="481"/>
			<point x="297" y="450"/>
			<point x="281" y="410" type="curve"/>
			<point x="277" y="410" type="line"/>
			<point x="257" y="450"/>
			<point x="243" y="481"/>
			<point x="228" y="511" type="curve" smooth="yes"/>
			<point x="157" y="654" type="line"/>
			<point x="25" y="654" type="line"/>
			<point x="198" y="337" type="line"/>
		</contour>
	</outline>
	<anchor name="aboveUC" x="272" y="676"/>
	<anchor name="belowLC" x="264" y="-22"/>
</glyph>
<glyph name="Z" format="2">
	<unicode hex="005A"/>
	<advance width="540"/>
	<outline>
		<contour>
			<point x="40" y="0" type="line"/>
			<point x="503" y="0" type="line"/>
			<point x="503" y="100" type="line"/>
			<point x="186" y="100" type="line"/>
			<point x="500" y="582" type="line"/>
			<point x="500" y="654" type="line"/>
			<point x="69" y="654" type="line"/>
			<point x="69" y="554" type="line"/>
			<point x="353" y="554" type="line"/>
			<point x="40" y="71" type="line"/>
		</contour>
	</outline>
	<anchor name="aboveUC" x="282" y="676"/>
	<anchor name="belowLC" x="282" y="-22"/>
</glyph>
<glyph name="bracketleft" format="2">
	<unicode hex="005B"/>
	<advance width="326"/>
	<outline>
		<contour>
			<point x="90" y="-152" type="line"/>
			<point x="287" y="-152" type="line"/>
			<point x="287" y="-88" type="line"/>
			<point x="179" y="-88" type="line"/>
			<point x="179" y="644" type="line"/>
			<point x="287" y="644" type="line"/>
			<point x="287" y="708" type="line"/>
			<point x="90" y="708" type="line"/>
		</contour>
	</outline>
</glyph>
<glyph name="backslash" format="2">
	<unicode hex="005C"/>
	<advance width="344"/>
	<outline>
		<contour>
			<point x="252" y="-160" type="line"/>
			<point x="332" y="-160" type="line"/>
			<point x="102" y="710" type="line"/>
			<point x="22" y="710" type="line"/>
		</contour>
	</outline>
</glyph>
<glyph name="bracketright" format="1">
	<unicode hex="005D"/>
	<advance width="324"/>
	<outline>
		<contour>
			<point x="38" y="-152" type="line"/>
			<point x="234" y="-152" type="line"/>
			<point x="234" y="708" type="line"/>
			<point x="38" y="708" type="line"/>
			<point x="38" y="645" type="line"/>
			<point x="147" y="645" type="line"/>
			<point x="147" y="-89" type="line"/>
			<point x="38" y="-89" type="line"/>
		</contour>
	</outline>
</glyph>
<glyph name="asciicircum" format="2">
	<unicode hex="005E"/>
	<advance width="514"/>
	<outline>
		<contour>
			<point x="54" y="278" type="line"/>
			<point x="153" y="278" type="line"/>
			<point x="208" y="428" type="line"/>
			<point x="255" y="562" type="line"/>
			<point x="259" y="562" type="line"/>
			<point x="306" y="428" type="line"/>
			<point x="361" y="278" type="line"/>
			<point x="460" y="278" type="line"/>
			<point x="306" y="670" type="line"/>
			<point x="208" y="670" type="line"/>
		</contour>
	</outline>
</glyph>
<glyph name="underscore" format="2">
	<unicode hex="005F"/>
	<advance width="500"/>
	<outline>
		<contour>
			<point x="12" y="-134" type="line"/>
			<point x="488" y="-134" type="line"/>
			<point x="488" y="-63" type="line"/>
			<point x="12" y="-63" type="line"/>
		</contour>
	</outline>
</glyph>
<glyph name="a" format="2">
	<unicode hex="0061"/>
	<advance width="516"/>
	<outline>
		<contour>
			<point x="192" y="-12" type="curve" smooth="yes"/>
			<point x="250" y="-12"/>
			<point x="298" y="16"/>
			<point x="344" y="54" type="curve"/>
			<point x="348" y="54" type="line"/>
			<point x="356" y="0" type="line"/>
			<point x="451" y="0" type="line"/>
			<point x="451" y="290" type="line" smooth="yes"/>
			<point x="451" y="428"/>
			<point x="390" y="503"/>
			<point x="268" y="503" type="curve" smooth="yes"/>
			<point x="190" y="503"/>
			<point x="120" y="474"/>
			<point x="66" y="440" type="curve"/>
			<point x="108" y="362" type="line"/>
			<point x="152" y="388"/>
			<point x="198" y="408"/>
			<point x="246" y="408" type="curve" smooth="yes"/>
			<point x="312" y="408"/>
			<point x="334" y="366"/>
			<point x="336" y="316" type="curve"/>
			<point x="134" y="294"/>
			<point x="46" y="242"/>
			<point x="46" y="132" type="curve" smooth="yes"/>
			<point x="46" y="46"/>
			<point x="106" y="-12"/>
		</contour>
		<contour>
			<point x="228" y="82" type="curve" smooth="yes"/>
			<point x="188" y="82"/>
			<point x="158" y="98"/>
			<point x="158" y="140" type="curve" smooth="yes"/>
			<point x="158" y="190"/>
			<point x="202" y="220"/>
			<point x="336" y="236" type="curve"/>
			<point x="336" y="132" type="line"/>
			<point x="300" y="98"/>
			<point x="268" y="82"/>
		</contour>
	</outline>
	<anchor name="aboveLC" x="272" y="514"/>
	<anchor name="belowLC" x="252" y="-22"/>
	<anchor name="ogonekLC" x="370" y="0"/>
</glyph>
<glyph name="b" format="2">
	<unicode hex="0062"/>
	<advance width="564"/>
	<outline>
		<contour>
			<point x="313" y="-12" type="curve" smooth="yes"/>
			<point x="422" y="-12"/>
			<point x="522" y="85"/>
			<point x="522" y="254" type="curve" smooth="yes"/>
			<point x="522" y="405"/>
			<point x="451" y="504"/>
			<point x="328" y="504" type="curve" smooth="yes"/>
			<point x="278" y="504"/>
			<point x="228" y="479"/>
			<point x="187" y="443" type="curve"/>
			<point x="191" y="524" type="line"/>
			<point x="191" y="706" type="line"/>
			<point x="72" y="706" type="line"/>
			<point x="72" y="0" type="line"/>
			<point x="165" y="0" type="line"/>
			<point x="176" y="52" type="line"/>
			<point x="179" y="52" type="line"/>
			<point x="220" y="11"/>
			<point x="268" y="-12"/>
		</contour>
		<contour>
			<point x="287" y="86" type="curve" smooth="yes"/>
			<point x="259" y="86"/>
			<point x="224" y="96"/>
			<point x="191" y="125" type="curve"/>
			<point x="191" y="352" type="line"/>
			<point x="227" y="389"/>
			<point x="261" y="406"/>
			<point x="296" y="406" type="curve" smooth="yes"/>
			<point x="369" y="406"/>
			<point x="401" y="349"/>
			<point x="401" y="252" type="curve" smooth="yes"/>
			<point x="401" y="142"/>
			<point x="351" y="86"/>
		</contour>
	</outline>
	<anchor name="aboveUC" x="305" y="724"/>
	<anchor name="belowLC" x="294" y="-22"/>
</glyph>
<glyph name="c" format="2">
	<unicode hex="0063"/>
	<advance width="462"/>
	<outline>
		<contour>
			<point x="278" y="-12" type="curve" smooth="yes"/>
			<point x="334" y="-12"/>
			<point x="392" y="7"/>
			<point x="438" y="48" type="curve"/>
			<point x="391" y="121" type="line"/>
			<point x="364" y="98"/>
			<point x="329" y="82"/>
			<point x="290" y="82" type="curve" smooth="yes"/>
			<point x="213" y="82"/>
			<point x="159" y="147"/>
			<point x="159" y="245" type="curve" smooth="yes"/>
			<point x="159" y="344"/>
			<point x="214" y="409"/>
			<point x="293" y="409" type="curve" smooth="yes"/>
			<point x="325" y="409"/>
			<point x="350" y="398"/>
			<point x="376" y="376" type="curve"/>
			<point x="431" y="448" type="line"/>
			<point x="395" y="480"/>
			<point x="350" y="503"/>
			<point x="287" y="503" type="curve" smooth="yes"/>
			<point x="156" y="503"/>
			<point x="41" y="409"/>
			<point x="41" y="245" type="curve" smooth="yes"/>
			<point x="41" y="82"/>
			<point x="144" y="-12"/>
		</contour>
	</outline>
	<anchor name="aboveLC" x="276" y="514"/>
	<anchor name="baseLC" x="264" y="0"/>
	<anchor name="belowLC" x="264" y="-22"/>
</glyph>
<glyph name="d" format="2">
	<unicode hex="0064"/>
	<advance width="565"/>
	<outline>
		<contour>
			<point x="245" y="-12" type="curve" smooth="yes"/>
			<point x="297" y="-12"/>
			<point x="347" y="17"/>
			<point x="383" y="53" type="curve"/>
			<point x="387" y="53" type="line"/>
			<point x="396" y="0" type="line"/>
			<point x="492" y="0" type="line"/>
			<point x="492" y="706" type="line"/>
			<point x="374" y="706" type="line"/>
			<point x="374" y="529" type="line"/>
			<point x="379" y="450" type="line"/>
			<point x="341" y="483"/>
			<point x="306" y="504"/>
			<point x="251" y="504" type="curve" smooth="yes"/>
			<point x="143" y="504"/>
			<point x="43" y="406"/>
			<point x="43" y="245" type="curve" smooth="yes"/>
			<point x="43" y="83"/>
			<point x="122" y="-12"/>
		</contour>
		<contour>
			<point x="274" y="86" type="curve" smooth="yes"/>
			<point x="204" y="86"/>
			<point x="164" y="141"/>
			<point x="164" y="247" type="curve" smooth="yes"/>
			<point x="164" y="348"/>
			<point x="215" y="406"/>
			<point x="276" y="406" type="curve" smooth="yes"/>
			<point x="309" y="406"/>
			<point x="341" y="396"/>
			<point x="374" y="366" type="curve"/>
			<point x="374" y="140" type="line"/>
			<point x="343" y="102"/>
			<point x="311" y="86"/>
		</contour>
	</outline>
	<anchor name="aboveUC" x="272" y="724"/>
	<anchor name="belowLC" x="282" y="-22"/>
</glyph>
<glyph name="e" format="2">
	<unicode hex="0065"/>
	<advance width="507"/>
	<outline>
		<contour>
			<point x="283" y="-12" type="curve" smooth="yes"/>
			<point x="345" y="-12"/>
			<point x="404" y="9"/>
			<point x="451" y="41" type="curve"/>
			<point x="413" y="111" type="line"/>
			<point x="378" y="90"/>
			<point x="340" y="77"/>
			<point x="298" y="77" type="curve" smooth="yes"/>
			<point x="220" y="77"/>
			<point x="151" y="126"/>
			<point x="148" y="246" type="curve" smooth="yes"/>
			<point x="146" y="366"/>
			<point x="211" y="414"/>
			<point x="270" y="414" type="curve" smooth="yes"/>
			<point x="337" y="414"/>
			<point x="370" y="368"/>
			<point x="370" y="292" type="curve"/>
			<point x="128" y="292" type="line"/>
			<point x="129" y="214" type="line"/>
			<point x="465" y="214" type="line"/>
			<point x="468" y="226"/>
			<point x="470" y="248"/>
			<point x="470" y="270" type="curve" smooth="yes"/>
			<point x="470" y="407"/>
			<point x="400" y="503"/>
			<point x="267" y="503" type="curve" smooth="yes"/>
			<point x="152" y="503"/>
			<point x="41" y="405"/>
			<point x="41" y="245" type="curve" smooth="yes"/>
			<point x="41" y="83"/>
			<point x="147" y="-12"/>
		</contour>
	</outline>
	<anchor name="aboveLC" x="266" y="514"/>
	<anchor name="baseLC" x="266" y="0"/>
	<anchor name="belowLC" x="266" y="-22"/>
	<anchor name="ogonekLC" x="352" y="0"/>
</glyph>
<glyph name="f" format="2">
	<unicode hex="0066"/>
	<advance width="319"/>
	<outline>
		<contour>
			<point x="93" y="0" type="line"/>
			<point x="211" y="0" type="line"/>
			<point x="211" y="542" type="line" smooth="yes"/>
			<point x="211" y="598"/>
			<point x="232" y="624"/>
			<point x="273" y="624" type="curve" smooth="yes"/>
			<point x="289" y="624"/>
			<point x="306" y="621"/>
			<point x="324" y="616" type="curve"/>
			<point x="348" y="701" type="line"/>
			<point x="327" y="709"/>
			<point x="293" y="718"/>
			<point x="257" y="718" type="curve" smooth="yes"/>
			<point x="140" y="718"/>
			<point x="93" y="642"/>
			<point x="93" y="540" type="curve" smooth="yes"/>
		</contour>
		<contour>
			<point x="27" y="398" type="line"/>
			<point x="306" y="398" type="line"/>
			<point x="306" y="492" type="line"/>
			<point x="99" y="492" type="line"/>
			<point x="27" y="486" type="line"/>
		</contour>
	</outline>
	<anchor name="aboveUC" x="231" y="724"/>
	<anchor name="belowLC" x="152" y="-22"/>
</glyph>
<glyph name="g" format="2">
	<unicode hex="0067"/>
	<advance width="521"/>
	<outline>
		<contour>
			<point x="244" y="-217" type="curve" smooth="yes"/>
			<point x="405" y="-217"/>
			<point x="507" y="-140"/>
			<point x="507" y="-43" type="curve" smooth="yes"/>
			<point x="507" y="42"/>
			<point x="444" y="79"/>
			<point x="327" y="79" type="curve" smooth="yes"/>
			<point x="240" y="79" type="line" smooth="yes"/>
			<point x="181" y="79"/>
			<point x="161" y="95"/>
			<point x="161" y="122" type="curve" smooth="yes"/>
			<point x="161" y="144"/>
			<point x="170" y="156"/>
			<point x="184" y="168" type="curve"/>
			<point x="206" y="160"/>
			<point x="229" y="156"/>
			<point x="250" y="156" type="curve" smooth="yes"/>
			<point x="354" y="156"/>
			<point x="438" y="214"/>
			<point x="438" y="323" type="curve" smooth="yes"/>
			<point x="438" y="356"/>
			<point x="426" y="386"/>
			<point x="411" y="404" type="curve"/>
			<point x="499" y="404" type="line"/>
			<point x="499" y="492" type="line"/>
			<point x="323" y="492" type="line"/>
			<point x="303" y="499"/>
			<point x="277" y="504"/>
			<point x="250" y="504" type="curve" smooth="yes"/>
			<point x="147" y="504"/>
			<point x="55" y="440"/>
			<point x="55" y="327" type="curve" smooth="yes"/>
			<point x="55" y="269"/>
			<point x="86" y="222"/>
			<point x="120" y="197" type="curve"/>
			<point x="120" y="193" type="line"/>
			<point x="91" y="173"/>
			<point x="65" y="140"/>
			<point x="65" y="102" type="curve" smooth="yes"/>
			<point x="65" y="62"/>
			<point x="85" y="36"/>
			<point x="110" y="20" type="curve"/>
			<point x="110" y="16" type="line"/>
			<point x="65" y="-12"/>
			<point x="39" y="-47"/>
			<point x="39" y="-89" type="curve" smooth="yes"/>
			<point x="39" y="-175"/>
			<point x="127" y="-217"/>
		</contour>
		<contour>
			<point x="250" y="230" type="curve" smooth="yes"/>
			<point x="204" y="230"/>
			<point x="166" y="265"/>
			<point x="166" y="327" type="curve" smooth="yes"/>
			<point x="166" y="388"/>
			<point x="203" y="422"/>
			<point x="250" y="422" type="curve" smooth="yes"/>
			<point x="297" y="422"/>
			<point x="333" y="388"/>
			<point x="333" y="327" type="curve" smooth="yes"/>
			<point x="333" y="265"/>
			<point x="296" y="230"/>
		</contour>
		<contour>
			<point x="262" y="-140" type="curve" smooth="yes"/>
			<point x="186" y="-140"/>
			<point x="138" y="-115"/>
			<point x="138" y="-71" type="curve" smooth="yes"/>
			<point x="138" y="-48"/>
			<point x="149" y="-27"/>
			<point x="175" y="-7" type="curve"/>
			<point x="194" y="-12"/>
			<point x="215" y="-14"/>
			<point x="242" y="-14" type="curve" smooth="yes"/>
			<point x="308" y="-14" type="line" smooth="yes"/>
			<point x="363" y="-14"/>
			<point x="393" y="-25"/>
			<point x="393" y="-62" type="curve" smooth="yes"/>
			<point x="393" y="-104"/>
			<point x="340" y="-140"/>
		</contour>
	</outline>
	<anchor name="aboveLC" x="265" y="514"/>
	<anchor name="belowLC" x="250" y="-210"/>
</glyph>
<glyph name="h" format="2">
	<unicode hex="0068"/>
	<advance width="559"/>
	<outline>
		<contour>
			<point x="72" y="0" type="line"/>
			<point x="191" y="0" type="line"/>
			<point x="191" y="342" type="line"/>
			<point x="230" y="382"/>
			<point x="258" y="402"/>
			<point x="301" y="402" type="curve" smooth="yes"/>
			<point x="353" y="402"/>
			<point x="376" y="373"/>
			<point x="376" y="293" type="curve" smooth="yes"/>
			<point x="376" y="0" type="line"/>
			<point x="494" y="0" type="line"/>
			<point x="494" y="308" type="line" smooth="yes"/>
			<point x="494" y="432"/>
			<point x="448" y="504"/>
			<point x="342" y="504" type="curve" smooth="yes"/>
			<point x="275" y="504"/>
			<point x="226" y="468"/>
			<point x="186" y="430" type="curve"/>
			<point x="191" y="524" type="line"/>
			<point x="191" y="706" type="line"/>
			<point x="72" y="706" type="line"/>
		</contour>
	</outline>
	<anchor name="aboveUC" x="305" y="724"/>
	<anchor name="belowLC" x="292" y="-22"/>
</glyph>
<glyph name="i" format="1">
	<unicode hex="0069"/>
	<advance width="262"/>
	<outline>
		<contour>
			<point x="73" y="0" type="line"/>
			<point x="188" y="0" type="line"/>
			<point x="188" y="491" type="line"/>
			<point x="73" y="491" type="line"/>
		</contour>
		<contour>
			<point x="131" y="577" type="curve" smooth="yes"/>
			<point x="172" y="577"/>
			<point x="202" y="604"/>
			<point x="202" y="642" type="curve" smooth="yes"/>
			<point x="202" y="681"/>
			<point x="172" y="708"/>
			<point x="131" y="708" type="curve" smooth="yes"/>
			<point x="90" y="708"/>
			<point x="60" y="681"/>
			<point x="60" y="642" type="curve" smooth="yes"/>
			<point x="60" y="604"/>
			<point x="90" y="577"/>
		</contour>
		<contour>
			<point name="ogonekLC" x="166" y="0" type="move"/>
		</contour>
		<contour>
			<point name="aboveLC" x="130" y="709" type="move"/>
		</contour>
		<contour>
			<point name="belowLC" x="130" y="-22" type="move"/>
		</contour>
	</outline>
</glyph>
<glyph name="j" format="1">
	<unicode hex="006A"/>
	<advance width="263"/>
	<outline>
		<component base="dotlessj"/>
		<component base="dotaccentcmb" xOffset="132"/>
		<contour>
			<point name="aboveLC" x="133" y="709" type="move"/>
		</contour>
		<contour>
			<point name="belowLC" x="69" y="-233" type="move"/>
		</contour>
	</outline>
</glyph>
<glyph name="k" format="2">
	<unicode hex="006B"/>
	<advance width="524"/>
	<outline>
		<contour>
			<point x="72" y="0" type="line"/>
			<point x="189" y="0" type="line"/>
			<point x="189" y="126" type="line"/>
			<point x="264" y="211" type="line"/>
			<point x="389" y="0" type="line"/>
			<point x="517" y="0" type="line"/>
			<point x="333" y="290" type="line"/>
			<point x="500" y="492" type="line"/>
			<point x="370" y="492" type="line"/>
			<point x="193" y="270" type="line"/>
			<point x="189" y="270" type="line"/>
			<point x="189" y="706" type="line"/>
			<point x="72" y="706" type="line"/>
		</contour>
	</outline>
	<anchor name="aboveUC" x="301" y="724"/>
	<anchor name="belowLC" x="285" y="-22"/>
</glyph>
<glyph name="l" format="2">
	<unicode hex="006C"/>
	<advance width="272"/>
	<outline>
		<contour>
			<point x="186" y="-12" type="curve" smooth="yes"/>
			<point x="214" y="-12"/>
			<point x="234" y="-8"/>
			<point x="248" y="-1" type="curve"/>
			<point x="234" y="86" type="line"/>
			<point x="226" y="84"/>
			<point x="222" y="84"/>
			<point x="216" y="84" type="curve" smooth="yes"/>
			<point x="204" y="84"/>
			<point x="191" y="94"/>
			<point x="191" y="123" type="curve" smooth="yes"/>
			<point x="191" y="706" type="line"/>
			<point x="72" y="706" type="line"/>
			<point x="72" y="129" type="line" smooth="yes"/>
			<point x="72" y="42"/>
			<point x="103" y="-12"/>
		</contour>
	</outline>
	<anchor name="aboveUC" x="135" y="724"/>
	<anchor name="belowLC" x="155" y="-22"/>
</glyph>
<glyph name="m" format="2">
	<unicode hex="006D"/>
	<advance width="845"/>
	<outline>
		<contour>
			<point x="72" y="0" type="line"/>
			<point x="191" y="0" type="line"/>
			<point x="191" y="342" type="line"/>
			<point x="228" y="383"/>
			<point x="262" y="402"/>
			<point x="292" y="402" type="curve" smooth="yes"/>
			<point x="342" y="402"/>
			<point x="366" y="373"/>
			<point x="366" y="293" type="curve" smooth="yes"/>
			<point x="366" y="0" type="line"/>
			<point x="484" y="0" type="line"/>
			<point x="484" y="342" type="line"/>
			<point x="521" y="383"/>
			<point x="555" y="402"/>
			<point x="585" y="402" type="curve" smooth="yes"/>
			<point x="636" y="402"/>
			<point x="659" y="373"/>
			<point x="659" y="293" type="curve" smooth="yes"/>
			<point x="659" y="0" type="line"/>
			<point x="778" y="0" type="line"/>
			<point x="778" y="308" type="line" smooth="yes"/>
			<point x="778" y="432"/>
			<point x="730" y="504"/>
			<point x="626" y="504" type="curve" smooth="yes"/>
			<point x="563" y="504"/>
			<point x="515" y="466"/>
			<point x="468" y="416" type="curve"/>
			<point x="445" y="471"/>
			<point x="404" y="504"/>
			<point x="332" y="504" type="curve" smooth="yes"/>
			<point x="270" y="504"/>
			<point x="223" y="468"/>
			<point x="181" y="425" type="curve"/>
			<point x="178" y="425" type="line"/>
			<point x="169" y="492" type="line"/>
			<point x="72" y="492" type="line"/>
		</contour>
	</outline>
	<anchor name="aboveLC" x="435" y="514"/>
	<anchor name="belowLC" x="429" y="-22"/>
</glyph>
<glyph name="o" format="2">
	<unicode hex="006F"/>
	<advance width="549"/>
	<outline>
		<contour>
			<point x="275" y="-12" type="curve" smooth="yes"/>
			<point x="397" y="-12"/>
			<point x="509" y="82"/>
			<point x="509" y="245" type="curve" smooth="yes"/>
			<point x="509" y="409"/>
			<point x="397" y="504"/>
			<point x="275" y="504" type="curve" smooth="yes"/>
			<point x="152" y="504"/>
			<point x="40" y="409"/>
			<point x="40" y="245" type="curve" smooth="yes"/>
			<point x="40" y="82"/>
			<point x="152" y="-12"/>
		</contour>
		<contour>
			<point x="275" y="84" type="curve" smooth="yes"/>
			<point x="204" y="84"/>
			<point x="162" y="148"/>
			<point x="162" y="245" type="curve" smooth="yes"/>
			<point x="162" y="343"/>
			<point x="204" y="407"/>
			<point x="275" y="407" type="curve" smooth="yes"/>
			<point x="346" y="407"/>
			<point x="388" y="343"/>
			<point x="388" y="245" type="curve" smooth="yes"/>
			<point x="388" y="148"/>
			<point x="346" y="84"/>
		</contour>
	</outline>
	<anchor name="aboveLC" x="275" y="514"/>
	<anchor name="belowLC" x="275" y="-22"/>
	<anchor name="hornLC" x="368" y="492"/>
	<anchor name="ogonekLC" x="275" y="0"/>
	<anchor name="aboverightLC" x="525" y="514"/>
</glyph>
<glyph name="p" format="1">
	<unicode hex="0070"/>
	<advance width="564"/>
	<outline>
		<contour>
			<point x="73" y="-194" type="line"/>
			<point x="188" y="-194" type="line"/>
			<point x="188" y="-40" type="line"/>
			<point x="185" y="42" type="line"/>
			<point x="225" y="8"/>
			<point x="268" y="-12"/>
			<point x="311" y="-12" type="curve" smooth="yes"/>
			<point x="420" y="-12"/>
			<point x="521" y="85"/>
			<point x="521" y="253" type="curve" smooth="yes"/>
			<point x="521" y="405"/>
			<point x="450" y="503"/>
			<point x="328" y="503" type="curve" smooth="yes"/>
			<point x="274" y="503"/>
			<point x="221" y="474"/>
			<point x="180" y="439" type="curve"/>
			<point x="176" y="439" type="line"/>
			<point x="168" y="491" type="line"/>
			<point x="73" y="491" type="line"/>
		</contour>
		<contour>
			<point x="287" y="83" type="curve" smooth="yes"/>
			<point x="258" y="83"/>
			<point x="224" y="94"/>
			<point x="188" y="124" type="curve"/>
			<point x="188" y="353" type="line"/>
			<point x="226" y="390"/>
			<point x="260" y="408"/>
			<point x="296" y="408" type="curve" smooth="yes"/>
			<point x="370" y="408"/>
			<point x="402" y="350"/>
			<point x="402" y="252" type="curve" smooth="yes"/>
			<point x="402" y="141"/>
			<point x="352" y="83"/>
		</contour>
		<contour>
			<point name="aboveLC" x="304" y="514" type="move"/>
		</contour>
		<contour>
			<point name="belowLC" x="132" y="-194" type="move"/>
		</contour>
	</outline>
</glyph>
<glyph name="q" format="2">
	<unicode hex="0071"/>
	<advance width="565"/>
	<outline>
		<contour>
			<point x="374" y="-193" type="line"/>
			<point x="492" y="-193" type="line"/>
			<point x="492" y="492" type="line"/>
			<point x="399" y="492" type="line"/>
			<point x="389" y="444" type="line"/>
			<point x="386" y="444" type="line"/>
			<point x="345" y="484"/>
			<point x="306" y="504"/>
			<point x="251" y="504" type="curve" smooth="yes"/>
			<point x="143" y="504"/>
			<point x="43" y="406"/>
			<point x="43" y="245" type="curve" smooth="yes"/>
			<point x="43" y="83"/>
			<point x="122" y="-12"/>
			<point x="245" y="-12" type="curve" smooth="yes"/>
			<point x="294" y="-12"/>
			<point x="343" y="14"/>
			<point x="379" y="49" type="curve"/>
			<point x="374" y="-33" type="line"/>
		</contour>
		<contour>
			<point x="274" y="86" type="curve" smooth="yes"/>
			<point x="204" y="86"/>
			<point x="164" y="141"/>
			<point x="164" y="247" type="curve" smooth="yes"/>
			<point x="164" y="348"/>
			<point x="215" y="406"/>
			<point x="276" y="406" type="curve" smooth="yes"/>
			<point x="309" y="406"/>
			<point x="341" y="396"/>
			<point x="374" y="366" type="curve"/>
			<point x="374" y="140" type="line"/>
			<point x="343" y="102"/>
			<point x="311" y="86"/>
		</contour>
	</outline>
	<anchor name="aboveLC" x="286" y="514"/>
	<anchor name="belowLC" x="426" y="-193"/>
</glyph>
<glyph name="r" format="2">
	<unicode hex="0072"/>
	<advance width="373"/>
	<outline>
		<contour>
			<point x="73" y="0" type="line"/>
			<point x="188" y="0" type="line"/>
			<point x="188" y="300" type="line"/>
			<point x="218" y="374"/>
			<point x="265" y="401"/>
			<point x="304" y="401" type="curve" smooth="yes"/>
			<point x="325" y="401"/>
			<point x="336" y="399"/>
			<point x="352" y="395" type="curve"/>
			<point x="375" y="493" type="line"/>
			<point x="360" y="500"/>
			<point x="344" y="503"/>
			<point x="319" y="503" type="curve" smooth="yes"/>
			<point x="266" y="503"/>
			<point x="214" y="468"/>
			<point x="180" y="404" type="curve"/>
			<point x="176" y="404" type="line"/>
			<point x="168" y="491" type="line"/>
			<point x="73" y="491" type="line"/>
		</contour>
	</outline>
	<anchor name="aboveLC" x="236" y="514"/>
	<anchor name="belowLC" x="128" y="-22"/>
</glyph>
<glyph name="s" format="2">
	<unicode hex="0073"/>
	<advance width="431"/>
	<outline>
		<contour>
			<point x="210" y="-12" type="curve" smooth="yes"/>
			<point x="334" y="-12"/>
			<point x="401" y="56"/>
			<point x="401" y="140" type="curve" smooth="yes"/>
			<point x="401" y="226"/>
			<point x="334" y="264"/>
			<point x="258" y="290" type="curve" smooth="yes"/>
			<point x="196" y="311"/>
			<point x="160" y="326"/>
			<point x="160" y="362" type="curve" smooth="yes"/>
			<point x="160" y="392"/>
			<point x="183" y="416"/>
			<point x="233" y="416" type="curve" smooth="yes"/>
			<point x="272" y="416"/>
			<point x="308" y="404"/>
			<point x="343" y="379" type="curve"/>
			<point x="394" y="444" type="line"/>
			<point x="354" y="478"/>
			<point x="297" y="503"/>
			<point x="230" y="503" type="curve" smooth="yes"/>
			<point x="120" y="503"/>
			<point x="52" y="442"/>
			<point x="52" y="356" type="curve" smooth="yes"/>
			<point x="52" y="278"/>
			<point x="118" y="238"/>
			<point x="189" y="212" type="curve" smooth="yes"/>
			<point x="243" y="192"/>
			<point x="292" y="175"/>
			<point x="292" y="134" type="curve" smooth="yes"/>
			<point x="292" y="100"/>
			<point x="267" y="75"/>
			<point x="214" y="75" type="curve" smooth="yes"/>
			<point x="163" y="75"/>
			<point x="118" y="90"/>
			<point x="75" y="126" type="curve"/>
			<point x="24" y="60" type="line"/>
			<point x="72" y="14"/>
			<point x="142" y="-12"/>
		</contour>
	</outline>
	<anchor name="aboveLC" x="224" y="514"/>
	<anchor name="baseLC" x="216" y="0"/>
	<anchor name="belowLC" x="216" y="-22"/>
	<anchor name="center" x="222" y="242"/>
</glyph>
<glyph name="t" format="2">
	<unicode hex="0074"/>
	<advance width="361"/>
	<outline>
		<contour>
			<point x="246" y="-12" type="curve" smooth="yes"/>
			<point x="286" y="-12"/>
			<point x="321" y="-3"/>
			<point x="347" y="9" type="curve"/>
			<point x="326" y="90" type="line"/>
			<point x="310" y="82"/>
			<point x="292" y="80"/>
			<point x="275" y="80" type="curve" smooth="yes"/>
			<point x="228" y="80"/>
			<point x="206" y="108"/>
			<point x="206" y="166" type="curve" smooth="yes"/>
			<point x="206" y="400" type="line"/>
			<point x="331" y="400" type="line"/>
			<point x="331" y="491" type="line"/>
			<point x="206" y="491" type="line"/>
			<point x="206" y="645" type="line"/>
			<point x="110" y="645" type="line"/>
			<point x="96" y="491" type="line"/>
			<point x="20" y="486" type="line"/>
			<point x="20" y="400" type="line"/>
			<point x="90" y="400" type="line"/>
			<point x="90" y="166" type="line" smooth="yes"/>
			<point x="90" y="60"/>
			<point x="132" y="-12"/>
		</contour>
	</outline>
	<anchor name="aboveLC" x="160" y="650"/>
	<anchor name="baseLC" x="224" y="0"/>
	<anchor name="belowLC" x="224" y="-22"/>
</glyph>
<glyph name="v" format="2">
	<unicode hex="0076"/>
	<advance width="498"/>
	<outline>
		<contour>
			<point x="183" y="0" type="line"/>
			<point x="319" y="0" type="line"/>
			<point x="486" y="492" type="line"/>
			<point x="372" y="492" type="line"/>
			<point x="295" y="239" type="line" smooth="yes"/>
			<point x="282" y="190"/>
			<point x="267" y="140"/>
			<point x="254" y="90" type="curve"/>
			<point x="250" y="90" type="line"/>
			<point x="236" y="140"/>
			<point x="222" y="190"/>
			<point x="208" y="239" type="curve" smooth="yes"/>
			<point x="132" y="492" type="line"/>
			<point x="12" y="492" type="line"/>
		</contour>
	</outline>
	<anchor name="aboveLC" x="251" y="514"/>
	<anchor name="belowLC" x="251" y="-22"/>
</glyph>
<glyph name="x" format="2">
	<unicode hex="0078"/>
	<advance width="484"/>
	<outline>
		<contour>
			<point x="14" y="0" type="line"/>
			<point x="137" y="0" type="line"/>
			<point x="187" y="96" type="line"/>
			<point x="202" y="125"/>
			<point x="216" y="155"/>
			<point x="231" y="183" type="curve"/>
			<point x="235" y="183" type="line"/>
			<point x="251" y="155"/>
			<point x="268" y="125"/>
			<point x="284" y="96" type="curve"/>
			<point x="343" y="0" type="line"/>
			<point x="470" y="0" type="line"/>
			<point x="315" y="243" type="line"/>
			<point x="460" y="492" type="line"/>
			<point x="337" y="492" type="line"/>
			<point x="292" y="400" type="line"/>
			<point x="279" y="372"/>
			<point x="266" y="344"/>
			<point x="253" y="317" type="curve"/>
			<point x="249" y="317" type="line"/>
			<point x="235" y="344"/>
			<point x="219" y="372"/>
			<point x="205" y="400" type="curve"/>
			<point x="151" y="492" type="line"/>
			<point x="24" y="492" type="line"/>
			<point x="169" y="256" type="line"/>
		</contour>
	</outline>
	<anchor name="aboveLC" x="242" y="514"/>
	<anchor name="belowLC" x="242" y="-22"/>
</glyph>
<glyph name="y" format="2">
	<unicode hex="0079"/>
	<advance width="497"/>
	<outline>
		<contour>
			<point x="107" y="-201" type="curve" smooth="yes"/>
			<point x="215" y="-201"/>
			<point x="267" y="-133"/>
			<point x="308" y="-21" type="curve"/>
			<point x="485" y="492" type="line"/>
			<point x="371" y="492" type="line"/>
			<point x="299" y="253" type="line" smooth="yes"/>
			<point x="287" y="208"/>
			<point x="274" y="160"/>
			<point x="262" y="114" type="curve"/>
			<point x="258" y="114" type="line"/>
			<point x="244" y="161"/>
			<point x="230" y="210"/>
			<point x="215" y="253" type="curve" smooth="yes"/>
			<point x="132" y="492" type="line"/>
			<point x="12" y="492" type="line"/>
			<point x="205" y="7" type="line"/>
			<point x="196" y="-24" type="line" smooth="yes"/>
			<point x="180" y="-72"/>
			<point x="150" y="-106"/>
			<point x="99" y="-106" type="curve" smooth="yes"/>
			<point x="88" y="-106"/>
			<point x="79" y="-105"/>
			<point x="65" y="-101" type="curve"/>
			<point x="42" y="-190" type="line"/>
			<point x="61" y="-197"/>
			<point x="80" y="-201"/>
		</contour>
	</outline>
	<anchor name="aboveLC" x="256" y="514"/>
	<anchor name="belowLC" x="215" y="-202"/>
</glyph>
<glyph name="z" format="1">
	<unicode hex="007A"/>
	<advance width="443"/>
	<outline>
		<contour>
			<point x="34" y="0" type="line"/>
			<point x="418" y="0" type="line"/>
			<point x="418" y="92" type="line"/>
			<point x="179" y="92" type="line"/>
			<point x="410" y="430" type="line"/>
			<point x="410" y="491" type="line"/>
			<point x="60" y="491" type="line"/>
			<point x="60" y="400" type="line"/>
			<point x="266" y="400" type="line"/>
			<point x="34" y="62" type="line"/>
		</contour>
		<contour>
			<point name="aboveLC" x="238" y="514" type="move"/>
		</contour>
		<contour>
			<point name="belowLC" x="237" y="-22" type="move"/>
		</contour>
	</outline>
</glyph>
<glyph name="braceleft" format="2">
	<unicode hex="007B"/>
	<advance width="326"/>
	<outline>
		<contour>
			<point x="232" y="-152" type="curve" smooth="yes"/>
			<point x="287" y="-152" type="line"/>
			<point x="287" y="-88" type="line"/>
			<point x="265" y="-88" type="line" smooth="yes"/>
			<point x="217" y="-88"/>
			<point x="205" y="-68"/>
			<point x="205" y="-8" type="curve" smooth="yes"/>
			<point x="205" y="48"/>
			<point x="209" y="99"/>
			<point x="209" y="163" type="curve" smooth="yes"/>
			<point x="209" y="233"/>
			<point x="189" y="264"/>
			<point x="141" y="276" type="curve"/>
			<point x="141" y="280" type="line"/>
			<point x="189" y="292"/>
			<point x="209" y="322"/>
			<point x="209" y="393" type="curve" smooth="yes"/>
			<point x="209" y="457"/>
			<point x="205" y="508"/>
			<point x="205" y="564" type="curve" smooth="yes"/>
			<point x="205" y="624"/>
			<point x="217" y="644"/>
			<point x="265" y="644" type="curve" smooth="yes"/>
			<point x="287" y="644" type="line"/>
			<point x="287" y="708" type="line"/>
			<point x="232" y="708" type="line" smooth="yes"/>
			<point x="148" y="708"/>
			<point x="109" y="676"/>
			<point x="109" y="570" type="curve" smooth="yes"/>
			<point x="109" y="498"/>
			<point x="118" y="454"/>
			<point x="118" y="389" type="curve" smooth="yes"/>
			<point x="118" y="352"/>
			<point x="99" y="315"/>
			<point x="32" y="314" type="curve"/>
			<point x="32" y="242" type="line"/>
			<point x="99" y="241"/>
			<point x="118" y="204"/>
			<point x="118" y="167" type="curve" smooth="yes"/>
			<point x="118" y="102"/>
			<point x="109" y="58"/>
			<point x="109" y="-14" type="curve" smooth="yes"/>
			<point x="109" y="-120"/>
			<point x="148" y="-152"/>
		</contour>
	</outline>
</glyph>
<glyph name="braceright" format="2">
	<unicode hex="007D"/>
	<advance width="326"/>
	<outline>
		<contour>
			<point x="39" y="-152" type="line"/>
			<point x="94" y="-152" type="line" smooth="yes"/>
			<point x="178" y="-152"/>
			<point x="217" y="-120"/>
			<point x="217" y="-14" type="curve" smooth="yes"/>
			<point x="217" y="58"/>
			<point x="208" y="102"/>
			<point x="208" y="167" type="curve" smooth="yes"/>
			<point x="208" y="204"/>
			<point x="227" y="241"/>
			<point x="294" y="242" type="curve"/>
			<point x="294" y="314" type="line"/>
			<point x="227" y="315"/>
			<point x="208" y="352"/>
			<point x="208" y="389" type="curve" smooth="yes"/>
			<point x="208" y="454"/>
			<point x="217" y="498"/>
			<point x="217" y="570" type="curve" smooth="yes"/>
			<point x="217" y="676"/>
			<point x="178" y="708"/>
			<point x="94" y="708" type="curve" smooth="yes"/>
			<point x="39" y="708" type="line"/>
			<point x="39" y="644" type="line"/>
			<point x="61" y="644" type="line" smooth="yes"/>
			<point x="108" y="644"/>
			<point x="121" y="624"/>
			<point x="121" y="564" type="curve" smooth="yes"/>
			<point x="121" y="508"/>
			<point x="117" y="457"/>
			<point x="117" y="393" type="curve" smooth="yes"/>
			<point x="117" y="322"/>
			<point x="137" y="292"/>
			<point x="184" y="280" type="curve"/>
			<point x="184" y="276" type="line"/>
			<point x="137" y="264"/>
			<point x="117" y="233"/>
			<point x="117" y="163" type="curve" smooth="yes"/>
			<point x="117" y="99"/>
			<point x="121" y="48"/>
			<point x="121" y="-8" type="curve" smooth="yes"/>
			<point x="121" y="-68"/>
			<point x="108" y="-88"/>
			<point x="61" y="-88" type="curve" smooth="yes"/>
			<point x="39" y="-88" type="line"/>
		</contour>
	</outline>
</glyph>
<glyph name="asciitilde" format="2">
	<unicode hex="007E"/>
	<advance width="514"/>
	<outline>
		<contour>
			<point x="343" y="248" type="curve" smooth="yes"/>
			<point x="390" y="248"/>
			<point x="439" y="275"/>
			<point x="482" y="344" type="curve"/>
			<point x="419" y="392" type="line"/>
			<point x="398" y="353"/>
			<point x="374" y="333"/>
			<point x="345" y="333" type="curve" smooth="yes"/>
			<point x="290" y="333"/>
			<point x="252" y="412"/>
			<point x="171" y="412" type="curve" smooth="yes"/>
			<point x="124" y="412"/>
			<point x="75" y="385"/>
			<point x="32" y="315" type="curve"/>
			<point x="95" y="268" type="line"/>
			<point x="117" y="307"/>
			<point x="141" y="327"/>
			<point x="169" y="327" type="curve" smooth="yes"/>
			<point x="224" y="327"/>
			<point x="262" y="248"/>
		</contour>
	</outline>
</glyph>
<glyph name="exclamdown" format="2">
	<unicode hex="00A1"/>
	<advance width="318"/>
	<outline>
		<contour>
			<point x="99" y="-178" type="line"/>
			<point x="218" y="-178" type="line"/>
			<point x="215" y="-63" type="line"/>
			<point x="198" y="275" type="line"/>
			<point x="119" y="275" type="line"/>
			<point x="103" y="-63" type="line"/>
		</contour>
		<contour>
			<point x="159" y="345" type="curve" smooth="yes"/>
			<point x="202" y="345"/>
			<point x="235" y="379"/>
			<point x="235" y="425" type="curve" smooth="yes"/>
			<point x="235" y="470"/>
			<point x="202" y="504"/>
			<point x="159" y="504" type="curve" smooth="yes"/>
			<point x="116" y="504"/>
			<point x="83" y="470"/>
			<point x="83" y="425" type="curve" smooth="yes"/>
			<point x="83" y="379"/>
			<point x="116" y="345"/>
		</contour>
	</outline>
</glyph>
<glyph name="cent" format="2">
	<unicode hex="00A2"/>
	<advance width="514"/>
	<outline>
		<contour>
			<point x="311" y="59" type="curve" smooth="yes"/>
			<point x="367" y="59"/>
			<point x="427" y="81"/>
			<point x="473" y="122" type="curve"/>
			<point x="424" y="197" type="line"/>
			<point x="397" y="175"/>
			<point x="364" y="155"/>
			<point x="323" y="155" type="curve" smooth="yes"/>
			<point x="231" y="155"/>
			<point x="176" y="216"/>
			<point x="176" y="308" type="curve" smooth="yes"/>
			<point x="176" y="401"/>
			<point x="231" y="461"/>
			<point x="327" y="461" type="curve" smooth="yes"/>
			<point x="357" y="461"/>
			<point x="383" y="449"/>
			<point x="409" y="426" type="curve"/>
			<point x="464" y="500" type="line"/>
			<point x="431" y="532"/>
			<point x="383" y="557"/>
			<point x="321" y="557" type="curve" smooth="yes"/>
			<point x="177" y="557"/>
			<point x="61" y="467"/>
			<point x="61" y="308" type="curve" smooth="yes"/>
			<point x="61" y="150"/>
			<point x="163" y="59"/>
		</contour>
		<contour>
			<point x="269" y="-37" type="line"/>
			<point x="337" y="-37" type="line"/>
			<point x="337" y="654" type="line"/>
			<point x="269" y="654" type="line"/>
		</contour>
	</outline>
</glyph>
<glyph name="sterling" format="2">
	<unicode hex="00A3"/>
	<advance width="514"/>
	<outline>
		<contour>
			<point x="51" y="0" type="line"/>
			<point x="478" y="0" type="line"/>
			<point x="478" y="100" type="line"/>
			<point x="209" y="100" type="line"/>
			<point x="209" y="104" type="line"/>
			<point x="244" y="143"/>
			<point x="261" y="179"/>
			<point x="261" y="237" type="curve" smooth="yes"/>
			<point x="261" y="315"/>
			<point x="225" y="379"/>
			<point x="225" y="447" type="curve" smooth="yes"/>
			<point x="225" y="511"/>
			<point x="261" y="552"/>
			<point x="324" y="552" type="curve" smooth="yes"/>
			<point x="363" y="552"/>
			<point x="390" y="537"/>
			<point x="415" y="507" type="curve"/>
			<point x="477" y="566" type="line"/>
			<point x="441" y="615"/>
			<point x="388" y="648"/>
			<point x="311" y="648" type="curve" smooth="yes"/>
			<point x="194" y="648"/>
			<point x="111" y="573"/>
			<point x="111" y="452" type="curve" smooth="yes"/>
			<point x="111" y="383"/>
			<point x="157" y="310"/>
			<point x="157" y="238" type="curve" smooth="yes"/>
			<point x="157" y="165"/>
			<point x="114" y="104"/>
			<point x="51" y="73" type="curve"/>
		</contour>
		<contour>
			<point x="53" y="277" type="line"/>
			<point x="394" y="277" type="line"/>
			<point x="394" y="353" type="line"/>
			<point x="120" y="353" type="line"/>
			<point x="53" y="348" type="line"/>
		</contour>
	</outline>
</glyph>
<glyph name="yen" format="2">
	<unicode hex="00A5"/>
	<advance width="513"/>
	<outline>
		<contour>
			<point x="198" y="0" type="line"/>
			<point x="314" y="0" type="line"/>
			<point x="314" y="144" type="line"/>
			<point x="472" y="144" type="line"/>
			<point x="472" y="212" type="line"/>
			<point x="314" y="212" type="line"/>
			<point x="314" y="270" type="line"/>
			<point x="472" y="270" type="line"/>
			<point x="472" y="338" type="line"/>
			<point x="340" y="338" type="line"/>
			<point x="495" y="636" type="line"/>
			<point x="379" y="636" type="line"/>
			<point x="315" y="485" type="line" smooth="yes"/>
			<point x="297" y="441"/>
			<point x="279" y="397"/>
			<point x="260" y="352" type="curve"/>
			<point x="256" y="352" type="line"/>
			<point x="236" y="397"/>
			<point x="219" y="441"/>
			<point x="201" y="485" type="curve" smooth="yes"/>
			<point x="137" y="636" type="line"/>
			<point x="18" y="636" type="line"/>
			<point x="172" y="338" type="line"/>
			<point x="40" y="338" type="line"/>
			<point x="40" y="270" type="line"/>
			<point x="198" y="270" type="line"/>
			<point x="198" y="212" type="line"/>
			<point x="40" y="212" type="line"/>
			<point x="40" y="144" type="line"/>
			<point x="198" y="144" type="line"/>
		</contour>
	</outline>
</glyph>
<glyph name="brokenbar" format="2">
	<unicode hex="00A6"/>
	<advance width="256"/>
	<outline>
		<contour>
			<point x="89" y="303" type="line"/>
			<point x="167" y="303" type="line"/>
			<point x="167" y="750" type="line"/>
			<point x="89" y="750" type="line"/>
		</contour>
		<contour>
			<point x="89" y="-250" type="line"/>
			<point x="167" y="-250" type="line"/>
			<point x="167" y="208" type="line"/>
			<point x="89" y="208" type="line"/>
		</contour>
	</outline>
</glyph>
<glyph name="section" format="2">
	<unicode hex="00A7"/>
	<advance width="514"/>
	<outline>
		<contour>
			<point x="238" y="-75" type="curve" smooth="yes"/>
			<point x="350" y="-75"/>
			<point x="416" y="-12"/>
			<point x="416" y="73" type="curve" smooth="yes"/>
			<point x="416" y="245"/>
			<point x="142" y="224"/>
			<point x="142" y="342" type="curve" smooth="yes"/>
			<point x="142" y="381"/>
			<point x="167" y="406"/>
			<point x="211" y="424" type="curve"/>
			<point x="154" y="477" type="line"/>
			<point x="88" y="451"/>
			<point x="41" y="397"/>
			<point x="41" y="334" type="curve" smooth="yes"/>
			<point x="41" y="147"/>
			<point x="309" y="162"/>
			<point x="309" y="68" type="curve" smooth="yes"/>
			<point x="309" y="37"/>
			<point x="285" y="14"/>
			<point x="238" y="14" type="curve" smooth="yes"/>
			<point x="193" y="14"/>
			<point x="156" y="32"/>
			<point x="123" y="65" type="curve"/>
			<point x="54" y="3" type="line"/>
			<point x="97" y="-48"/>
			<point x="166" y="-75"/>
		</contour>
		<contour>
			<point x="365" y="139" type="line"/>
			<point x="432" y="172"/>
			<point x="473" y="214"/>
			<point x="473" y="284" type="curve" smooth="yes"/>
			<point x="473" y="466"/>
			<point x="200" y="461"/>
			<point x="200" y="549" type="curve" smooth="yes"/>
			<point x="200" y="578"/>
			<point x="220" y="599"/>
			<point x="265" y="599" type="curve" smooth="yes"/>
			<point x="304" y="599"/>
			<point x="341" y="578"/>
			<point x="373" y="551" type="curve"/>
			<point x="428" y="626" type="line"/>
			<point x="388" y="657"/>
			<point x="330" y="687"/>
			<point x="259" y="687" type="curve" smooth="yes"/>
			<point x="152" y="687"/>
			<point x="93" y="625"/>
			<point x="93" y="544" type="curve" smooth="yes"/>
			<point x="93" y="374"/>
			<point x="373" y="397"/>
			<point x="373" y="275" type="curve" smooth="yes"/>
			<point x="373" y="231"/>
			<point x="348" y="210"/>
			<point x="299" y="191" type="curve"/>
		</contour>
	</outline>
</glyph>
<glyph name="copyright" format="2">
	<unicode hex="00A9"/>
	<advance width="747"/>
	<outline>
		<contour>
			<point x="374" y="-10" type="curve" smooth="yes"/>
			<point x="549" y="-10"/>
			<point x="700" y="119"/>
			<point x="700" y="324" type="curve" smooth="yes"/>
			<point x="700" y="529"/>
			<point x="549" y="654"/>
			<point x="374" y="654" type="curve" smooth="yes"/>
			<point x="198" y="654"/>
			<point x="47" y="529"/>
			<point x="47" y="324" type="curve" smooth="yes"/>
			<point x="47" y="119"/>
			<point x="198" y="-10"/>
		</contour>
		<contour>
			<point x="374" y="43" type="curve" smooth="yes"/>
			<point x="225" y="43"/>
			<point x="106" y="155"/>
			<point x="106" y="324" type="curve" smooth="yes"/>
			<point x="106" y="493"/>
			<point x="225" y="602"/>
			<point x="374" y="602" type="curve" smooth="yes"/>
			<point x="523" y="602"/>
			<point x="642" y="493"/>
			<point x="642" y="324" type="curve" smooth="yes"/>
			<point x="642" y="155"/>
			<point x="523" y="43"/>
		</contour>
		<contour>
			<point x="384" y="126" type="curve" smooth="yes"/>
			<point x="439" y="126"/>
			<point x="480" y="148"/>
			<point x="516" y="181" type="curve"/>
			<point x="476" y="236" type="line"/>
			<point x="449" y="213"/>
			<point x="427" y="199"/>
			<point x="387" y="199" type="curve" smooth="yes"/>
			<point x="324" y="199"/>
			<point x="284" y="245"/>
			<point x="284" y="319" type="curve" smooth="yes"/>
			<point x="284" y="390"/>
			<point x="325" y="442"/>
			<point x="392" y="442" type="curve" smooth="yes"/>
			<point x="422" y="442"/>
			<point x="447" y="428"/>
			<point x="468" y="405" type="curve"/>
			<point x="515" y="455" type="line"/>
			<point x="484" y="488"/>
			<point x="444" y="514"/>
			<point x="385" y="514" type="curve" smooth="yes"/>
			<point x="286" y="514"/>
			<point x="196" y="439"/>
			<point x="196" y="319" type="curve" smooth="yes"/>
			<point x="196" y="199"/>
			<point x="276" y="126"/>
		</contour>
	</outline>
</glyph>
<glyph name="logicalnot" format="2">
	<unicode hex="00AC"/>
	<advance width="514"/>
	<outline>
		<contour>
			<point x="391" y="98" type="line"/>
			<point x="480" y="98" type="line"/>
			<point x="480" y="373" type="line"/>
			<point x="34" y="373" type="line"/>
			<point x="34" y="287" type="line"/>
			<point x="391" y="287" type="line"/>
		</contour>
	</outline>
</glyph>
<glyph name="registered" format="2">
	<unicode hex="00AE"/>
	<advance width="445"/>
	<outline>
		<contour>
			<point x="222" y="315" type="curve" smooth="yes"/>
			<point x="329" y="315"/>
			<point x="416" y="397"/>
			<point x="416" y="514" type="curve" smooth="yes"/>
			<point x="416" y="632"/>
			<point x="329" y="714"/>
			<point x="222" y="714" type="curve" smooth="yes"/>
			<point x="115" y="714"/>
			<point x="28" y="632"/>
			<point x="28" y="514" type="curve" smooth="yes"/>
			<point x="28" y="397"/>
			<point x="115" y="315"/>
		</contour>
		<contour>
			<point x="222" y="358" type="curve" smooth="yes"/>
			<point x="138" y="358"/>
			<point x="76" y="421"/>
			<point x="76" y="514" type="curve" smooth="yes"/>
			<point x="76" y="608"/>
			<point x="138" y="671"/>
			<point x="222" y="671" type="curve" smooth="yes"/>
			<point x="306" y="671"/>
			<point x="368" y="608"/>
			<point x="368" y="514" type="curve" smooth="yes"/>
			<point x="368" y="421"/>
			<point x="306" y="358"/>
		</contour>
		<contour>
			<point x="145" y="417" type="line"/>
			<point x="195" y="417" type="line"/>
			<point x="195" y="481" type="line"/>
			<point x="229" y="481" type="line"/>
			<point x="262" y="417" type="line"/>
			<point x="316" y="417" type="line"/>
			<point x="272" y="496" type="line"/>
			<point x="295" y="506"/>
			<point x="308" y="527"/>
			<point x="308" y="551" type="curve" smooth="yes"/>
			<point x="308" y="597"/>
			<point x="273" y="616"/>
			<point x="228" y="616" type="curve" smooth="yes"/>
			<point x="145" y="616" type="line"/>
		</contour>
		<contour>
			<point x="195" y="518" type="line"/>
			<point x="195" y="577" type="line"/>
			<point x="219" y="577" type="line" smooth="yes"/>
			<point x="244" y="577"/>
			<point x="254" y="565"/>
			<point x="254" y="548" type="curve" smooth="yes"/>
			<point x="254" y="530"/>
			<point x="241" y="518"/>
			<point x="218" y="518" type="curve" smooth="yes"/>
		</contour>
	</outline>
</glyph>
<glyph name="macron" format="1">
	<unicode hex="00AF"/>
	<advance width="549"/>
	<outline>
		<component base="macroncmb" xOffset="274"/>
		<contour>
			<point name="_aboveLC" x="274" y="514" type="move"/>
		</contour>
	</outline>
</glyph>
<glyph name="degree" format="2">
	<unicode hex="00B0"/>
	<advance width="350"/>
	<outline>
		<contour>
			<point x="176" y="412" type="curve" smooth="yes"/>
			<point x="250" y="412"/>
			<point x="312" y="467"/>
			<point x="312" y="548" type="curve" smooth="yes"/>
			<point x="312" y="630"/>
			<point x="250" y="685"/>
			<point x="176" y="685" type="curve" smooth="yes"/>
			<point x="101" y="685"/>
			<point x="40" y="630"/>
			<point x="40" y="548" type="curve" smooth="yes"/>
			<point x="40" y="467"/>
			<point x="101" y="412"/>
		</contour>
		<contour>
			<point x="176" y="471" type="curve" smooth="yes"/>
			<point x="134" y="471"/>
			<point x="105" y="503"/>
			<point x="105" y="548" type="curve" smooth="yes"/>
			<point x="105" y="594"/>
			<point x="134" y="626"/>
			<point x="176" y="626" type="curve" smooth="yes"/>
			<point x="217" y="626"/>
			<point x="246" y="594"/>
			<point x="246" y="548" type="curve" smooth="yes"/>
			<point x="246" y="503"/>
			<point x="217" y="471"/>
		</contour>
	</outline>
</glyph>
<glyph name="plusminus" format="2">
	<unicode hex="00B1"/>
	<advance width="514"/>
	<outline>
		<contour>
			<point x="213" y="144" type="line"/>
			<point x="302" y="144" type="line"/>
			<point x="302" y="298" type="line"/>
			<point x="480" y="298" type="line"/>
			<point x="480" y="383" type="line"/>
			<point x="302" y="383" type="line"/>
			<point x="302" y="562" type="line"/>
			<point x="213" y="562" type="line"/>
			<point x="213" y="383" type="line"/>
			<point x="34" y="383" type="line"/>
			<point x="34" y="298" type="line"/>
			<point x="213" y="298" type="line"/>
		</contour>
		<contour>
			<point x="34" y="0" type="line"/>
			<point x="480" y="0" type="line"/>
			<point x="480" y="85" type="line"/>
			<point x="34" y="85" type="line"/>
		</contour>
	</outline>
</glyph>
<glyph name="mu" format="2">
	<unicode hex="00B5"/>
	<unicode hex="03BC"/>
	<advance width="578"/>
	<outline>
		<contour>
			<point x="73" y="-178" type="line"/>
			<point x="190" y="-178" type="line"/>
			<point x="183" y="-105"/>
			<point x="182" y="-58"/>
			<point x="181" y="26" type="curve"/>
			<point x="200" y="-2"/>
			<point x="227" y="-8"/>
			<point x="259" y="-8" type="curve" smooth="yes"/>
			<point x="307" y="-8"/>
			<point x="349" y="20"/>
			<point x="378" y="76" type="curve"/>
			<point x="382" y="76" type="line"/>
			<point x="393" y="18"/>
			<point x="428" y="-10"/>
			<point x="490" y="-10" type="curve" smooth="yes"/>
			<point x="524" y="-10"/>
			<point x="544" y="-4"/>
			<point x="563" y="4" type="curve"/>
			<point x="548" y="90" type="line"/>
			<point x="538" y="86"/>
			<point x="527" y="84"/>
			<point x="518" y="84" type="curve" smooth="yes"/>
			<point x="494" y="84"/>
			<point x="478" y="94"/>
			<point x="478" y="124" type="curve" smooth="yes"/>
			<point x="478" y="223"/>
			<point x="483" y="368"/>
			<point x="486" y="491" type="curve"/>
			<point x="370" y="491" type="line"/>
			<point x="370" y="166" type="line"/>
			<point x="334" y="103"/>
			<point x="302" y="87"/>
			<point x="263" y="87" type="curve" smooth="yes"/>
			<point x="211" y="87"/>
			<point x="188" y="120"/>
			<point x="188" y="198" type="curve" smooth="yes"/>
			<point x="188" y="491" type="line"/>
			<point x="73" y="491" type="line"/>
		</contour>
	</outline>
</glyph>
<glyph name="paragraph" format="2">
	<unicode hex="00B6"/>
	<advance width="602"/>
	<outline>
		<contour>
			<point x="387" y="-80" type="line"/>
			<point x="506" y="-80" type="line"/>
			<point x="506" y="654" type="line"/>
			<point x="387" y="654" type="line"/>
		</contour>
		<contour>
			<point x="295" y="210" type="curve" smooth="yes"/>
			<point x="332" y="210" type="line"/>
			<point x="332" y="654" type="line"/>
			<point x="288" y="654" type="line" smooth="yes"/>
			<point x="150" y="654"/>
			<point x="40" y="598"/>
			<point x="40" y="435" type="curve" smooth="yes"/>
			<point x="40" y="283"/>
			<point x="152" y="210"/>
		</contour>
	</outline>
</glyph>
<glyph name="questiondown" format="2">
	<unicode hex="00BF"/>
	<advance width="446"/>
	<outline>
		<contour>
			<point x="224" y="-190" type="curve" smooth="yes"/>
			<point x="300" y="-190"/>
			<point x="361" y="-154"/>
			<point x="406" y="-103" type="curve"/>
			<point x="340" y="-43" type="line"/>
			<point x="311" y="-74"/>
			<point x="279" y="-94"/>
			<point x="239" y="-94" type="curve" smooth="yes"/>
			<point x="188" y="-94"/>
			<point x="159" y="-63"/>
			<point x="159" y="-16" type="curve" smooth="yes"/>
			<point x="159" y="73"/>
			<point x="310" y="130"/>
			<point x="290" y="275" type="curve"/>
			<point x="186" y="275" type="line"/>
			<point x="200" y="147"/>
			<point x="45" y="103"/>
			<point x="45" y="-24" type="curve" smooth="yes"/>
			<point x="45" y="-134"/>
			<point x="120" y="-190"/>
		</contour>
		<contour>
			<point x="237" y="345" type="curve" smooth="yes"/>
			<point x="280" y="345"/>
			<point x="313" y="379"/>
			<point x="313" y="425" type="curve" smooth="yes"/>
			<point x="313" y="470"/>
			<point x="280" y="504"/>
			<point x="237" y="504" type="curve" smooth="yes"/>
			<point x="194" y="504"/>
			<point x="161" y="470"/>
			<point x="161" y="425" type="curve" smooth="yes"/>
			<point x="161" y="379"/>
			<point x="194" y="345"/>
		</contour>
	</outline>
</glyph>
<glyph name="AE" format="2">
	<unicode hex="00C6"/>
	<advance width="835"/>
	<outline>
		<contour>
			<point x="-4" y="0" type="line"/>
			<point x="121" y="0" type="line"/>
			<point x="297" y="365" type="line"/>
			<point x="328" y="428"/>
			<point x="358" y="496"/>
			<point x="389" y="563" type="curve"/>
			<point x="393" y="563" type="line"/>
			<point x="393" y="0" type="line"/>
			<point x="784" y="0" type="line"/>
			<point x="784" y="100" type="line"/>
			<point x="512" y="100" type="line"/>
			<point x="512" y="290" type="line"/>
			<point x="732" y="290" type="line"/>
			<point x="732" y="390" type="line"/>
			<point x="512" y="390" type="line"/>
			<point x="512" y="554" type="line"/>
			<point x="774" y="554" type="line"/>
			<point x="774" y="654" type="line"/>
			<point x="321" y="654" type="line"/>
		</contour>
		<contour>
			<point x="147" y="168" type="line"/>
			<point x="458" y="168" type="line"/>
			<point x="458" y="261" type="line"/>
			<point x="147" y="261" type="line"/>
		</contour>
	</outline>
	<anchor name="aboveUC" x="549" y="676"/>
</glyph>
<glyph name="Eth" format="1">
	<unicode hex="00D0"/>
	<advance width="649"/>
	<outline>
		<contour>
			<point x="30" y="311" type="line"/>
			<point x="360" y="311" type="line"/>
			<point x="360" y="370" type="line"/>
			<point x="109" y="370" type="line"/>
			<point x="30" y="366" type="line"/>
		</contour>
		<component base="D" xOffset="24"/>
	</outline>
</glyph>
<glyph name="multiply" format="2">
	<unicode hex="00D7"/>
	<advance width="514"/>
	<outline>
		<contour>
			<point x="109" y="118" type="line"/>
			<point x="257" y="269" type="line"/>
			<point x="405" y="118" type="line"/>
			<point x="465" y="179" type="line"/>
			<point x="317" y="329" type="line"/>
			<point x="465" y="480" type="line"/>
			<point x="405" y="541" type="line"/>
			<point x="257" y="390" type="line"/>
			<point x="109" y="541" type="line"/>
			<point x="49" y="480" type="line"/>
			<point x="197" y="329" type="line"/>
			<point x="49" y="179" type="line"/>
		</contour>
	</outline>
</glyph>
<glyph name="Thorn" format="2">
	<unicode hex="00DE"/>
	<advance width="602"/>
	<outline>
		<contour>
			<point x="83" y="0" type="line"/>
			<point x="202" y="0" type="line"/>
			<point x="202" y="135" type="line"/>
			<point x="304" y="135" type="line" smooth="yes"/>
			<point x="445" y="135"/>
			<point x="554" y="201"/>
			<point x="554" y="348" type="curve" smooth="yes"/>
			<point x="554" y="499"/>
			<point x="447" y="550"/>
			<point x="304" y="550" type="curve" smooth="yes"/>
			<point x="202" y="550" type="line"/>
			<point x="202" y="654" type="line"/>
			<point x="83" y="654" type="line"/>
		</contour>
		<contour>
			<point x="202" y="230" type="line"/>
			<point x="202" y="455" type="line"/>
			<point x="295" y="455" type="line" smooth="yes"/>
			<point x="388" y="455"/>
			<point x="436" y="428"/>
			<point x="436" y="348" type="curve" smooth="yes"/>
			<point x="436" y="268"/>
			<point x="391" y="230"/>
			<point x="295" y="230" type="curve" smooth="yes"/>
		</contour>
	</outline>
</glyph>
<glyph name="germandbls" format="2">
	<unicode hex="00DF"/>
	<advance width="607"/>
	<outline>
		<contour>
			<point x="406" y="-12" type="curve" smooth="yes"/>
			<point x="517" y="-12"/>
			<point x="580" y="57"/>
			<point x="580" y="145" type="curve" smooth="yes"/>
			<point x="580" y="303"/>
			<point x="407" y="291"/>
			<point x="407" y="371" type="curve" smooth="yes"/>
			<point x="407" y="430"/>
			<point x="497" y="461"/>
			<point x="497" y="559" type="curve" smooth="yes"/>
			<point x="497" y="641"/>
			<point x="426" y="716"/>
			<point x="302" y="716" type="curve" smooth="yes"/>
			<point x="154" y="716"/>
			<point x="72" y="626"/>
			<point x="72" y="499" type="curve" smooth="yes"/>
			<point x="72" y="0" type="line"/>
			<point x="189" y="0" type="line"/>
			<point x="189" y="483" type="line" smooth="yes"/>
			<point x="189" y="572"/>
			<point x="233" y="622"/>
			<point x="301" y="622" type="curve" smooth="yes"/>
			<point x="350" y="622"/>
			<point x="383" y="589"/>
			<point x="383" y="545" type="curve" smooth="yes"/>
			<point x="383" y="467"/>
			<point x="298" y="439"/>
			<point x="298" y="356" type="curve" smooth="yes"/>
			<point x="298" y="221"/>
			<point x="470" y="233"/>
			<point x="470" y="139" type="curve" smooth="yes"/>
			<point x="470" y="105"/>
			<point x="446" y="77"/>
			<point x="402" y="77" type="curve" smooth="yes"/>
			<point x="368" y="77"/>
			<point x="336" y="88"/>
			<point x="302" y="115" type="curve"/>
			<point x="260" y="35" type="line"/>
			<point x="304" y="4"/>
			<point x="349" y="-12"/>
		</contour>
	</outline>
</glyph>
<glyph name="ae" format="1">
	<unicode hex="00E6"/>
	<advance width="785"/>
	<outline>
		<contour>
			<point x="198" y="-12" type="curve" smooth="yes"/>
			<point x="262" y="-12"/>
			<point x="324" y="14"/>
			<point x="392" y="72" type="curve"/>
			<point x="431" y="25"/>
			<point x="486" y="-12"/>
			<point x="563" y="-12" type="curve"/>
			<point x="625" y="-12"/>
			<point x="683" y="10"/>
			<point x="730" y="41" type="curve"/>
			<point x="689" y="118" type="line"/>
			<point x="653" y="95"/>
			<point x="620" y="80"/>
			<point x="578" y="80" type="curve" smooth="yes"/>
			<point x="507" y="80"/>
			<point x="451" y="129"/>
			<point x="443" y="214" type="curve"/>
			<point x="743" y="214" type="line"/>
			<point x="746" y="226"/>
			<point x="748" y="246"/>
			<point x="748" y="268" type="curve" smooth="yes"/>
			<point x="748" y="405"/>
			<point x="682" y="503"/>
			<point x="557" y="503" type="curve"/>
			<point x="494" y="503"/>
			<point x="444" y="470"/>
			<point x="404" y="414" type="curve"/>
			<point x="379" y="469"/>
			<point x="332" y="503"/>
			<point x="265" y="503" type="curve" smooth="yes"/>
			<point x="193" y="503"/>
			<point x="126" y="473"/>
			<point x="72" y="439" type="curve"/>
			<point x="114" y="362" type="line"/>
			<point x="157" y="388"/>
			<point x="203" y="410"/>
			<point x="250" y="410" type="curve" smooth="yes"/>
			<point x="317" y="410"/>
			<point x="336" y="366"/>
			<point x="338" y="314" type="curve"/>
			<point x="139" y="293"/>
			<point x="52" y="237"/>
			<point x="52" y="132" type="curve" smooth="yes"/>
			<point x="52" y="46"/>
			<point x="112" y="-12"/>
		</contour>
		<contour>
			<point x="234" y="78" type="curve" smooth="yes"/>
			<point x="193" y="78"/>
			<point x="164" y="97"/>
			<point x="164" y="141" type="curve" smooth="yes"/>
			<point x="164" y="191"/>
			<point x="211" y="225"/>
			<point x="336" y="242" type="curve"/>
			<point x="338" y="219" type="line" smooth="yes"/>
			<point x="339" y="190"/>
			<point x="344" y="159"/>
			<point x="354" y="136" type="curve"/>
			<point x="318" y="100"/>
			<point x="273" y="78"/>
		</contour>
		<contour>
			<point x="443" y="287" type="line"/>
			<point x="452" y="368"/>
			<point x="497" y="414"/>
			<point x="553" y="414" type="curve" smooth="yes"/>
			<point x="617" y="414"/>
			<point x="649" y="366"/>
			<point x="649" y="287" type="curve"/>
		</contour>
		<contour>
			<point name="aboveLC" x="412" y="514" type="move"/>
		</contour>
		<contour>
			<point name="belowLC" x="414" y="-22" type="move"/>
		</contour>
	</outline>
</glyph>
<glyph name="eth" format="2">
	<unicode hex="00F0"/>
	<advance width="553"/>
	<outline>
		<contour>
			<point x="271" y="-12" type="curve" smooth="yes"/>
			<point x="411" y="-12"/>
			<point x="499" y="101"/>
			<point x="499" y="262" type="curve" smooth="yes"/>
			<point x="499" y="520"/>
			<point x="340" y="650"/>
			<point x="175" y="736" type="curve"/>
			<point x="124" y="663" type="line"/>
			<point x="290" y="574"/>
			<point x="387" y="475"/>
			<point x="387" y="256" type="curve" smooth="yes"/>
			<point x="387" y="147"/>
			<point x="346" y="84"/>
			<point x="275" y="84" type="curve" smooth="yes"/>
			<point x="211" y="84"/>
			<point x="156" y="137"/>
			<point x="156" y="225" type="curve" smooth="yes"/>
			<point x="156" y="311"/>
			<point x="201" y="362"/>
			<point x="274" y="362" type="curve" smooth="yes"/>
			<point x="315" y="362"/>
			<point x="354" y="349"/>
			<point x="392" y="298" type="curve"/>
			<point x="391" y="366" type="line"/>
			<point x="362" y="427"/>
			<point x="307" y="451"/>
			<point x="251" y="451" type="curve" smooth="yes"/>
			<point x="142" y="451"/>
			<point x="47" y="365"/>
			<point x="47" y="225" type="curve" smooth="yes"/>
			<point x="47" y="79"/>
			<point x="152" y="-12"/>
		</contour>
		<contour>
			<point x="133" y="486" type="line"/>
			<point x="488" y="666" type="line"/>
			<point x="456" y="720" type="line"/>
			<point x="102" y="540" type="line"/>
		</contour>
	</outline>
	<anchor name="aboveUC" x="295" y="724"/>
	<anchor name="belowLC" x="270" y="-22"/>
</glyph>
<glyph name="divide" format="2">
	<unicode hex="00F7"/>
	<advance width="514"/>
	<outline>
		<contour>
			<point x="34" y="287" type="line"/>
			<point x="480" y="287" type="line"/>
			<point x="480" y="373" type="line"/>
			<point x="34" y="373" type="line"/>
		</contour>
		<contour>
			<point x="257" y="83" type="curve" smooth="yes"/>
			<point x="296" y="83"/>
			<point x="326" y="111"/>
			<point x="326" y="150" type="curve" smooth="yes"/>
			<point x="326" y="189"/>
			<point x="296" y="216"/>
			<point x="257" y="216" type="curve" smooth="yes"/>
			<point x="218" y="216"/>
			<point x="188" y="189"/>
			<point x="188" y="150" type="curve" smooth="yes"/>
			<point x="188" y="111"/>
			<point x="218" y="83"/>
		</contour>
		<contour>
			<point x="257" y="443" type="curve" smooth="yes"/>
			<point x="296" y="443"/>
			<point x="326" y="471"/>
			<point x="326" y="510" type="curve" smooth="yes"/>
			<point x="326" y="549"/>
			<point x="296" y="576"/>
			<point x="257" y="576" type="curve" smooth="yes"/>
			<point x="218" y="576"/>
			<point x="188" y="549"/>
			<point x="188" y="510" type="curve" smooth="yes"/>
			<point x="188" y="471"/>
			<point x="218" y="443"/>
		</contour>
	</outline>
</glyph>
<glyph name="oslash" format="2">
	<unicode hex="00F8"/>
	<advance width="549"/>
	<outline>
		<contour>
			<point x="274" y="-12" type="curve" smooth="yes"/>
			<point x="397" y="-12"/>
			<point x="508" y="82"/>
			<point x="508" y="245" type="curve" smooth="yes"/>
			<point x="508" y="409"/>
			<point x="397" y="503"/>
			<point x="274" y="503" type="curve" smooth="yes"/>
			<point x="152" y="503"/>
			<point x="41" y="409"/>
			<point x="41" y="245" type="curve" smooth="yes"/>
			<point x="41" y="82"/>
			<point x="152" y="-12"/>
		</contour>
		<contour>
			<point x="274" y="78" type="curve" smooth="yes"/>
			<point x="201" y="78"/>
			<point x="153" y="140"/>
			<point x="153" y="251" type="curve" smooth="yes"/>
			<point x="153" y="347"/>
			<point x="202" y="413"/>
			<point x="274" y="413" type="curve" smooth="yes"/>
			<point x="348" y="413"/>
			<point x="396" y="351"/>
			<point x="396" y="239" type="curve" smooth="yes"/>
			<point x="396" y="143"/>
			<point x="346" y="78"/>
		</contour>
		<contour>
			<point x="92" y="-24" type="line"/>
			<point x="503" y="480" type="line"/>
			<point x="457" y="516" type="line"/>
			<point x="46" y="12" type="line"/>
		</contour>
	</outline>
	<anchor name="aboveLC" x="274" y="514"/>
	<anchor name="belowLC" x="274" y="-22"/>
</glyph>
<glyph name="thorn" format="2">
	<unicode hex="00FE"/>
	<advance width="565"/>
	<outline>
		<contour>
			<point x="72" y="-193" type="line"/>
			<point x="191" y="-193" type="line"/>
			<point x="191" y="-40" type="line"/>
			<point x="188" y="38" type="line"/>
			<point x="226" y="6"/>
			<point x="265" y="-12"/>
			<point x="313" y="-12" type="curve" smooth="yes"/>
			<point x="422" y="-12"/>
			<point x="522" y="85"/>
			<point x="522" y="253" type="curve" smooth="yes"/>
			<point x="522" y="405"/>
			<point x="449" y="504"/>
			<point x="323" y="504" type="curve" smooth="yes"/>
			<point x="274" y="504"/>
			<point x="226" y="480"/>
			<point x="188" y="448" type="curve"/>
			<point x="191" y="525" type="line"/>
			<point x="191" y="706" type="line"/>
			<point x="72" y="706" type="line"/>
		</contour>
		<contour>
			<point x="287" y="86" type="curve" smooth="yes"/>
			<point x="259" y="86"/>
			<point x="225" y="96"/>
			<point x="191" y="125" type="curve"/>
			<point x="191" y="352" type="line"/>
			<point x="228" y="389"/>
			<point x="261" y="406"/>
			<point x="296" y="406" type="curve" smooth="yes"/>
			<point x="369" y="406"/>
			<point x="401" y="349"/>
			<point x="401" y="252" type="curve" smooth="yes"/>
			<point x="401" y="142"/>
			<point x="351" y="86"/>
		</contour>
	</outline>
	<anchor name="aboveUC" x="199" y="724"/>
	<anchor name="belowLC" x="139" y="-206"/>
</glyph>
<glyph name="Aogonek" format="2">
	<unicode hex="0104"/>
	<advance width="560"/>
	<outline>
		<contour>
			<point x="494" y="-218" type="curve" smooth="yes"/>
			<point x="525" y="-218"/>
			<point x="565" y="-204"/>
			<point x="588" y="-186" type="curve"/>
			<point x="559" y="-125" type="line"/>
			<point x="547" y="-134"/>
			<point x="535" y="-139"/>
			<point x="517" y="-139" type="curve" smooth="yes"/>
			<point x="496" y="-139"/>
			<point x="477" y="-125"/>
			<point x="477" y="-98" type="curve" smooth="yes"/>
			<point x="477" y="-57"/>
			<point x="511" y="-11"/>
			<point x="562" y="0" type="curve"/>
			<point x="350" y="654" type="line"/>
			<point x="210" y="654" type="line"/>
			<point x="-2" y="0" type="line"/>
			<point x="119" y="0" type="line"/>
			<point x="218" y="346" type="line" smooth="yes"/>
			<point x="239" y="415"/>
			<point x="258" y="489"/>
			<point x="275" y="561" type="curve"/>
			<point x="279" y="561" type="line"/>
			<point x="298" y="490"/>
			<point x="317" y="415"/>
			<point x="338" y="346" type="curve" smooth="yes"/>
			<point x="436" y="0" type="line"/>
			<point x="467" y="0" type="line"/>
			<point x="433" y="-20"/>
			<point x="388" y="-68"/>
			<point x="388" y="-127" type="curve" smooth="yes"/>
			<point x="388" y="-186"/>
			<point x="435" y="-218"/>
		</contour>
		<contour>
			<point x="124" y="175" type="line"/>
			<point x="433" y="175" type="line"/>
			<point x="433" y="268" type="line"/>
			<point x="124" y="268" type="line"/>
		</contour>
	</outline>
	<anchor name="aboveUC" x="279" y="676"/>
</glyph>
<glyph name="aogonek" format="2">
	<unicode hex="0105"/>
	<advance width="516"/>
	<outline>
		<contour>
			<point x="395" y="-217" type="curve" smooth="yes"/>
			<point x="430" y="-217"/>
			<point x="468" y="-203"/>
			<point x="492" y="-184" type="curve"/>
			<point x="466" y="-123" type="line"/>
			<point x="452" y="-132"/>
			<point x="437" y="-138"/>
			<point x="417" y="-138" type="curve" smooth="yes"/>
			<point x="394" y="-138"/>
			<point x="371" y="-125"/>
			<point x="371" y="-95" type="curve" smooth="yes"/>
			<point x="371" y="-61"/>
			<point x="397" y="-20"/>
			<point x="451" y="0" type="curve"/>
			<point x="451" y="291" type="line" smooth="yes"/>
			<point x="451" y="428"/>
			<point x="390" y="503"/>
			<point x="268" y="503" type="curve" smooth="yes"/>
			<point x="190" y="503"/>
			<point x="120" y="474"/>
			<point x="66" y="439" type="curve"/>
			<point x="108" y="364" type="line"/>
			<point x="152" y="390"/>
			<point x="198" y="410"/>
			<point x="246" y="410" type="curve" smooth="yes"/>
			<point x="313" y="410"/>
			<point x="334" y="366"/>
			<point x="336" y="314" type="curve"/>
			<point x="134" y="292"/>
			<point x="47" y="237"/>
			<point x="47" y="132" type="curve" smooth="yes"/>
			<point x="47" y="46"/>
			<point x="106" y="-12"/>
			<point x="192" y="-12" type="curve" smooth="yes"/>
			<point x="250" y="-12"/>
			<point x="300" y="17"/>
			<point x="344" y="54" type="curve"/>
			<point x="348" y="54" type="line"/>
			<point x="358" y="1" type="line"/>
			<point x="325" y="-20"/>
			<point x="285" y="-65"/>
			<point x="285" y="-120" type="curve" smooth="yes"/>
			<point x="285" y="-186"/>
			<point x="334" y="-217"/>
		</contour>
		<contour>
			<point x="229" y="78" type="curve" smooth="yes"/>
			<point x="188" y="78"/>
			<point x="158" y="97"/>
			<point x="158" y="141" type="curve" smooth="yes"/>
			<point x="158" y="190"/>
			<point x="202" y="225"/>
			<point x="336" y="242" type="curve"/>
			<point x="336" y="132" type="line"/>
			<point x="299" y="98"/>
			<point x="269" y="78"/>
		</contour>
	</outline>
	<anchor name="aboveLC" x="272" y="514"/>
</glyph>
<glyph name="dcroat" format="2">
	<unicode hex="0111"/>
	<advance width="564"/>
	<outline>
		<contour>
			<point x="245" y="-12" type="curve" smooth="yes"/>
			<point x="299" y="-12"/>
			<point x="347" y="14"/>
			<point x="383" y="50" type="curve"/>
			<point x="386" y="50" type="line"/>
			<point x="394" y="0" type="line"/>
			<point x="491" y="0" type="line"/>
			<point x="491" y="706" type="line"/>
			<point x="376" y="706" type="line"/>
			<point x="376" y="486" type="line"/>
			<point x="380" y="406" type="line"/>
			<point x="342" y="440"/>
			<point x="307" y="460"/>
			<point x="251" y="460" type="curve" smooth="yes"/>
			<point x="144" y="460"/>
			<point x="43" y="367"/>
			<point x="43" y="224" type="curve" smooth="yes"/>
			<point x="43" y="78"/>
			<point x="122" y="-12"/>
		</contour>
		<contour>
			<point x="273" y="83" type="curve" smooth="yes"/>
			<point x="202" y="83"/>
			<point x="162" y="136"/>
			<point x="162" y="226" type="curve" smooth="yes"/>
			<point x="162" y="311"/>
			<point x="213" y="365"/>
			<point x="276" y="365" type="curve" smooth="yes"/>
			<point x="309" y="365"/>
			<point x="341" y="354"/>
			<point x="376" y="323" type="curve"/>
			<point x="376" y="138" type="line"/>
			<point x="343" y="100"/>
			<point x="311" y="83"/>
		</contour>
		<contour>
			<point x="200" y="544" type="line"/>
			<point x="485" y="544" type="line"/>
			<point x="561" y="550" type="line"/>
			<point x="561" y="623" type="line"/>
			<point x="200" y="623" type="line"/>
		</contour>
	</outline>
</glyph>
<glyph name="Eogonek" format="2">
	<unicode hex="0118"/>
	<advance width="539"/>
	<outline>
		<contour>
			<point x="410" y="-223" type="curve" smooth="yes"/>
			<point x="446" y="-223"/>
			<point x="487" y="-207"/>
			<point x="512" y="-188" type="curve"/>
			<point x="483" y="-121" type="line"/>
			<point x="470" y="-130"/>
			<point x="454" y="-138"/>
			<point x="435" y="-138" type="curve" smooth="yes"/>
			<point x="408" y="-138"/>
			<point x="387" y="-125"/>
			<point x="387" y="-94" type="curve" smooth="yes"/>
			<point x="387" y="-50"/>
			<point x="436" y="0"/>
			<point x="478" y="0" type="curve" smooth="yes"/>
			<point x="488" y="0" type="line"/>
			<point x="488" y="100" type="line"/>
			<point x="202" y="100" type="line"/>
			<point x="202" y="290" type="line"/>
			<point x="436" y="290" type="line"/>
			<point x="436" y="390" type="line"/>
			<point x="202" y="390" type="line"/>
			<point x="202" y="554" type="line"/>
			<point x="478" y="554" type="line"/>
			<point x="478" y="654" type="line"/>
			<point x="83" y="654" type="line"/>
			<point x="83" y="0" type="line"/>
			<point x="372" y="0" type="line"/>
			<point x="333" y="-23"/>
			<point x="292" y="-69"/>
			<point x="292" y="-127" type="curve" smooth="yes"/>
			<point x="292" y="-189"/>
			<point x="344" y="-223"/>
		</contour>
	</outline>
	<anchor name="aboveUC" x="290" y="676"/>
</glyph>
<glyph name="Hbar" format="2">
	<unicode hex="0126"/>
	<advance width="700"/>
	<outline>
		<contour>
			<point x="28" y="476" type="line"/>
			<point x="672" y="476" type="line"/>
			<point x="672" y="562" type="line"/>
			<point x="107" y="562" type="line"/>
			<point x="28" y="556" type="line"/>
		</contour>
		<component base="H" xOffset="20"/>
	</outline>
</glyph>
<glyph name="hbar" format="2">
	<unicode hex="0127"/>
	<advance width="558"/>
	<outline>
		<contour>
			<point x="73" y="0" type="line"/>
			<point x="188" y="0" type="line"/>
			<point x="188" y="300" type="line"/>
			<point x="229" y="340"/>
			<point x="257" y="362"/>
			<point x="300" y="362" type="curve" smooth="yes"/>
			<point x="354" y="362"/>
			<point x="377" y="331"/>
			<point x="377" y="250" type="curve" smooth="yes"/>
			<point x="377" y="0" type="line"/>
			<point x="492" y="0" type="line"/>
			<point x="492" y="265" type="line" smooth="yes"/>
			<point x="492" y="389"/>
			<point x="446" y="460"/>
			<point x="341" y="460" type="curve" smooth="yes"/>
			<point x="274" y="460"/>
			<point x="225" y="425"/>
			<point x="184" y="386" type="curve"/>
			<point x="188" y="481" type="line"/>
			<point x="188" y="706" type="line"/>
			<point x="73" y="706" type="line"/>
		</contour>
		<contour>
			<point x="2" y="544" type="line"/>
			<point x="364" y="544" type="line"/>
			<point x="364" y="623" type="line"/>
			<point x="79" y="623" type="line"/>
			<point x="2" y="618" type="line"/>
		</contour>
	</outline>
</glyph>
<glyph name="Iogonek" format="2">
	<unicode hex="012E"/>
	<advance width="284"/>
	<outline>
		<contour>
			<point x="149" y="-218" type="curve" smooth="yes"/>
			<point x="180" y="-218"/>
			<point x="220" y="-204"/>
			<point x="242" y="-186" type="curve"/>
			<point x="213" y="-125" type="line"/>
			<point x="203" y="-133"/>
			<point x="190" y="-139"/>
			<point x="173" y="-139" type="curve" smooth="yes"/>
			<point x="153" y="-139"/>
			<point x="131" y="-126"/>
			<point x="131" y="-98" type="curve" smooth="yes"/>
			<point x="131" y="-60"/>
			<point x="153" y="-26"/>
			<point x="202" y="0" type="curve"/>
			<point x="202" y="654" type="line"/>
			<point x="83" y="654" type="line"/>
			<point x="83" y="0" type="line"/>
			<point x="115" y="0" type="line"/>
			<point x="81" y="-26"/>
			<point x="43" y="-70"/>
			<point x="43" y="-127" type="curve" smooth="yes"/>
			<point x="43" y="-186"/>
			<point x="90" y="-218"/>
		</contour>
	</outline>
	<anchor name="aboveUC" x="142" y="676"/>
</glyph>
<glyph name="iogonek" format="2">
	<unicode hex="012F"/>
	<advance width="263"/>
	<outline>
		<contour>
			<point x="139" y="-208" type="curve" smooth="yes"/>
			<point x="168" y="-208"/>
			<point x="207" y="-196"/>
			<point x="230" y="-178" type="curve"/>
			<point x="203" y="-123" type="line"/>
			<point x="192" y="-130"/>
			<point x="180" y="-135"/>
			<point x="164" y="-135" type="curve" smooth="yes"/>
			<point x="143" y="-135"/>
			<point x="122" y="-122"/>
			<point x="122" y="-94" type="curve" smooth="yes"/>
			<point x="122" y="-60"/>
			<point x="143" y="-24"/>
			<point x="191" y="0" type="curve"/>
			<point x="191" y="492" type="line"/>
			<point x="72" y="492" type="line"/>
			<point x="72" y="0" type="line"/>
			<point x="104" y="0" type="line"/>
			<point x="78" y="-23"/>
			<point x="40" y="-64"/>
			<point x="40" y="-120" type="curve" smooth="yes"/>
			<point x="40" y="-178"/>
			<point x="84" y="-208"/>
		</contour>
		<contour>
			<point x="131" y="576" type="curve" smooth="yes"/>
			<point x="173" y="576"/>
			<point x="204" y="604"/>
			<point x="204" y="643" type="curve" smooth="yes"/>
			<point x="204" y="682"/>
			<point x="173" y="709"/>
			<point x="131" y="709" type="curve" smooth="yes"/>
			<point x="90" y="709"/>
			<point x="59" y="682"/>
			<point x="59" y="643" type="curve" smooth="yes"/>
			<point x="59" y="604"/>
			<point x="90" y="576"/>
		</contour>
	</outline>
</glyph>
<glyph name="dotlessi" format="1">
	<unicode hex="0131"/>
	<advance width="262"/>
	<outline>
		<contour>
			<point x="73" y="0" type="line"/>
			<point x="188" y="0" type="line"/>
			<point x="188" y="491" type="line"/>
			<point x="73" y="491" type="line"/>
		</contour>
		<contour>
			<point name="ogonekLC" x="124" y="0" type="move"/>
		</contour>
		<contour>
			<point name="aboveLC" x="131" y="514" type="move"/>
		</contour>
		<contour>
			<point name="belowLC" x="130" y="-22" type="move"/>
		</contour>
	</outline>
</glyph>
<glyph name="IJ" format="2">
	<unicode hex="0132"/>
	<advance width="568"/>
	<outline>
		<contour>
			<point x="83" y="0" type="line"/>
			<point x="202" y="0" type="line"/>
			<point x="202" y="654" type="line"/>
			<point x="83" y="654" type="line"/>
		</contour>
		<contour>
			<point x="327" y="-174" type="curve" smooth="yes"/>
			<point x="446" y="-174"/>
			<point x="486" y="-96"/>
			<point x="486" y="9" type="curve" smooth="yes"/>
			<point x="486" y="654" type="line"/>
			<point x="367" y="654" type="line"/>
			<point x="367" y="8" type="line" smooth="yes"/>
			<point x="367" y="-49"/>
			<point x="354" y="-79"/>
			<point x="311" y="-79" type="curve" smooth="yes"/>
			<point x="296" y="-79"/>
			<point x="282" y="-75"/>
			<point x="269" y="-71" type="curve"/>
			<point x="247" y="-161" type="line"/>
			<point x="266" y="-168"/>
			<point x="291" y="-174"/>
		</contour>
	</outline>
</glyph>
<glyph name="kgreenlandic" format="2">
	<unicode hex="0138"/>
	<advance width="524"/>
	<outline>
		<contour>
			<point x="72" y="0" type="line"/>
			<point x="191" y="0" type="line"/>
			<point x="191" y="121" type="line"/>
			<point x="264" y="208" type="line"/>
			<point x="389" y="0" type="line"/>
			<point x="517" y="0" type="line"/>
			<point x="334" y="291" type="line"/>
			<point x="500" y="492" type="line"/>
			<point x="371" y="492" type="line"/>
			<point x="194" y="266" type="line"/>
			<point x="191" y="266" type="line"/>
			<point x="191" y="492" type="line"/>
			<point x="72" y="492" type="line"/>
		</contour>
	</outline>
</glyph>
<glyph name="Lslash" format="2">
	<unicode hex="0141"/>
	<advance width="524"/>
	<outline>
		<contour>
			<point x="25" y="198" type="line"/>
			<point x="120" y="240" type="line"/>
			<point x="208" y="278" type="line"/>
			<point x="434" y="380" type="line"/>
			<point x="400" y="459" type="line"/>
			<point x="208" y="373" type="line"/>
			<point x="120" y="335" type="line"/>
			<point x="-10" y="277" type="line"/>
		</contour>
		<component base="L" xOffset="22"/>
	</outline>
</glyph>
<glyph name="lslash" format="1">
	<unicode hex="0142"/>
	<advance width="309"/>
	<outline>
		<contour>
			<point x="25" y="263" type="line"/>
			<point x="101" y="311" type="line"/>
			<point x="194" y="354" type="line"/>
			<point x="320" y="425" type="line"/>
			<point x="281" y="497" type="line"/>
			<point x="194" y="445" type="line"/>
			<point x="101" y="402" type="line"/>
			<point x="-14" y="336" type="line"/>
		</contour>
		<component base="l" xOffset="19"/>
		<contour>
			<point name="aboveUC" x="152" y="724" type="move"/>
		</contour>
		<contour>
			<point name="belowLC" x="172" y="-22" type="move"/>
		</contour>
	</outline>
</glyph>
<glyph name="Eng" format="2">
	<unicode hex="014A"/>
	<advance width="652"/>
	<outline>
		<contour>
			<point x="409" y="-12" type="curve" smooth="yes"/>
			<point x="536" y="-12"/>
			<point x="604" y="92"/>
			<point x="604" y="333" type="curve" smooth="yes"/>
			<point x="604" y="577"/>
			<point x="507" y="666"/>
			<point x="378" y="666" type="curve" smooth="yes"/>
			<point x="310" y="666"/>
			<point x="246" y="632"/>
			<point x="198" y="579" type="curve"/>
			<point x="198" y="654" type="line"/>
			<point x="83" y="654" type="line"/>
			<point x="83" y="0" type="line"/>
			<point x="202" y="0" type="line"/>
			<point x="202" y="474" type="line"/>
			<point x="237" y="529"/>
			<point x="299" y="562"/>
			<point x="344" y="562" type="curve" smooth="yes"/>
			<point x="428" y="562"/>
			<point x="481" y="504"/>
			<point x="481" y="333" type="curve" smooth="yes"/>
			<point x="481" y="146"/>
			<point x="443" y="100"/>
			<point x="396" y="100" type="curve" smooth="yes"/>
			<point x="377" y="100"/>
			<point x="364" y="102"/>
			<point x="351" y="108" type="curve"/>
			<point x="325" y="5" type="line"/>
			<point x="344" y="-6"/>
			<point x="382" y="-12"/>
		</contour>
	</outline>
	<anchor name="aboveUC" x="355" y="676"/>
	<anchor name="belowLC" x="322" y="-22"/>
</glyph>
<glyph name="eng" format="2">
	<unicode hex="014B"/>
	<advance width="560"/>
	<outline>
		<contour>
			<point x="336" y="-206" type="curve" smooth="yes"/>
			<point x="453" y="-206"/>
			<point x="492" y="-129"/>
			<point x="492" y="-25" type="curve" smooth="yes"/>
			<point x="492" y="308" type="line" smooth="yes"/>
			<point x="492" y="432"/>
			<point x="446" y="503"/>
			<point x="341" y="503" type="curve" smooth="yes"/>
			<point x="274" y="503"/>
			<point x="224" y="468"/>
			<point x="180" y="425" type="curve"/>
			<point x="176" y="425" type="line"/>
			<point x="168" y="491" type="line"/>
			<point x="73" y="491" type="line"/>
			<point x="73" y="0" type="line"/>
			<point x="188" y="0" type="line"/>
			<point x="188" y="343" type="line"/>
			<point x="229" y="383"/>
			<point x="257" y="404"/>
			<point x="300" y="404" type="curve" smooth="yes"/>
			<point x="354" y="404"/>
			<point x="377" y="374"/>
			<point x="377" y="293" type="curve" smooth="yes"/>
			<point x="377" y="-27" type="line" smooth="yes"/>
			<point x="377" y="-84"/>
			<point x="364" y="-115"/>
			<point x="320" y="-115" type="curve" smooth="yes"/>
			<point x="306" y="-115"/>
			<point x="291" y="-111"/>
			<point x="278" y="-107" type="curve"/>
			<point x="257" y="-192" type="line"/>
			<point x="276" y="-200"/>
			<point x="302" y="-206"/>
		</contour>
	</outline>
	<anchor name="aboveLC" x="304" y="514"/>
	<anchor name="belowLC" x="282" y="-198"/>
</glyph>
<glyph name="OE" format="2">
	<unicode hex="0152"/>
	<advance width="860"/>
	<outline>
		<contour>
			<point x="371" y="0" type="curve" smooth="yes"/>
			<point x="809" y="0" type="line"/>
			<point x="809" y="100" type="line"/>
			<point x="538" y="100" type="line"/>
			<point x="538" y="290" type="line"/>
			<point x="757" y="290" type="line"/>
			<point x="757" y="390" type="line"/>
			<point x="538" y="390" type="line"/>
			<point x="538" y="554" type="line"/>
			<point x="799" y="554" type="line"/>
			<point x="799" y="654" type="line"/>
			<point x="377" y="654" type="line" smooth="yes"/>
			<point x="180" y="654"/>
			<point x="49" y="547"/>
			<point x="49" y="330" type="curve" smooth="yes"/>
			<point x="49" y="112"/>
			<point x="180" y="0"/>
		</contour>
		<contour>
			<point x="385" y="96" type="line" smooth="yes"/>
			<point x="251" y="96"/>
			<point x="171" y="168"/>
			<point x="171" y="330" type="curve" smooth="yes"/>
			<point x="171" y="491"/>
			<point x="251" y="557"/>
			<point x="385" y="557" type="curve" smooth="yes"/>
			<point x="419" y="557" type="line"/>
			<point x="419" y="96" type="line"/>
		</contour>
	</outline>
	<anchor name="aboveUC" x="530" y="676"/>
</glyph>
<glyph name="oe" format="2">
	<unicode hex="0153"/>
	<advance width="830"/>
	<outline>
		<contour>
			<point x="266" y="-12" type="curve" smooth="yes"/>
			<point x="342" y="-12"/>
			<point x="398" y="24"/>
			<point x="438" y="92" type="curve"/>
			<point x="478" y="24"/>
			<point x="542" y="-12"/>
			<point x="616" y="-12" type="curve" smooth="yes"/>
			<point x="670" y="-12"/>
			<point x="729" y="8"/>
			<point x="774" y="41" type="curve"/>
			<point x="734" y="114" type="line"/>
			<point x="699" y="93"/>
			<point x="662" y="80"/>
			<point x="621" y="80" type="curve" smooth="yes"/>
			<point x="549" y="80"/>
			<point x="495" y="130"/>
			<point x="486" y="210" type="curve"/>
			<point x="790" y="210" type="line"/>
			<point x="792" y="224"/>
			<point x="794" y="244"/>
			<point x="794" y="268" type="curve" smooth="yes"/>
			<point x="794" y="405"/>
			<point x="724" y="504"/>
			<point x="596" y="504" type="curve"/>
			<point x="532" y="504"/>
			<point x="474" y="466"/>
			<point x="436" y="400" type="curve"/>
			<point x="402" y="466"/>
			<point x="342" y="504"/>
			<point x="266" y="504" type="curve" smooth="yes"/>
			<point x="146" y="504"/>
			<point x="40" y="409"/>
			<point x="40" y="245" type="curve" smooth="yes"/>
			<point x="40" y="82"/>
			<point x="143" y="-12"/>
		</contour>
		<contour>
			<point x="268" y="84" type="curve" smooth="yes"/>
			<point x="203" y="84"/>
			<point x="161" y="148"/>
			<point x="161" y="245" type="curve" smooth="yes"/>
			<point x="161" y="344"/>
			<point x="203" y="408"/>
			<point x="268" y="408" type="curve" smooth="yes"/>
			<point x="336" y="408"/>
			<point x="378" y="344"/>
			<point x="378" y="245" type="curve" smooth="yes"/>
			<point x="378" y="148"/>
			<point x="336" y="84"/>
		</contour>
		<contour>
			<point x="486" y="296" type="line"/>
			<point x="494" y="370"/>
			<point x="539" y="412"/>
			<point x="595" y="412" type="curve" smooth="yes"/>
			<point x="659" y="412"/>
			<point x="692" y="368"/>
			<point x="692" y="296" type="curve"/>
		</contour>
	</outline>
	<anchor name="aboveLC" x="440" y="514"/>
	<anchor name="belowLC" x="440" y="-22"/>
</glyph>
<glyph name="Tbar" format="1">
	<unicode hex="0166"/>
	<advance width="546"/>
	<outline>
		<contour>
			<point x="94" y="286" type="line"/>
			<point x="452" y="286" type="line"/>
			<point x="452" y="364" type="line"/>
			<point x="186" y="364" type="line"/>
			<point x="94" y="360" type="line"/>
		</contour>
		<component base="T"/>
		<contour>
			<point name="aboveUC" x="272" y="676" type="move"/>
		</contour>
		<contour>
			<point name="belowLC" x="272" y="-22" type="move"/>
		</contour>
	</outline>
</glyph>
<glyph name="tbar" format="1">
	<unicode hex="0167"/>
	<advance width="361"/>
	<outline>
		<contour>
			<point x="20" y="210" type="line"/>
			<point x="331" y="210" type="line"/>
			<point x="331" y="289" type="line"/>
			<point x="96" y="289" type="line"/>
			<point x="20" y="284" type="line"/>
		</contour>
		<component base="t"/>
		<contour>
			<point name="aboveLC" x="160" y="650" type="move"/>
		</contour>
		<contour>
			<point name="belowLC" x="224" y="-22" type="move"/>
		</contour>
	</outline>
</glyph>
<glyph name="Uogonek" format="2">
	<unicode hex="0172"/>
	<advance width="656"/>
	<outline>
		<contour>
			<point x="343" y="-223" type="curve" smooth="yes"/>
			<point x="380" y="-223"/>
			<point x="421" y="-207"/>
			<point x="445" y="-188" type="curve"/>
			<point x="416" y="-121" type="line"/>
			<point x="403" y="-130"/>
			<point x="387" y="-138"/>
			<point x="369" y="-138" type="curve" smooth="yes"/>
			<point x="341" y="-138"/>
			<point x="320" y="-125"/>
			<point x="320" y="-94" type="curve" smooth="yes"/>
			<point x="320" y="-61"/>
			<point x="347" y="-22"/>
			<point x="394" y="-9" type="curve" smooth="yes"/>
			<point x="516" y="25"/>
			<point x="577" y="109"/>
			<point x="577" y="288" type="curve" smooth="yes"/>
			<point x="577" y="654" type="line"/>
			<point x="462" y="654" type="line"/>
			<point x="462" y="279" type="line" smooth="yes"/>
			<point x="462" y="138"/>
			<point x="408" y="91"/>
			<point x="329" y="91" type="curve" smooth="yes"/>
			<point x="250" y="91"/>
			<point x="198" y="138"/>
			<point x="198" y="279" type="curve" smooth="yes"/>
			<point x="198" y="654" type="line"/>
			<point x="79" y="654" type="line"/>
			<point x="79" y="288" type="line" smooth="yes"/>
			<point x="79" y="73"/>
			<point x="176" y="-12"/>
			<point x="329" y="-12" type="curve"/>
			<point x="302" y="3" type="line"/>
			<point x="264" y="-24"/>
			<point x="226" y="-73"/>
			<point x="226" y="-127" type="curve" smooth="yes"/>
			<point x="226" y="-189"/>
			<point x="278" y="-223"/>
		</contour>
	</outline>
	<anchor name="aboveUC" x="328" y="676"/>
</glyph>
<glyph name="uogonek" format="2">
	<unicode hex="0173"/>
	<advance width="558"/>
	<outline>
		<contour>
			<point x="428" y="-217" type="curve" smooth="yes"/>
			<point x="463" y="-217"/>
			<point x="502" y="-203"/>
			<point x="527" y="-184" type="curve"/>
			<point x="500" y="-122" type="line"/>
			<point x="486" y="-131"/>
			<point x="471" y="-137"/>
			<point x="451" y="-137" type="curve" smooth="yes"/>
			<point x="429" y="-137"/>
			<point x="406" y="-124"/>
			<point x="406" y="-94" type="curve" smooth="yes"/>
			<point x="406" y="-61"/>
			<point x="431" y="-19"/>
			<point x="485" y="0" type="curve"/>
			<point x="485" y="492" type="line"/>
			<point x="367" y="492" type="line"/>
			<point x="367" y="156" type="line"/>
			<point x="331" y="109"/>
			<point x="303" y="89"/>
			<point x="260" y="89" type="curve" smooth="yes"/>
			<point x="208" y="89"/>
			<point x="185" y="119"/>
			<point x="185" y="199" type="curve" smooth="yes"/>
			<point x="185" y="492" type="line"/>
			<point x="67" y="492" type="line"/>
			<point x="67" y="184" type="line" smooth="yes"/>
			<point x="67" y="60"/>
			<point x="113" y="-12"/>
			<point x="218" y="-12" type="curve" smooth="yes"/>
			<point x="286" y="-12"/>
			<point x="333" y="21"/>
			<point x="376" y="72" type="curve"/>
			<point x="379" y="72" type="line"/>
			<point x="390" y="1" type="line"/>
			<point x="357" y="-20"/>
			<point x="317" y="-65"/>
			<point x="317" y="-120" type="curve" smooth="yes"/>
			<point x="317" y="-186"/>
			<point x="366" y="-217"/>
		</contour>
	</outline>
	<anchor name="aboveLC" x="271" y="502"/>
</glyph>
<glyph name="bstroke" format="2">
	<unicode hex="0180"/>
	<advance width="564"/>
	<outline>
		<contour>
			<point x="313" y="-12" type="curve" smooth="yes"/>
			<point x="422" y="-12"/>
			<point x="522" y="80"/>
			<point x="522" y="234" type="curve" smooth="yes"/>
			<point x="522" y="368"/>
			<point x="450" y="460"/>
			<point x="328" y="460" type="curve" smooth="yes"/>
			<point x="278" y="460"/>
			<point x="229" y="434"/>
			<point x="188" y="399" type="curve"/>
			<point x="192" y="480" type="line"/>
			<point x="192" y="706" type="line"/>
			<point x="72" y="706" type="line"/>
			<point x="72" y="0" type="line"/>
			<point x="165" y="0" type="line"/>
			<point x="176" y="52" type="line"/>
			<point x="180" y="52" type="line"/>
			<point x="220" y="10"/>
			<point x="268" y="-12"/>
		</contour>
		<contour>
			<point x="288" y="86" type="curve" smooth="yes"/>
			<point x="258" y="86"/>
			<point x="224" y="96"/>
			<point x="192" y="125" type="curve"/>
			<point x="192" y="307" type="line"/>
			<point x="228" y="344"/>
			<point x="261" y="362"/>
			<point x="296" y="362" type="curve" smooth="yes"/>
			<point x="369" y="362"/>
			<point x="400" y="310"/>
			<point x="400" y="232" type="curve" smooth="yes"/>
			<point x="400" y="140"/>
			<point x="351" y="86"/>
		</contour>
		<contour>
			<point x="2" y="540" type="line"/>
			<point x="365" y="540" type="line"/>
			<point x="365" y="628" type="line"/>
			<point x="79" y="628" type="line"/>
			<point x="2" y="623" type="line"/>
		</contour>
	</outline>
</glyph>
<glyph name="Bhook" format="2">
	<unicode hex="0181"/>
	<advance width="769"/>
	<outline>
		<contour>
			<point x="276" y="0" type="line"/>
			<point x="484" y="0" type="line" smooth="yes"/>
			<point x="628" y="0"/>
			<point x="732" y="62"/>
			<point x="732" y="197" type="curve" smooth="yes"/>
			<point x="732" y="283"/>
			<point x="684" y="331"/>
			<point x="607" y="347" type="curve"/>
			<point x="607" y="351" type="line"/>
			<point x="665" y="371"/>
			<point x="698" y="428"/>
			<point x="698" y="495" type="curve" smooth="yes"/>
			<point x="698" y="615"/>
			<point x="609" y="666"/>
			<point x="407" y="666" type="curve" smooth="yes"/>
			<point x="146" y="666"/>
			<point x="40" y="562"/>
			<point x="40" y="418" type="curve" smooth="yes"/>
			<point x="40" y="324"/>
			<point x="86" y="268"/>
			<point x="161" y="234" type="curve"/>
			<point x="209" y="312" type="line"/>
			<point x="164" y="336"/>
			<point x="141" y="368"/>
			<point x="141" y="422" type="curve" smooth="yes"/>
			<point x="141" y="503"/>
			<point x="203" y="569"/>
			<point x="352" y="569" type="curve" smooth="yes"/>
			<point x="448" y="569" type="line" smooth="yes"/>
			<point x="540" y="569"/>
			<point x="586" y="543"/>
			<point x="586" y="479" type="curve" smooth="yes"/>
			<point x="586" y="420"/>
			<point x="548" y="384"/>
			<point x="456" y="384" type="curve" smooth="yes"/>
			<point x="392" y="384" type="line"/>
			<point x="392" y="606" type="line"/>
			<point x="276" y="606" type="line"/>
		</contour>
		<contour>
			<point x="392" y="90" type="line"/>
			<point x="392" y="297" type="line"/>
			<point x="472" y="297" type="line" smooth="yes"/>
			<point x="569" y="297"/>
			<point x="621" y="267"/>
			<point x="621" y="198" type="curve" smooth="yes"/>
			<point x="621" y="125"/>
			<point x="568" y="90"/>
			<point x="472" y="90" type="curve" smooth="yes"/>
		</contour>
	</outline>
	<anchor name="aboveUC" x="468" y="676"/>
	<anchor name="belowLC" x="482" y="-22"/>
</glyph>
<glyph name="Oopen" format="2">
	<unicode hex="0186"/>
	<advance width="576"/>
	<outline>
		<contour>
			<point x="241" y="-12" type="curve" smooth="yes"/>
			<point x="403" y="-12"/>
			<point x="528" y="98"/>
			<point x="528" y="325" type="curve" smooth="yes"/>
			<point x="528" y="552"/>
			<point x="402" y="666"/>
			<point x="244" y="666" type="curve" smooth="yes"/>
			<point x="158" y="666"/>
			<point x="91" y="632"/>
			<point x="44" y="583" type="curve"/>
			<point x="100" y="512" type="line"/>
			<point x="138" y="548"/>
			<point x="184" y="565"/>
			<point x="238" y="565" type="curve" smooth="yes"/>
			<point x="339" y="565"/>
			<point x="408" y="488"/>
			<point x="408" y="331" type="curve" smooth="yes"/>
			<point x="408" y="165"/>
			<point x="343" y="89"/>
			<point x="239" y="89" type="curve" smooth="yes"/>
			<point x="176" y="89"/>
			<point x="128" y="110"/>
			<point x="89" y="152" type="curve"/>
			<point x="27" y="83" type="line"/>
			<point x="84" y="20"/>
			<point x="154" y="-12"/>
		</contour>
	</outline>
	<anchor name="aboveUC" x="259" y="676"/>
	<anchor name="baseLC" x="252" y="0"/>
	<anchor name="belowLC" x="252" y="-22"/>
</glyph>
<glyph name="Dhook" format="1">
	<unicode hex="018A"/>
	<advance width="804"/>
	<outline>
		<contour>
			<point x="276" y="0" type="line"/>
			<point x="435" y="0" type="line" smooth="yes"/>
			<point x="630" y="0"/>
			<point x="751" y="114"/>
			<point x="751" y="336" type="curve" smooth="yes"/>
			<point x="751" y="554"/>
			<point x="632" y="666"/>
			<point x="397" y="666" type="curve" smooth="yes"/>
			<point x="143" y="666"/>
			<point x="40" y="564"/>
			<point x="40" y="418" type="curve" smooth="yes"/>
			<point x="40" y="325"/>
			<point x="85" y="270"/>
			<point x="161" y="234" type="curve"/>
			<point x="210" y="313" type="line"/>
			<point x="165" y="338"/>
			<point x="141" y="368"/>
			<point x="141" y="422" type="curve" smooth="yes"/>
			<point x="141" y="504"/>
			<point x="202" y="565"/>
			<point x="349" y="565" type="curve" smooth="yes"/>
			<point x="397" y="565" type="line" smooth="yes"/>
			<point x="558" y="565"/>
			<point x="632" y="493"/>
			<point x="632" y="336" type="curve" smooth="yes"/>
			<point x="632" y="170"/>
			<point x="555" y="94"/>
			<point x="436" y="94" type="curve" smooth="yes"/>
			<point x="392" y="94" type="line"/>
			<point x="392" y="606" type="line"/>
			<point x="276" y="606" type="line"/>
		</contour>
		<contour>
			<point name="aboveUC" x="460" y="675" type="move"/>
		</contour>
		<contour>
			<point name="belowLC" x="480" y="-21" type="move"/>
		</contour>
	</outline>
</glyph>
<glyph name="Eturned" format="2">
	<unicode hex="018E"/>
	<advance width="538"/>
	<outline>
		<contour>
			<point x="51" y="0" type="line"/>
			<point x="454" y="0" type="line"/>
			<point x="454" y="654" type="line"/>
			<point x="61" y="654" type="line"/>
			<point x="61" y="556" type="line"/>
			<point x="338" y="556" type="line"/>
			<point x="338" y="389" type="line"/>
			<point x="103" y="389" type="line"/>
			<point x="103" y="291" type="line"/>
			<point x="338" y="291" type="line"/>
			<point x="338" y="98" type="line"/>
			<point x="51" y="98" type="line"/>
		</contour>
	</outline>
	<anchor name="aboveUC" x="264" y="676"/>
	<anchor name="belowLC" x="254" y="-22"/>
	<anchor name="ogonekUC" x="254" y="0"/>
</glyph>
<glyph name="Schwa" format="2">
	<unicode hex="018F"/>
	<advance width="667"/>
	<outline>
		<contour>
			<point x="331" y="-12" type="curve" smooth="yes"/>
			<point x="503" y="-12"/>
			<point x="618" y="109"/>
			<point x="618" y="328" type="curve" smooth="yes"/>
			<point x="618" y="548"/>
			<point x="506" y="666"/>
			<point x="335" y="666" type="curve" smooth="yes"/>
			<point x="244" y="666"/>
			<point x="170" y="633"/>
			<point x="118" y="587" type="curve"/>
			<point x="174" y="512" type="line"/>
			<point x="212" y="546"/>
			<point x="265" y="571"/>
			<point x="327" y="571" type="curve" smooth="yes"/>
			<point x="444" y="571"/>
			<point x="503" y="490"/>
			<point x="503" y="328" type="curve" smooth="yes"/>
			<point x="503" y="164"/>
			<point x="437" y="83"/>
			<point x="332" y="83" type="curve" smooth="yes"/>
			<point x="239" y="83"/>
			<point x="174" y="149"/>
			<point x="172" y="276" type="curve"/>
			<point x="531" y="276" type="line"/>
			<point x="531" y="362" type="line"/>
			<point x="58" y="362" type="line"/>
			<point x="56" y="348"/>
			<point x="54" y="332"/>
			<point x="54" y="320" type="curve" smooth="yes"/>
			<point x="54" y="110"/>
			<point x="158" y="-12"/>
		</contour>
	</outline>
	<anchor name="aboveUC" x="345" y="676"/>
	<anchor name="belowLC" x="350" y="-22"/>
</glyph>
<glyph name="Eopen" format="2">
	<unicode hex="0190"/>
	<advance width="541"/>
	<outline>
		<contour>
			<point x="294" y="-12" type="curve" smooth="yes"/>
			<point x="396" y="-12"/>
			<point x="458" y="16"/>
			<point x="519" y="78" type="curve"/>
			<point x="462" y="148" type="line"/>
			<point x="414" y="106"/>
			<point x="368" y="89"/>
			<point x="304" y="89" type="curve" smooth="yes"/>
			<point x="217" y="89"/>
			<point x="152" y="128"/>
			<point x="152" y="197" type="curve" smooth="yes"/>
			<point x="152" y="266"/>
			<point x="203" y="297"/>
			<point x="299" y="297" type="curve" smooth="yes"/>
			<point x="380" y="297" type="line"/>
			<point x="380" y="384" type="line"/>
			<point x="316" y="384" type="line" smooth="yes"/>
			<point x="224" y="384"/>
			<point x="186" y="417"/>
			<point x="186" y="477" type="curve" smooth="yes"/>
			<point x="186" y="536"/>
			<point x="233" y="565"/>
			<point x="300" y="565" type="curve" smooth="yes"/>
			<point x="355" y="565"/>
			<point x="401" y="547"/>
			<point x="440" y="514" type="curve"/>
			<point x="494" y="587" type="line"/>
			<point x="442" y="635"/>
			<point x="372" y="666"/>
			<point x="296" y="666" type="curve" smooth="yes"/>
			<point x="170" y="666"/>
			<point x="72" y="606"/>
			<point x="72" y="497" type="curve" smooth="yes"/>
			<point x="72" y="429"/>
			<point x="108" y="376"/>
			<point x="168" y="350" type="curve"/>
			<point x="168" y="346" type="line"/>
			<point x="96" y="328"/>
			<point x="38" y="274"/>
			<point x="38" y="189" type="curve" smooth="yes"/>
			<point x="38" y="60"/>
			<point x="145" y="-12"/>
		</contour>
	</outline>
	<anchor name="aboveUC" x="286" y="676"/>
	<anchor name="baseLC" x="286" y="0"/>
	<anchor name="belowLC" x="286" y="-22"/>
</glyph>
<glyph name="florin" format="2">
	<unicode hex="0192"/>
	<advance width="319"/>
	<outline>
		<contour>
			<point x="53" y="-205" type="curve" smooth="yes"/>
			<point x="171" y="-205"/>
			<point x="211" y="-127"/>
			<point x="211" y="-22" type="curve" smooth="yes"/>
			<point x="211" y="542" type="line" smooth="yes"/>
			<point x="211" y="598"/>
			<point x="232" y="624"/>
			<point x="273" y="624" type="curve" smooth="yes"/>
			<point x="289" y="624"/>
			<point x="306" y="621"/>
			<point x="324" y="616" type="curve"/>
			<point x="348" y="701" type="line"/>
			<point x="327" y="709"/>
			<point x="293" y="718"/>
			<point x="257" y="718" type="curve" smooth="yes"/>
			<point x="140" y="718"/>
			<point x="93" y="642"/>
			<point x="93" y="540" type="curve" smooth="yes"/>
			<point x="93" y="-25" type="line" smooth="yes"/>
			<point x="93" y="-82"/>
			<point x="80" y="-112"/>
			<point x="36" y="-112" type="curve" smooth="yes"/>
			<point x="22" y="-112"/>
			<point x="8" y="-108"/>
			<point x="-6" y="-104" type="curve"/>
			<point x="-27" y="-191" type="line"/>
			<point x="-8" y="-199"/>
			<point x="18" y="-205"/>
		</contour>
		<contour>
			<point x="27" y="398" type="line"/>
			<point x="306" y="398" type="line"/>
			<point x="306" y="492" type="line"/>
			<point x="99" y="492" type="line"/>
			<point x="27" y="486" type="line"/>
		</contour>
	</outline>
	<anchor name="aboveUC" x="231" y="724"/>
	<anchor name="belowLC" x="93" y="-206"/>
</glyph>
<glyph name="Ghook" format="2">
	<unicode hex="0193"/>
	<advance width="629"/>
	<outline>
		<contour>
			<point x="358" y="-12" type="curve" smooth="yes"/>
			<point x="447" y="-12"/>
			<point x="523" y="22"/>
			<point x="567" y="66" type="curve"/>
			<point x="567" y="355" type="line"/>
			<point x="339" y="355" type="line"/>
			<point x="339" y="258" type="line"/>
			<point x="460" y="258" type="line"/>
			<point x="460" y="119" type="line"/>
			<point x="440" y="101"/>
			<point x="405" y="91"/>
			<point x="370" y="91" type="curve" smooth="yes"/>
			<point x="239" y="91"/>
			<point x="171" y="181"/>
			<point x="171" y="328" type="curve" smooth="yes"/>
			<point x="171" y="474"/>
			<point x="248" y="562"/>
			<point x="363" y="562" type="curve" smooth="yes"/>
			<point x="423" y="562"/>
			<point x="461" y="544"/>
			<point x="494" y="520" type="curve"/>
			<point x="557" y="597" type="line"/>
			<point x="516" y="632"/>
			<point x="452" y="666"/>
			<point x="359" y="666" type="curve" smooth="yes"/>
			<point x="185" y="666"/>
			<point x="49" y="539"/>
			<point x="49" y="325" type="curve" smooth="yes"/>
			<point x="49" y="108"/>
			<point x="181" y="-12"/>
		</contour>
		<contour>
			<point x="454" y="594" type="curve"/>
			<point x="557" y="597" type="line"/>
			<point x="539" y="622"/>
			<point x="526" y="640"/>
			<point x="526" y="667" type="curve" smooth="yes"/>
			<point x="526" y="698"/>
			<point x="546" y="718"/>
			<point x="578" y="718" type="curve" smooth="yes"/>
			<point x="590" y="718"/>
			<point x="598" y="715"/>
			<point x="609" y="711" type="curve"/>
			<point x="630" y="797" type="line"/>
			<point x="613" y="805"/>
			<point x="590" y="812"/>
			<point x="555" y="812" type="curve" smooth="yes"/>
			<point x="475" y="812"/>
			<point x="425" y="756"/>
			<point x="425" y="685" type="curve" smooth="yes"/>
			<point x="425" y="655"/>
			<point x="437" y="628"/>
		</contour>
	</outline>
	<anchor name="aboveUC" x="275" y="676"/>
	<anchor name="belowLC" x="359" y="-22"/>
</glyph>
<glyph name="Istroke" format="2">
	<unicode hex="0197"/>
	<advance width="321"/>
	<outline>
		<contour>
			<point x="28" y="301" type="line"/>
			<point x="293" y="301" type="line"/>
			<point x="293" y="381" type="line"/>
			<point x="107" y="381" type="line"/>
			<point x="28" y="376" type="line"/>
		</contour>
		<component base="I" xOffset="20"/>
	</outline>
	<anchor name="aboveUC" x="163" y="676"/>
	<anchor name="belowLC" x="163" y="-22"/>
</glyph>
<glyph name="lambdastroke" format="2">
	<unicode hex="019B"/>
	<advance width="495"/>
	<outline>
		<contour>
			<point x="72" y="434" type="line"/>
			<point x="424" y="614" type="line"/>
			<point x="394" y="668" type="line"/>
			<point x="42" y="488" type="line"/>
		</contour>
		<component base="lambda.latin"/>
	</outline>
	<anchor name="aboveUC" x="204" y="724"/>
	<anchor name="belowLC" x="246" y="-22"/>
</glyph>
<glyph name="Ohorn" format="2">
	<unicode hex="01A0"/>
	<advance width="675"/>
	<outline>
		<contour>
			<point x="531" y="592" type="line"/>
			<point x="605" y="611"/>
			<point x="645" y="650"/>
			<point x="645" y="720" type="curve" smooth="yes"/>
			<point x="645" y="755"/>
			<point x="633" y="788"/>
			<point x="618" y="810" type="curve"/>
			<point x="529" y="773" type="line"/>
			<point x="537" y="758"/>
			<point x="544" y="734"/>
			<point x="544" y="711" type="curve" smooth="yes"/>
			<point x="544" y="666"/>
			<point x="519" y="645"/>
			<point x="472" y="634" type="curve"/>
		</contour>
		<component base="O" xOffset="2"/>
	</outline>
	<anchor name="aboveUC" x="339" y="676"/>
	<anchor name="belowLC" x="337" y="-22"/>
</glyph>
<glyph name="ohorn" format="2">
	<unicode hex="01A1"/>
	<advance width="549"/>
	<outline>
		<contour>
			<point x="428" y="441" type="line"/>
			<point x="492" y="460"/>
			<point x="547" y="504"/>
			<point x="547" y="584" type="curve" smooth="yes"/>
			<point x="547" y="617"/>
			<point x="534" y="650"/>
			<point x="519" y="671" type="curve"/>
			<point x="431" y="631" type="line"/>
			<point x="439" y="617"/>
			<point x="446" y="596"/>
			<point x="446" y="575" type="curve" smooth="yes"/>
			<point x="446" y="519"/>
			<point x="417" y="493"/>
			<point x="368" y="483" type="curve"/>
		</contour>
		<component base="o"/>
	</outline>
	<anchor name="aboveLC" x="277" y="514"/>
	<anchor name="belowLC" x="277" y="-22"/>
</glyph>
<glyph name="Uhorn" format="2">
	<unicode hex="01AF"/>
	<advance width="672"/>
	<outline>
		<contour>
			<point x="577" y="608" type="line"/>
			<point x="652" y="623"/>
			<point x="702" y="660"/>
			<point x="702" y="740" type="curve" smooth="yes"/>
			<point x="702" y="775"/>
			<point x="690" y="808"/>
			<point x="676" y="830" type="curve"/>
			<point x="586" y="793" type="line"/>
			<point x="594" y="778"/>
			<point x="601" y="754"/>
			<point x="601" y="731" type="curve" smooth="yes"/>
			<point x="601" y="673"/>
			<point x="562" y="658"/>
			<point x="515" y="654" type="curve"/>
		</contour>
		<component base="U"/>
	</outline>
	<anchor name="aboveUC" x="328" y="676"/>
	<anchor name="belowLC" x="328" y="-22"/>
</glyph>
<glyph name="uhorn" format="2">
	<unicode hex="01B0"/>
	<advance width="558"/>
	<outline>
		<contour>
			<point x="483" y="452" type="line"/>
			<point x="537" y="470"/>
			<point x="585" y="513"/>
			<point x="585" y="594" type="curve" smooth="yes"/>
			<point x="585" y="627"/>
			<point x="573" y="660"/>
			<point x="558" y="681" type="curve"/>
			<point x="470" y="641" type="line"/>
			<point x="478" y="627"/>
			<point x="485" y="606"/>
			<point x="485" y="585" type="curve" smooth="yes"/>
			<point x="485" y="513"/>
			<point x="444" y="496"/>
			<point x="402" y="492" type="curve"/>
		</contour>
		<component base="u"/>
	</outline>
	<anchor name="aboveLC" x="276" y="514"/>
	<anchor name="belowLC" x="291" y="-22"/>
</glyph>
<glyph name="wynn" format="2">
	<unicode hex="01BF"/>
	<advance width="556"/>
	<outline>
		<contour>
			<point x="73" y="-194" type="line"/>
			<point x="188" y="-194" type="line"/>
			<point x="188" y="-90" type="line"/>
			<point x="186" y="-12" type="line"/>
			<point x="393" y="41"/>
			<point x="513" y="173"/>
			<point x="513" y="332" type="curve" smooth="yes"/>
			<point x="513" y="436"/>
			<point x="446" y="503"/>
			<point x="346" y="503" type="curve" smooth="yes"/>
			<point x="275" y="503"/>
			<point x="227" y="471"/>
			<point x="180" y="418" type="curve"/>
			<point x="176" y="418" type="line"/>
			<point x="168" y="491" type="line"/>
			<point x="73" y="491" type="line"/>
		</contour>
		<contour>
			<point x="188" y="85" type="curve"/>
			<point x="188" y="324" type="line"/>
			<point x="237" y="389"/>
			<point x="272" y="408"/>
			<point x="311" y="408" type="curve" smooth="yes"/>
			<point x="366" y="408"/>
			<point x="394" y="371"/>
			<point x="394" y="312" type="curve" smooth="yes"/>
			<point x="394" y="215"/>
			<point x="311" y="123"/>
		</contour>
	</outline>
	<anchor name="aboveLC" x="304" y="514"/>
	<anchor name="belowLC" x="134" y="-198"/>
</glyph>
<glyph name="clickalveolar" format="1">
	<unicode hex="01C2"/>
	<advance width="392"/>
	<outline>
		<contour>
			<point x="29" y="145" type="line"/>
			<point x="363" y="145" type="line"/>
			<point x="363" y="223" type="line"/>
			<point x="106" y="223" type="line"/>
			<point x="29" y="218" type="line"/>
		</contour>
		<contour>
			<point x="29" y="315" type="line"/>
			<point x="363" y="315" type="line"/>
			<point x="363" y="394" type="line"/>
			<point x="106" y="394" type="line"/>
			<point x="29" y="388" type="line"/>
		</contour>
		<contour>
			<point x="143" y="-194" type="line"/>
			<point x="258" y="-194" type="line"/>
			<point x="258" y="706" type="line"/>
			<point x="143" y="706" type="line"/>
		</contour>
		<contour>
			<point name="aboveUC" x="197" y="724" type="move"/>
		</contour>
		<contour>
			<point name="belowLC" x="197" y="-194" type="move"/>
		</contour>
	</outline>
</glyph>
<glyph name="clickretroflex" format="2">
	<unicode hex="01C3"/>
	<advance width="248"/>
	<outline>
		<contour>
			<point x="85" y="217" type="line"/>
			<point x="163" y="217" type="line"/>
			<point x="181" y="555" type="line"/>
			<point x="185" y="706" type="line"/>
			<point x="63" y="706" type="line"/>
			<point x="67" y="555" type="line"/>
		</contour>
		<contour>
			<point x="124" y="-12" type="curve" smooth="yes"/>
			<point x="167" y="-12"/>
			<point x="200" y="22"/>
			<point x="200" y="67" type="curve" smooth="yes"/>
			<point x="200" y="113"/>
			<point x="167" y="147"/>
			<point x="124" y="147" type="curve" smooth="yes"/>
			<point x="81" y="147"/>
			<point x="48" y="113"/>
			<point x="48" y="67" type="curve" smooth="yes"/>
			<point x="48" y="22"/>
			<point x="81" y="-12"/>
		</contour>
	</outline>
	<anchor name="aboveUC" x="124" y="724"/>
	<anchor name="belowLC" x="124" y="-22"/>
</glyph>
<glyph name="Gstroke" format="2">
	<unicode hex="01E4"/>
	<advance width="669"/>
	<outline>
		<contour>
			<point x="357" y="-12" type="curve" smooth="yes"/>
			<point x="446" y="-12"/>
			<point x="522" y="22"/>
			<point x="566" y="66" type="curve"/>
			<point x="566" y="354" type="line"/>
			<point x="462" y="354" type="line"/>
			<point x="462" y="118" type="line"/>
			<point x="441" y="99"/>
			<point x="405" y="89"/>
			<point x="368" y="89" type="curve" smooth="yes"/>
			<point x="237" y="89"/>
			<point x="168" y="179"/>
			<point x="168" y="328" type="curve" smooth="yes"/>
			<point x="168" y="475"/>
			<point x="246" y="565"/>
			<point x="362" y="565" type="curve" smooth="yes"/>
			<point x="423" y="565"/>
			<point x="461" y="544"/>
			<point x="494" y="512" type="curve"/>
			<point x="556" y="583" type="line"/>
			<point x="515" y="626"/>
			<point x="451" y="666"/>
			<point x="358" y="666" type="curve" smooth="yes"/>
			<point x="184" y="666"/>
			<point x="49" y="539"/>
			<point x="49" y="325" type="curve" smooth="yes"/>
			<point x="49" y="108"/>
			<point x="180" y="-12"/>
		</contour>
		<contour>
			<point x="338" y="194" type="line"/>
			<point x="645" y="194" type="line"/>
			<point x="645" y="282" type="line"/>
			<point x="466" y="282" type="line"/>
			<point x="338" y="276" type="line"/>
		</contour>
	</outline>
	<anchor name="aboveUC" x="358" y="676"/>
	<anchor name="belowLC" x="358" y="-22"/>
	<guideline x="338" y="251" angle="90" identifier="LLk1mopjqD"/>
</glyph>
<glyph name="Oogonek" format="1">
	<unicode hex="01EA"/>
	<advance width="674"/>
	<outline>
		<contour>
			<point x="350" y="-218" type="curve" smooth="yes"/>
			<point x="381" y="-218"/>
			<point x="420" y="-204"/>
			<point x="443" y="-186" type="curve"/>
			<point x="414" y="-126" type="line"/>
			<point x="403" y="-134"/>
			<point x="391" y="-140"/>
			<point x="376" y="-140" type="curve" smooth="yes"/>
			<point x="354" y="-140"/>
			<point x="332" y="-127"/>
			<point x="332" y="-98" type="curve" smooth="yes"/>
			<point x="332" y="-67"/>
			<point x="356" y="-22"/>
			<point x="419" y="-1" type="curve" smooth="yes"/>
			<point x="539" y="36"/>
			<point x="626" y="143"/>
			<point x="626" y="330" type="curve" smooth="yes"/>
			<point x="626" y="541"/>
			<point x="508" y="666"/>
			<point x="337" y="666" type="curve" smooth="yes"/>
			<point x="167" y="666"/>
			<point x="49" y="541"/>
			<point x="49" y="330" type="curve" smooth="yes"/>
			<point x="49" y="118"/>
			<point x="167" y="-12"/>
			<point x="337" y="-12" type="curve"/>
			<point x="328" y="3" type="line"/>
			<point x="279" y="-24"/>
			<point x="245" y="-79"/>
			<point x="245" y="-127" type="curve" smooth="yes"/>
			<point x="245" y="-186"/>
			<point x="292" y="-218"/>
		</contour>
		<contour>
			<point x="337" y="89" type="curve" smooth="yes"/>
			<point x="234" y="89"/>
			<point x="168" y="183"/>
			<point x="168" y="330" type="curve" smooth="yes"/>
			<point x="168" y="476"/>
			<point x="234" y="565"/>
			<point x="337" y="565" type="curve" smooth="yes"/>
			<point x="440" y="565"/>
			<point x="506" y="476"/>
			<point x="506" y="330" type="curve" smooth="yes"/>
			<point x="506" y="183"/>
			<point x="440" y="89"/>
		</contour>
		<contour>
			<point name="aboveUC" x="336" y="676" type="move"/>
		</contour>
	</outline>
</glyph>
<glyph name="oogonek" format="2">
	<unicode hex="01EB"/>
	<advance width="549"/>
	<outline>
		<contour>
			<point x="284" y="-208" type="curve" smooth="yes"/>
			<point x="313" y="-208"/>
			<point x="352" y="-196"/>
			<point x="375" y="-178" type="curve"/>
			<point x="348" y="-123" type="line"/>
			<point x="338" y="-130"/>
			<point x="325" y="-135"/>
			<point x="310" y="-135" type="curve" smooth="yes"/>
			<point x="289" y="-135"/>
			<point x="267" y="-122"/>
			<point x="267" y="-94" type="curve" smooth="yes"/>
			<point x="267" y="-61"/>
			<point x="287" y="-26"/>
			<point x="344" y="-4" type="curve" smooth="yes"/>
			<point x="436" y="32"/>
			<point x="509" y="112"/>
			<point x="509" y="245" type="curve" smooth="yes"/>
			<point x="509" y="409"/>
			<point x="397" y="504"/>
			<point x="275" y="504" type="curve" smooth="yes"/>
			<point x="152" y="504"/>
			<point x="40" y="409"/>
			<point x="40" y="245" type="curve" smooth="yes"/>
			<point x="40" y="82"/>
			<point x="152" y="-12"/>
			<point x="275" y="-12" type="curve"/>
			<point x="261" y="3" type="line"/>
			<point x="217" y="-24"/>
			<point x="185" y="-74"/>
			<point x="185" y="-120" type="curve" smooth="yes"/>
			<point x="185" y="-178"/>
			<point x="229" y="-208"/>
		</contour>
		<contour>
			<point x="275" y="84" type="curve" smooth="yes"/>
			<point x="204" y="84"/>
			<point x="162" y="148"/>
			<point x="162" y="245" type="curve" smooth="yes"/>
			<point x="162" y="343"/>
			<point x="204" y="407"/>
			<point x="275" y="407" type="curve" smooth="yes"/>
			<point x="346" y="407"/>
			<point x="388" y="343"/>
			<point x="388" y="245" type="curve" smooth="yes"/>
			<point x="388" y="148"/>
			<point x="346" y="84"/>
		</contour>
	</outline>
	<anchor name="aboveLC" x="275" y="514"/>
</glyph>
<glyph name="Wynn" format="2">
	<unicode hex="01F7"/>
	<advance width="582"/>
	<outline>
		<contour>
			<point x="83" y="-162" type="line"/>
			<point x="199" y="-162" type="line"/>
			<point x="199" y="-2" type="line"/>
			<point x="453" y="133"/>
			<point x="542" y="293"/>
			<point x="542" y="451" type="curve" smooth="yes"/>
			<point x="542" y="604"/>
			<point x="473" y="666"/>
			<point x="368" y="666" type="curve" smooth="yes"/>
			<point x="301" y="666"/>
			<point x="244" y="630"/>
			<point x="196" y="578" type="curve"/>
			<point x="196" y="654" type="line"/>
			<point x="83" y="654" type="line"/>
		</contour>
		<contour>
			<point x="199" y="100" type="curve"/>
			<point x="199" y="476" type="line"/>
			<point x="236" y="529"/>
			<point x="289" y="565"/>
			<point x="334" y="565" type="curve" smooth="yes"/>
			<point x="390" y="565"/>
			<point x="428" y="532"/>
			<point x="428" y="440" type="curve" smooth="yes"/>
			<point x="428" y="328"/>
			<point x="374" y="215"/>
		</contour>
	</outline>
	<anchor name="aboveUC" x="324" y="676"/>
	<anchor name="belowLC" x="150" y="-166"/>
</glyph>
<glyph name="Yogh" format="2">
	<unicode hex="021C"/>
	<advance width="506"/>
	<outline>
		<contour>
			<point x="106" y="-174" type="line"/>
			<point x="356" y="-75"/>
			<point x="467" y="23"/>
			<point x="467" y="173" type="curve" smooth="yes"/>
			<point x="467" y="271"/>
			<point x="399" y="325"/>
			<point x="304" y="326" type="curve"/>
			<point x="390" y="383"/>
			<point x="428" y="440"/>
			<point x="428" y="520" type="curve" smooth="yes"/>
			<point x="428" y="606"/>
			<point x="361" y="666"/>
			<point x="256" y="666" type="curve" smooth="yes"/>
			<point x="162" y="666"/>
			<point x="98" y="633"/>
			<point x="20" y="556" type="curve"/>
			<point x="76" y="488" type="line"/>
			<point x="134" y="541"/>
			<point x="175" y="565"/>
			<point x="234" y="565" type="curve" smooth="yes"/>
			<point x="280" y="565"/>
			<point x="313" y="535"/>
			<point x="313" y="486" type="curve" smooth="yes"/>
			<point x="313" y="426"/>
			<point x="282" y="381"/>
			<point x="108" y="284" type="curve"/>
			<point x="148" y="215" type="line"/>
			<point x="197" y="241"/>
			<point x="225" y="247"/>
			<point x="262" y="247" type="curve" smooth="yes"/>
			<point x="314" y="247"/>
			<point x="351" y="214"/>
			<point x="351" y="156" type="curve" smooth="yes"/>
			<point x="351" y="82"/>
			<point x="276" y="0"/>
			<point x="62" y="-90" type="curve"/>
		</contour>
	</outline>
	<anchor name="aboveUC" x="252" y="676"/>
	<anchor name="belowLC" x="270" y="-166"/>
</glyph>
<glyph name="OU" format="2">
	<unicode hex="0222"/>
	<advance width="674"/>
	<outline>
		<contour>
			<point x="337" y="-12" type="curve" smooth="yes"/>
			<point x="510" y="-12"/>
			<point x="626" y="66"/>
			<point x="626" y="201" type="curve" smooth="yes"/>
			<point x="626" y="310"/>
			<point x="547" y="378"/>
			<point x="438" y="400" type="curve"/>
			<point x="438" y="373" type="line"/>
			<point x="550" y="404"/>
			<point x="584" y="474"/>
			<point x="584" y="581" type="curve" smooth="yes"/>
			<point x="584" y="654" type="line"/>
			<point x="472" y="654" type="line"/>
			<point x="472" y="590" type="line" smooth="yes"/>
			<point x="472" y="470"/>
			<point x="417" y="430"/>
			<point x="337" y="430" type="curve" smooth="yes"/>
			<point x="258" y="430"/>
			<point x="205" y="470"/>
			<point x="205" y="590" type="curve" smooth="yes"/>
			<point x="205" y="654" type="line"/>
			<point x="89" y="654" type="line"/>
			<point x="89" y="581" type="line" smooth="yes"/>
			<point x="89" y="474"/>
			<point x="123" y="404"/>
			<point x="235" y="373" type="curve"/>
			<point x="235" y="400" type="line"/>
			<point x="126" y="378"/>
			<point x="49" y="310"/>
			<point x="49" y="201" type="curve" smooth="yes"/>
			<point x="49" y="66"/>
			<point x="164" y="-12"/>
		</contour>
		<contour>
			<point x="337" y="89" type="curve" smooth="yes"/>
			<point x="238" y="89"/>
			<point x="168" y="132"/>
			<point x="168" y="213" type="curve" smooth="yes"/>
			<point x="168" y="294"/>
			<point x="238" y="336"/>
			<point x="337" y="336" type="curve" smooth="yes"/>
			<point x="437" y="336"/>
			<point x="506" y="294"/>
			<point x="506" y="213" type="curve" smooth="yes"/>
			<point x="506" y="132"/>
			<point x="437" y="89"/>
		</contour>
	</outline>
	<anchor name="aboveUC" x="337" y="676"/>
	<anchor name="belowLC" x="337" y="-22"/>
</glyph>
<glyph name="Astroke" format="2">
	<unicode hex="023A"/>
	<advance width="558"/>
	<outline>
		<contour>
			<point x="208" y="-36" type="line"/>
			<point x="396" y="678" type="line"/>
			<point x="350" y="690" type="line"/>
			<point x="162" y="-24" type="line"/>
		</contour>
		<component base="A"/>
	</outline>
	<anchor name="aboveUC" x="278" y="676"/>
	<anchor name="belowLC" x="278" y="-22"/>
</glyph>
<glyph name="Cstroke" format="2">
	<unicode hex="023B"/>
	<advance width="576"/>
	<outline>
		<contour>
			<point x="238" y="-56" type="line"/>
			<point x="462" y="698" type="line"/>
			<point x="412" y="710" type="line"/>
			<point x="188" y="-44" type="line"/>
		</contour>
		<component base="C"/>
	</outline>
	<anchor name="aboveUC" x="338" y="676"/>
	<anchor name="belowLC" x="346" y="-22"/>
</glyph>
<glyph name="cstroke" format="2">
	<unicode hex="023C"/>
	<advance width="462"/>
	<outline>
		<contour>
			<point x="204" y="-36" type="line"/>
			<point x="390" y="520" type="line"/>
			<point x="348" y="534" type="line"/>
			<point x="160" y="-24" type="line"/>
		</contour>
		<component base="c"/>
	</outline>
	<anchor name="aboveLC" x="276" y="514"/>
	<anchor name="belowLC" x="264" y="-22"/>
</glyph>
<glyph name="Lbar" format="2">
	<unicode hex="023D"/>
	<advance width="526"/>
	<outline>
		<contour>
			<point x="30" y="316" type="line"/>
			<point x="410" y="316" type="line"/>
			<point x="410" y="404" type="line"/>
			<point x="110" y="404" type="line"/>
			<point x="30" y="398" type="line"/>
		</contour>
		<component base="L" xOffset="26"/>
	</outline>
	<anchor name="aboveUC" x="170" y="676"/>
	<anchor name="belowLC" x="312" y="-22"/>
</glyph>
<glyph name="Glottalstop" format="2">
	<unicode hex="0241"/>
	<advance width="509"/>
	<outline>
		<contour>
			<point x="170" y="0" type="line"/>
			<point x="289" y="0" type="line"/>
			<point x="289" y="217" type="line"/>
			<point x="397" y="267"/>
			<point x="474" y="348"/>
			<point x="474" y="463" type="curve" smooth="yes"/>
			<point x="474" y="597"/>
			<point x="362" y="666"/>
			<point x="231" y="666" type="curve" smooth="yes"/>
			<point x="134" y="666"/>
			<point x="54" y="623"/>
			<point x="0" y="570" type="curve"/>
			<point x="62" y="493" type="line"/>
			<point x="104" y="532"/>
			<point x="165" y="562"/>
			<point x="222" y="562" type="curve" smooth="yes"/>
			<point x="301" y="562"/>
			<point x="352" y="522"/>
			<point x="352" y="454" type="curve" smooth="yes"/>
			<point x="352" y="380"/>
			<point x="303" y="321"/>
			<point x="170" y="271" type="curve"/>
		</contour>
	</outline>
	<anchor name="aboveUC" x="251" y="676"/>
	<anchor name="belowLC" x="225" y="-22"/>
</glyph>
<glyph name="glottalstop" format="1">
	<unicode hex="0242"/>
	<unicode hex="0294"/>
	<advance width="433"/>
	<outline>
		<contour>
			<point x="137" y="0" type="line"/>
			<point x="252" y="0" type="line"/>
			<point x="252" y="283" type="line"/>
			<point x="346" y="346"/>
			<point x="414" y="411"/>
			<point x="414" y="520" type="curve" smooth="yes"/>
			<point x="414" y="651"/>
			<point x="318" y="718"/>
			<point x="201" y="718" type="curve" smooth="yes"/>
			<point x="105" y="718"/>
			<point x="40" y="677"/>
			<point x="-4" y="630" type="curve"/>
			<point x="54" y="556" type="line"/>
			<point x="87" y="593"/>
			<point x="130" y="624"/>
			<point x="190" y="624" type="curve" smooth="yes"/>
			<point x="258" y="624"/>
			<point x="298" y="583"/>
			<point x="298" y="516" type="curve" smooth="yes"/>
			<point x="298" y="443"/>
			<point x="251" y="393"/>
			<point x="137" y="326" type="curve"/>
		</contour>
		<contour>
			<point name="aboveUC" x="208" y="724" type="move"/>
		</contour>
		<contour>
			<point name="belowLC" x="188" y="-22" type="move"/>
		</contour>
	</outline>
</glyph>
<glyph name="Bstroke" format="2">
	<unicode hex="0243"/>
	<advance width="616"/>
	<outline>
		<contour>
			<point x="104" y="0" type="line"/>
			<point x="330" y="0" type="line" smooth="yes"/>
			<point x="474" y="0"/>
			<point x="581" y="63"/>
			<point x="581" y="198" type="curve" smooth="yes"/>
			<point x="581" y="290"/>
			<point x="528" y="342"/>
			<point x="434" y="359" type="curve"/>
			<point x="434" y="363" type="line"/>
			<point x="511" y="383"/>
			<point x="546" y="437"/>
			<point x="546" y="496" type="curve" smooth="yes"/>
			<point x="546" y="612"/>
			<point x="447" y="654"/>
			<point x="313" y="654" type="curve" smooth="yes"/>
			<point x="104" y="654" type="line"/>
		</contour>
		<contour>
			<point x="220" y="389" type="line"/>
			<point x="220" y="570" type="line"/>
			<point x="305" y="570" type="line" smooth="yes"/>
			<point x="390" y="570"/>
			<point x="435" y="545"/>
			<point x="435" y="485" type="curve" smooth="yes"/>
			<point x="435" y="424"/>
			<point x="394" y="389"/>
			<point x="302" y="389" type="curve" smooth="yes"/>
		</contour>
		<contour>
			<point x="220" y="84" type="line"/>
			<point x="220" y="318" type="line"/>
			<point x="318" y="318" type="line" smooth="yes"/>
			<point x="415" y="318"/>
			<point x="470" y="283"/>
			<point x="470" y="206" type="curve" smooth="yes"/>
			<point x="470" y="125"/>
			<point x="414" y="84"/>
			<point x="318" y="84" type="curve" smooth="yes"/>
		</contour>
		<contour>
			<point x="28" y="166" type="line"/>
			<point x="358" y="166" type="line"/>
			<point x="358" y="244" type="line"/>
			<point x="105" y="244" type="line"/>
			<point x="28" y="240" type="line"/>
		</contour>
	</outline>
</glyph>
<glyph name="Ubar" format="2">
	<unicode hex="0244"/>
	<advance width="705"/>
	<outline>
		<contour>
			<point x="30" y="316" type="line"/>
			<point x="676" y="316" type="line"/>
			<point x="676" y="404" type="line"/>
			<point x="108" y="404" type="line"/>
			<point x="30" y="397" type="line"/>
		</contour>
		<component base="U" xOffset="27"/>
	</outline>
	<anchor name="aboveUC" x="353" y="676"/>
	<anchor name="belowLC" x="353" y="-22"/>
</glyph>
<glyph name="aturned" format="2">
	<unicode hex="0250"/>
	<advance width="516"/>
	<outline>
		<contour>
			<point x="272" y="-12" type="curve" smooth="yes"/>
			<point x="340" y="-12"/>
			<point x="410" y="18"/>
			<point x="464" y="52" type="curve"/>
			<point x="422" y="127" type="line"/>
			<point x="379" y="102"/>
			<point x="332" y="81"/>
			<point x="289" y="81" type="curve" smooth="yes"/>
			<point x="209" y="81"/>
			<point x="183" y="126"/>
			<point x="180" y="176" type="curve"/>
			<point x="382" y="200"/>
			<point x="469" y="263"/>
			<point x="469" y="372" type="curve" smooth="yes"/>
			<point x="469" y="451"/>
			<point x="417" y="503"/>
			<point x="336" y="503" type="curve" smooth="yes"/>
			<point x="271" y="503"/>
			<point x="214" y="473"/>
			<point x="172" y="427" type="curve"/>
			<point x="168" y="427" type="line"/>
			<point x="160" y="491" type="line"/>
			<point x="65" y="491" type="line"/>
			<point x="65" y="207" type="line" smooth="yes"/>
			<point x="65" y="68"/>
			<point x="133" y="-12"/>
		</contour>
		<contour>
			<point x="180" y="249" type="curve"/>
			<point x="180" y="349" type="line"/>
			<point x="219" y="392"/>
			<point x="256" y="413"/>
			<point x="295" y="413" type="curve" smooth="yes"/>
			<point x="330" y="413"/>
			<point x="358" y="395"/>
			<point x="358" y="354" type="curve" smooth="yes"/>
			<point x="358" y="303"/>
			<point x="314" y="267"/>
		</contour>
	</outline>
	<anchor name="aboveLC" x="282" y="514"/>
	<anchor name="belowLC" x="272" y="-22"/>
	<anchor name="ogonekLC" x="272" y="0"/>
</glyph>
<glyph name="alphalatin" format="2">
	<unicode hex="0251"/>
	<advance width="568"/>
	<outline>
		<contour>
			<point x="245" y="-12" type="curve" smooth="yes"/>
			<point x="302" y="-12"/>
			<point x="352" y="20"/>
			<point x="387" y="57" type="curve"/>
			<point x="390" y="57" type="line"/>
			<point x="404" y="9"/>
			<point x="436" y="-12"/>
			<point x="488" y="-12" type="curve" smooth="yes"/>
			<point x="513" y="-12"/>
			<point x="530" y="-6"/>
			<point x="544" y="-2" type="curve"/>
			<point x="529" y="86" type="line"/>
			<point x="522" y="84"/>
			<point x="519" y="84"/>
			<point x="515" y="84" type="curve" smooth="yes"/>
			<point x="502" y="84"/>
			<point x="492" y="94"/>
			<point x="492" y="123" type="curve" smooth="yes"/>
			<point x="492" y="492" type="line"/>
			<point x="399" y="492" type="line"/>
			<point x="389" y="443" type="line"/>
			<point x="386" y="443" type="line"/>
			<point x="345" y="484"/>
			<point x="305" y="504"/>
			<point x="253" y="504" type="curve" smooth="yes"/>
			<point x="143" y="504"/>
			<point x="43" y="406"/>
			<point x="43" y="245" type="curve" smooth="yes"/>
			<point x="43" y="83"/>
			<point x="122" y="-12"/>
		</contour>
		<contour>
			<point x="274" y="86" type="curve" smooth="yes"/>
			<point x="204" y="86"/>
			<point x="164" y="141"/>
			<point x="164" y="247" type="curve" smooth="yes"/>
			<point x="164" y="348"/>
			<point x="215" y="406"/>
			<point x="276" y="406" type="curve" smooth="yes"/>
			<point x="309" y="406"/>
			<point x="341" y="396"/>
			<point x="374" y="366" type="curve"/>
			<point x="374" y="140" type="line"/>
			<point x="343" y="102"/>
			<point x="311" y="86"/>
		</contour>
	</outline>
	<anchor name="aboveLC" x="282" y="514"/>
	<anchor name="belowLC" x="289" y="-22"/>
</glyph>
<glyph name="alphalatinturned" format="2">
	<unicode hex="0252"/>
	<advance width="573"/>
	<outline>
		<contour>
			<point x="320" y="-12" type="curve" smooth="yes"/>
			<point x="430" y="-12"/>
			<point x="530" y="85"/>
			<point x="530" y="253" type="curve" smooth="yes"/>
			<point x="530" y="405"/>
			<point x="460" y="503"/>
			<point x="337" y="503" type="curve" smooth="yes"/>
			<point x="280" y="503"/>
			<point x="226" y="472"/>
			<point x="185" y="434" type="curve"/>
			<point x="182" y="434" type="line"/>
			<point x="169" y="482"/>
			<point x="138" y="503"/>
			<point x="86" y="503" type="curve" smooth="yes"/>
			<point x="62" y="503"/>
			<point x="45" y="498"/>
			<point x="31" y="493" type="curve"/>
			<point x="46" y="407" type="line"/>
			<point x="53" y="409"/>
			<point x="56" y="409"/>
			<point x="60" y="409" type="curve" smooth="yes"/>
			<point x="73" y="409"/>
			<point x="82" y="399"/>
			<point x="82" y="371" type="curve" smooth="yes"/>
			<point x="82" y="0" type="line"/>
			<point x="174" y="0" type="line"/>
			<point x="183" y="48" type="line"/>
			<point x="186" y="48" type="line"/>
			<point x="229" y="8"/>
			<point x="277" y="-12"/>
		</contour>
		<contour>
			<point x="296" y="83" type="curve" smooth="yes"/>
			<point x="268" y="83"/>
			<point x="233" y="94"/>
			<point x="198" y="124" type="curve"/>
			<point x="198" y="353" type="line"/>
			<point x="236" y="390"/>
			<point x="269" y="408"/>
			<point x="305" y="408" type="curve" smooth="yes"/>
			<point x="380" y="408"/>
			<point x="412" y="350"/>
			<point x="412" y="252" type="curve" smooth="yes"/>
			<point x="412" y="141"/>
			<point x="362" y="83"/>
		</contour>
	</outline>
	<anchor name="aboveLC" x="312" y="514"/>
	<anchor name="belowLC" x="290" y="-22"/>
</glyph>
<glyph name="bhook" format="2">
	<unicode hex="0253"/>
	<advance width="564"/>
	<outline>
		<contour>
			<point x="313" y="-12" type="curve" smooth="yes"/>
			<point x="422" y="-12"/>
			<point x="522" y="83"/>
			<point x="522" y="248" type="curve" smooth="yes"/>
			<point x="522" y="395"/>
			<point x="451" y="491"/>
			<point x="328" y="491" type="curve" smooth="yes"/>
			<point x="278" y="491"/>
			<point x="228" y="466"/>
			<point x="187" y="431" type="curve"/>
			<point x="189" y="519" type="line"/>
			<point x="193" y="589"/>
			<point x="220" y="624"/>
			<point x="276" y="624" type="curve" smooth="yes"/>
			<point x="293" y="624"/>
			<point x="312" y="620"/>
			<point x="329" y="612" type="curve"/>
			<point x="352" y="701" type="line"/>
			<point x="330" y="709"/>
			<point x="297" y="718"/>
			<point x="261" y="718" type="curve" smooth="yes"/>
			<point x="128" y="718"/>
			<point x="72" y="630"/>
			<point x="72" y="516" type="curve"/>
			<point x="72" y="0" type="line"/>
			<point x="165" y="0" type="line"/>
			<point x="176" y="50" type="line"/>
			<point x="179" y="50" type="line"/>
			<point x="220" y="10"/>
			<point x="268" y="-12"/>
		</contour>
		<contour>
			<point x="287" y="86" type="curve" smooth="yes"/>
			<point x="259" y="86"/>
			<point x="224" y="96"/>
			<point x="191" y="125" type="curve"/>
			<point x="191" y="339" type="line"/>
			<point x="227" y="376"/>
			<point x="261" y="394"/>
			<point x="296" y="394" type="curve" smooth="yes"/>
			<point x="369" y="394"/>
			<point x="401" y="339"/>
			<point x="401" y="246" type="curve" smooth="yes"/>
			<point x="401" y="140"/>
			<point x="351" y="86"/>
		</contour>
	</outline>
	<anchor name="aboveUC" x="305" y="724"/>
	<anchor name="belowLC" x="294" y="-22"/>
</glyph>
<glyph name="oopen" format="2">
	<unicode hex="0254"/>
	<advance width="462"/>
	<outline>
		<contour>
			<point x="184" y="-12" type="curve" smooth="yes"/>
			<point x="317" y="-12"/>
			<point x="422" y="82"/>
			<point x="422" y="245" type="curve" smooth="yes"/>
			<point x="422" y="411"/>
			<point x="315" y="504"/>
			<point x="191" y="504" type="curve" smooth="yes"/>
			<point x="120" y="504"/>
			<point x="68" y="479"/>
			<point x="31" y="449" type="curve"/>
			<point x="88" y="372" type="line"/>
			<point x="114" y="395"/>
			<point x="139" y="407"/>
			<point x="178" y="407" type="curve" smooth="yes"/>
			<point x="248" y="407"/>
			<point x="300" y="343"/>
			<point x="300" y="245" type="curve" smooth="yes"/>
			<point x="300" y="148"/>
			<point x="246" y="84"/>
			<point x="172" y="84" type="curve" smooth="yes"/>
			<point x="134" y="84"/>
			<point x="99" y="103"/>
			<point x="71" y="126" type="curve"/>
			<point x="24" y="48" type="line"/>
			<point x="70" y="7"/>
			<point x="128" y="-12"/>
		</contour>
	</outline>
	<anchor name="aboveLC" x="212" y="514"/>
	<anchor name="baseLC" x="206" y="0"/>
	<anchor name="belowLC" x="206" y="-22"/>
</glyph>
<glyph name="ccurl" format="1">
	<unicode hex="0255"/>
	<advance width="468"/>
	<outline>
		<contour>
			<point x="124" y="-71" type="line"/>
			<point x="168" y="72"/>
			<point x="258" y="164"/>
			<point x="330" y="164" type="curve" smooth="yes"/>
			<point x="356" y="164"/>
			<point x="370" y="150"/>
			<point x="370" y="128" type="curve" smooth="yes"/>
			<point x="370" y="99"/>
			<point x="336" y="77"/>
			<point x="296" y="77" type="curve" smooth="yes"/>
			<point x="214" y="77"/>
			<point x="153" y="143"/>
			<point x="153" y="245" type="curve" smooth="yes"/>
			<point x="153" y="347"/>
			<point x="210" y="414"/>
			<point x="293" y="414" type="curve" smooth="yes"/>
			<point x="324" y="414"/>
			<point x="352" y="401"/>
			<point x="378" y="378" type="curve"/>
			<point x="431" y="448" type="line"/>
			<point x="395" y="479"/>
			<point x="350" y="503"/>
			<point x="287" y="503" type="curve" smooth="yes"/>
			<point x="156" y="503"/>
			<point x="41" y="409"/>
			<point x="41" y="245" type="curve" smooth="yes"/>
			<point x="41" y="82"/>
			<point x="150" y="-12"/>
			<point x="289" y="-12" type="curve" smooth="yes"/>
			<point x="390" y="-12"/>
			<point x="456" y="49"/>
			<point x="456" y="130" type="curve" smooth="yes"/>
			<point x="456" y="197"/>
			<point x="414" y="242"/>
			<point x="342" y="242" type="curve" smooth="yes"/>
			<point x="234" y="242"/>
			<point x="128" y="141"/>
			<point x="58" y="-44" type="curve"/>
		</contour>
		<contour>
			<point name="aboveLC" x="282" y="514" type="move"/>
		</contour>
		<contour>
			<point name="belowLC" x="290" y="-22" type="move"/>
		</contour>
	</outline>
</glyph>
<glyph name="dtail" format="2">
	<unicode hex="0256"/>
	<advance width="565"/>
	<outline>
		<contour>
			<point x="522" y="-205" type="curve" smooth="yes"/>
			<point x="553" y="-205"/>
			<point x="576" y="-199"/>
			<point x="592" y="-192" type="curve"/>
			<point x="571" y="-104" type="line"/>
			<point x="561" y="-108"/>
			<point x="550" y="-112"/>
			<point x="539" y="-112" type="curve" smooth="yes"/>
			<point x="504" y="-112"/>
			<point x="492" y="-84"/>
			<point x="492" y="-33" type="curve"/>
			<point x="492" y="718" type="line"/>
			<point x="374" y="718" type="line"/>
			<point x="374" y="529" type="line"/>
			<point x="379" y="450" type="line"/>
			<point x="341" y="483"/>
			<point x="306" y="504"/>
			<point x="251" y="504" type="curve" smooth="yes"/>
			<point x="143" y="504"/>
			<point x="43" y="406"/>
			<point x="43" y="245" type="curve" smooth="yes"/>
			<point x="43" y="83"/>
			<point x="122" y="-12"/>
			<point x="245" y="-12" type="curve" smooth="yes"/>
			<point x="296" y="-12"/>
			<point x="342" y="14"/>
			<point x="379" y="49" type="curve"/>
			<point x="378" y="-61" type="line"/>
			<point x="378" y="-143"/>
			<point x="423" y="-205"/>
		</contour>
		<contour>
			<point x="274" y="86" type="curve" smooth="yes"/>
			<point x="204" y="86"/>
			<point x="164" y="141"/>
			<point x="164" y="247" type="curve" smooth="yes"/>
			<point x="164" y="348"/>
			<point x="215" y="406"/>
			<point x="276" y="406" type="curve" smooth="yes"/>
			<point x="309" y="406"/>
			<point x="341" y="396"/>
			<point x="374" y="366" type="curve"/>
			<point x="374" y="140" type="line"/>
			<point x="343" y="102"/>
			<point x="311" y="86"/>
		</contour>
	</outline>
	<anchor name="aboveUC" x="272" y="724"/>
	<anchor name="belowLC" x="282" y="-206"/>
</glyph>
<glyph name="dhook" format="1">
	<unicode hex="0257"/>
	<advance width="564"/>
	<outline>
		<contour>
			<point x="245" y="-12" type="curve" smooth="yes"/>
			<point x="298" y="-12"/>
			<point x="348" y="17"/>
			<point x="384" y="53" type="curve"/>
			<point x="388" y="53" type="line"/>
			<point x="396" y="0" type="line"/>
			<point x="491" y="0" type="line"/>
			<point x="491" y="546" type="line" smooth="yes"/>
			<point x="491" y="599"/>
			<point x="506" y="628"/>
			<point x="546" y="628" type="curve" smooth="yes"/>
			<point x="556" y="628"/>
			<point x="564" y="626"/>
			<point x="572" y="623" type="curve"/>
			<point x="593" y="709" type="line"/>
			<point x="577" y="715"/>
			<point x="558" y="719"/>
			<point x="530" y="719" type="curve" smooth="yes"/>
			<point x="423" y="719"/>
			<point x="379" y="651"/>
			<point x="379" y="556" type="curve"/>
			<point x="380" y="449" type="line"/>
			<point x="342" y="482"/>
			<point x="307" y="503"/>
			<point x="251" y="503" type="curve" smooth="yes"/>
			<point x="144" y="503"/>
			<point x="43" y="405"/>
			<point x="43" y="245" type="curve" smooth="yes"/>
			<point x="43" y="83"/>
			<point x="122" y="-12"/>
		</contour>
		<contour>
			<point x="273" y="83" type="curve" smooth="yes"/>
			<point x="202" y="83"/>
			<point x="162" y="140"/>
			<point x="162" y="246" type="curve" smooth="yes"/>
			<point x="162" y="349"/>
			<point x="213" y="408"/>
			<point x="276" y="408" type="curve" smooth="yes"/>
			<point x="309" y="408"/>
			<point x="342" y="397"/>
			<point x="376" y="367" type="curve"/>
			<point x="376" y="138" type="line"/>
			<point x="343" y="100"/>
			<point x="311" y="83"/>
		</contour>
		<contour>
			<point name="belowLC" x="306" y="-22" type="move"/>
		</contour>
	</outline>
</glyph>
<glyph name="ereversed" format="2">
	<unicode hex="0258"/>
	<advance width="507"/>
	<outline>
		<contour>
			<point x="228" y="-12" type="curve" smooth="yes"/>
			<point x="365" y="-12"/>
			<point x="466" y="83"/>
			<point x="466" y="245" type="curve" smooth="yes"/>
			<point x="466" y="405"/>
			<point x="368" y="503"/>
			<point x="250" y="503" type="curve" smooth="yes"/>
			<point x="117" y="503"/>
			<point x="37" y="407"/>
			<point x="37" y="270" type="curve" smooth="yes"/>
			<point x="37" y="246"/>
			<point x="38" y="228"/>
			<point x="42" y="210" type="curve"/>
			<point x="354" y="210" type="line"/>
			<point x="344" y="126"/>
			<point x="292" y="77"/>
			<point x="213" y="77" type="curve" smooth="yes"/>
			<point x="171" y="77"/>
			<point x="130" y="89"/>
			<point x="95" y="111" type="curve"/>
			<point x="56" y="41" type="line"/>
			<point x="102" y="8"/>
			<point x="166" y="-12"/>
		</contour>
		<contour>
			<point x="136" y="296" type="line"/>
			<point x="136" y="368"/>
			<point x="179" y="414"/>
			<point x="246" y="414" type="curve" smooth="yes"/>
			<point x="306" y="414"/>
			<point x="346" y="370"/>
			<point x="355" y="296" type="curve"/>
		</contour>
	</outline>
</glyph>
<glyph name="schwa" format="2">
	<unicode hex="0259"/>
	<advance width="507"/>
	<outline>
		<contour>
			<point x="244" y="-12" type="curve" smooth="yes"/>
			<point x="361" y="-12"/>
			<point x="466" y="86"/>
			<point x="466" y="246" type="curve" smooth="yes"/>
			<point x="466" y="408"/>
			<point x="370" y="503"/>
			<point x="240" y="503" type="curve" smooth="yes"/>
			<point x="172" y="503"/>
			<point x="116" y="482"/>
			<point x="69" y="450" type="curve"/>
			<point x="107" y="380" type="line"/>
			<point x="142" y="402"/>
			<point x="179" y="414"/>
			<point x="225" y="414" type="curve" smooth="yes"/>
			<point x="296" y="414"/>
			<point x="356" y="366"/>
			<point x="358" y="245" type="curve" smooth="yes"/>
			<point x="361" y="125"/>
			<point x="302" y="77"/>
			<point x="241" y="77" type="curve" smooth="yes"/>
			<point x="172" y="77"/>
			<point x="136" y="128"/>
			<point x="136" y="204" type="curve"/>
			<point x="379" y="204" type="line"/>
			<point x="378" y="282" type="line"/>
			<point x="42" y="282" type="line"/>
			<point x="39" y="270"/>
			<point x="37" y="248"/>
			<point x="37" y="226" type="curve" smooth="yes"/>
			<point x="37" y="89"/>
			<point x="109" y="-12"/>
		</contour>
	</outline>
	<anchor name="aboveLC" x="252" y="514"/>
	<anchor name="belowLC" x="243" y="-22"/>
	<anchor name="ogonekLC" x="243" y="0"/>
</glyph>
<glyph name="schwahookrhotic" format="1">
	<unicode hex="025A"/>
	<advance width="678"/>
	<outline>
		<contour>
			<point x="254" y="-12" type="curve" smooth="yes"/>
			<point x="382" y="-12"/>
			<point x="467" y="101"/>
			<point x="467" y="239" type="curve" smooth="yes"/>
			<point x="467" y="399"/>
			<point x="380" y="503"/>
			<point x="238" y="503" type="curve" smooth="yes"/>
			<point x="177" y="503"/>
			<point x="118" y="486"/>
			<point x="69" y="453" type="curve"/>
			<point x="108" y="377" type="line"/>
			<point x="144" y="400"/>
			<point x="179" y="414"/>
			<point x="224" y="414" type="curve" smooth="yes"/>
			<point x="308" y="414"/>
			<point x="359" y="357"/>
			<point x="359" y="229" type="curve" smooth="yes"/>
			<point x="359" y="142"/>
			<point x="316" y="76"/>
			<point x="251" y="76" type="curve" smooth="yes"/>
			<point x="195" y="76"/>
			<point x="152" y="109"/>
			<point x="141" y="166" type="curve"/>
			<point x="518" y="324" type="line"/>
			<point x="536" y="248"/>
			<point x="584" y="228"/>
			<point x="627" y="228" type="curve" smooth="yes"/>
			<point x="656" y="228"/>
			<point x="680" y="240"/>
			<point x="698" y="253" type="curve"/>
			<point x="672" y="310" type="line"/>
			<point x="662" y="303"/>
			<point x="648" y="297"/>
			<point x="632" y="297" type="curve" smooth="yes"/>
			<point x="602" y="297"/>
			<point x="588" y="315"/>
			<point x="584" y="390" type="curve"/>
			<point x="526" y="412" type="line"/>
			<point x="37" y="207" type="line"/>
			<point x="45" y="91"/>
			<point x="113" y="-12"/>
		</contour>
		<contour>
			<point name="aboveLC" x="239" y="514" type="move"/>
		</contour>
	</outline>
</glyph>
<glyph name="eopen" format="2">
	<unicode hex="025B"/>
	<advance width="439"/>
	<outline>
		<contour>
			<point x="245" y="-12" type="curve" smooth="yes"/>
			<point x="316" y="-12"/>
			<point x="371" y="3"/>
			<point x="420" y="44" type="curve"/>
			<point x="380" y="113" type="line"/>
			<point x="341" y="87"/>
			<point x="302" y="77"/>
			<point x="264" y="77" type="curve" smooth="yes"/>
			<point x="198" y="77"/>
			<point x="156" y="103"/>
			<point x="156" y="148" type="curve" smooth="yes"/>
			<point x="156" y="190"/>
			<point x="189" y="214"/>
			<point x="255" y="214" type="curve" smooth="yes"/>
			<point x="325" y="214" type="line"/>
			<point x="325" y="292" type="line"/>
			<point x="270" y="292" type="line" smooth="yes"/>
			<point x="210" y="292"/>
			<point x="180" y="315"/>
			<point x="180" y="353" type="curve" smooth="yes"/>
			<point x="180" y="392"/>
			<point x="214" y="414"/>
			<point x="261" y="414" type="curve" smooth="yes"/>
			<point x="301" y="414"/>
			<point x="332" y="406"/>
			<point x="366" y="384" type="curve"/>
			<point x="408" y="455" type="line"/>
			<point x="366" y="486"/>
			<point x="313" y="503"/>
			<point x="252" y="503" type="curve" smooth="yes"/>
			<point x="153" y="503"/>
			<point x="66" y="459"/>
			<point x="66" y="367" type="curve" smooth="yes"/>
			<point x="66" y="324"/>
			<point x="94" y="280"/>
			<point x="147" y="262" type="curve"/>
			<point x="147" y="258" type="line"/>
			<point x="89" y="243"/>
			<point x="42" y="204"/>
			<point x="42" y="132" type="curve" smooth="yes"/>
			<point x="42" y="41"/>
			<point x="137" y="-12"/>
		</contour>
	</outline>
	<anchor name="aboveLC" x="246" y="514"/>
	<anchor name="baseLC" x="246" y="0"/>
	<anchor name="belowLC" x="246" y="-22"/>
	<anchor name="ogonekLC" x="246" y="0"/>
</glyph>
<glyph name="eopenreversed" format="1">
	<unicode hex="025C"/>
	<advance width="466"/>
	<outline>
		<contour>
			<point x="213" y="-12" type="curve" smooth="yes"/>
			<point x="322" y="-12"/>
			<point x="418" y="42"/>
			<point x="418" y="138" type="curve"/>
			<point x="418" y="206"/>
			<point x="371" y="243"/>
			<point x="313" y="258" type="curve"/>
			<point x="313" y="262" type="line"/>
			<point x="367" y="280"/>
			<point x="394" y="324"/>
			<point x="394" y="367" type="curve" smooth="yes"/>
			<point x="394" y="461"/>
			<point x="311" y="503"/>
			<point x="213" y="503" type="curve" smooth="yes"/>
			<point x="152" y="503"/>
			<point x="99" y="487"/>
			<point x="51" y="456" type="curve"/>
			<point x="94" y="381" type="line"/>
			<point x="129" y="402"/>
			<point x="162" y="414"/>
			<point x="202" y="414" type="curve" smooth="yes"/>
			<point x="249" y="414"/>
			<point x="280" y="391"/>
			<point x="280" y="352" type="curve" smooth="yes"/>
			<point x="280" y="315"/>
			<point x="252" y="292"/>
			<point x="190" y="292" type="curve" smooth="yes"/>
			<point x="129" y="292" type="line"/>
			<point x="129" y="214" type="line"/>
			<point x="205" y="214" type="line" smooth="yes"/>
			<point x="271" y="214"/>
			<point x="305" y="193"/>
			<point x="305" y="149" type="curve" smooth="yes"/>
			<point x="305" y="104"/>
			<point x="260" y="77"/>
			<point x="195" y="77" type="curve" smooth="yes"/>
			<point x="159" y="77"/>
			<point x="122" y="88"/>
			<point x="82" y="115" type="curve"/>
			<point x="35" y="40" type="line"/>
			<point x="96" y="1"/>
			<point x="148" y="-12"/>
		</contour>
		<contour>
			<point name="aboveLC" x="226" y="514" type="move"/>
		</contour>
		<contour>
			<point name="belowLC" x="228" y="-22" type="move"/>
		</contour>
	</outline>
</glyph>
<glyph name="eopenreversedrhotic" format="2">
	<unicode hex="025D"/>
	<advance width="601"/>
	<outline>
		<contour>
			<point x="201" y="-12" type="curve" smooth="yes"/>
			<point x="309" y="-12"/>
			<point x="404" y="41"/>
			<point x="404" y="133" type="curve" smooth="yes"/>
			<point x="404" y="204"/>
			<point x="357" y="243"/>
			<point x="299" y="258" type="curve"/>
			<point x="299" y="262" type="line"/>
			<point x="436" y="324" type="line"/>
			<point x="436" y="311" type="line" smooth="yes"/>
			<point x="436" y="226"/>
			<point x="483" y="194"/>
			<point x="536" y="194" type="curve" smooth="yes"/>
			<point x="572" y="194"/>
			<point x="596" y="206"/>
			<point x="615" y="218" type="curve"/>
			<point x="588" y="275" type="line"/>
			<point x="579" y="268"/>
			<point x="566" y="263"/>
			<point x="549" y="263" type="curve" smooth="yes"/>
			<point x="516" y="263"/>
			<point x="497" y="286"/>
			<point x="497" y="360" type="curve" smooth="yes"/>
			<point x="497" y="377"/>
			<point x="497" y="393"/>
			<point x="499" y="417" type="curve"/>
			<point x="488" y="425" type="line"/>
			<point x="342" y="360" type="line"/>
			<point x="346" y="290" type="line"/>
			<point x="368" y="312"/>
			<point x="376" y="338"/>
			<point x="376" y="367" type="curve" smooth="yes"/>
			<point x="376" y="459"/>
			<point x="296" y="503"/>
			<point x="197" y="503" type="curve" smooth="yes"/>
			<point x="136" y="503"/>
			<point x="81" y="486"/>
			<point x="38" y="455" type="curve"/>
			<point x="80" y="384" type="line"/>
			<point x="116" y="407"/>
			<point x="148" y="414"/>
			<point x="188" y="414" type="curve" smooth="yes"/>
			<point x="234" y="414"/>
			<point x="266" y="392"/>
			<point x="266" y="354" type="curve" smooth="yes"/>
			<point x="266" y="316"/>
			<point x="236" y="292"/>
			<point x="176" y="292" type="curve" smooth="yes"/>
			<point x="121" y="292" type="line"/>
			<point x="121" y="214" type="line"/>
			<point x="191" y="214" type="line" smooth="yes"/>
			<point x="257" y="214"/>
			<point x="290" y="191"/>
			<point x="290" y="149" type="curve" smooth="yes"/>
			<point x="290" y="104"/>
			<point x="248" y="77"/>
			<point x="182" y="77" type="curve" smooth="yes"/>
			<point x="144" y="77"/>
			<point x="105" y="87"/>
			<point x="66" y="113" type="curve"/>
			<point x="26" y="44" type="line"/>
			<point x="75" y="3"/>
			<point x="130" y="-12"/>
		</contour>
	</outline>
	<anchor name="aboveLC" x="211" y="514"/>
	<anchor name="belowLC" x="212" y="-22"/>
</glyph>
